# Blender 4.5.4 LTS
# www.blender.org
mtllib Barrel.mtl
o scrap_metal_barrel
v -14.985735 -4.560159 -18.874538
v -14.985735 -2.091549 -18.874538
v -13.901026 -4.560159 -18.626961
v -13.901026 -2.091549 -18.626961
v -13.031157 -4.560159 -17.933264
v -13.031157 -2.091549 -17.933264
v -12.548415 -4.560159 -16.930841
v -12.548415 -2.091549 -16.930841
v -12.548415 -4.560159 -15.818236
v -12.548415 -2.091549 -15.818236
v -13.031157 -4.560159 -14.815814
v -13.031157 -2.091549 -14.815814
v -13.901026 -4.560159 -14.122116
v -13.901026 -2.091549 -14.122116
v -14.985735 -4.560159 -13.874538
v -14.985735 -2.091549 -13.874538
v -16.070444 -4.560159 -14.122116
v -16.070444 -2.091549 -14.122116
v -16.940313 -4.560159 -14.815814
v -16.940313 -2.091549 -14.815814
v -17.423054 -4.560159 -15.818236
v -17.423054 -2.091549 -15.818236
v -17.423054 -4.560159 -16.930841
v -17.423054 -2.091549 -16.930841
v -16.940313 -4.560159 -17.933264
v -16.940313 -2.091549 -17.933264
v -16.070444 -4.560159 -18.626961
v -16.070444 -2.091549 -18.626961
v -14.985735 -4.640877 -18.914593
v -13.883647 -4.640877 -18.663048
v -12.999841 -4.640877 -17.958237
v -12.509365 -4.640877 -16.939754
v -12.509365 -4.640877 -15.809323
v -12.999841 -4.640877 -14.790840
v -13.883647 -4.640877 -14.086029
v -14.985735 -4.640877 -13.834484
v -16.087824 -4.640877 -14.086029
v -16.971630 -4.640877 -14.790840
v -17.462105 -4.640877 -15.809323
v -17.462105 -4.640877 -16.939754
v -16.971630 -4.640877 -17.958237
v -16.087824 -4.640877 -18.663048
v -14.985735 -4.733837 -18.914593
v -13.883647 -4.733837 -18.663048
v -12.999841 -4.733837 -17.958237
v -12.509365 -4.733837 -16.939754
v -12.509365 -4.733837 -15.809323
v -12.999841 -4.733837 -14.790840
v -13.883647 -4.733837 -14.086029
v -14.985735 -4.733837 -13.834484
v -16.087824 -4.733837 -14.086029
v -16.971630 -4.733837 -14.790840
v -17.462105 -4.733837 -15.809323
v -17.462105 -4.733837 -16.939754
v -16.971630 -4.733837 -17.958237
v -16.087824 -4.733837 -18.663048
v -14.985735 -4.793849 -18.866386
v -13.904562 -4.793849 -18.619616
v -13.037530 -4.793849 -17.928181
v -12.556363 -4.793849 -16.929028
v -12.556363 -4.793849 -15.820050
v -13.037530 -4.793849 -14.820896
v -13.904562 -4.793849 -14.129461
v -14.985735 -4.793849 -13.882690
v -16.066908 -4.793849 -14.129461
v -16.933941 -4.793849 -14.820896
v -17.415108 -4.793849 -15.820050
v -17.415108 -4.793849 -16.929028
v -16.933941 -4.793849 -17.928181
v -16.066908 -4.793849 -18.619616
v -14.985735 -2.057051 -18.899538
v -13.890179 -2.057051 -18.649485
v -13.011610 -2.057051 -17.948851
v -12.524042 -2.057051 -16.936403
v -12.524042 -2.057051 -15.812673
v -13.011610 -2.057051 -14.800226
v -13.890179 -2.057051 -14.099592
v -14.985735 -2.057051 -13.849539
v -16.081291 -2.057051 -14.099592
v -16.959860 -2.057051 -14.800226
v -17.447428 -2.057051 -15.812673
v -17.447428 -2.057051 -16.936403
v -16.959860 -2.057051 -17.948851
v -16.081291 -2.057051 -18.649485
v -14.985735 -2.022553 -18.899538
v -13.890179 -2.022553 -18.649485
v -13.011610 -2.022553 -17.948851
v -12.524042 -2.022553 -16.936403
v -12.524042 -2.022553 -15.812673
v -13.011610 -2.022553 -14.800226
v -13.890179 -2.022553 -14.099592
v -14.985735 -2.022553 -13.849539
v -16.081291 -2.022553 -14.099592
v -16.959860 -2.022553 -14.800226
v -17.447428 -2.022553 -15.812673
v -17.447428 -2.022553 -16.936403
v -16.959860 -2.022553 -17.948851
v -16.081291 -2.022553 -18.649485
v -14.985735 -1.988055 -18.874550
v -14.985735 -1.988055 -13.874527
v -16.070450 -1.988055 -14.122107
v -16.940323 -1.988055 -14.815806
v -17.423065 -1.988055 -16.930843
v -16.940323 -1.988055 -17.933270
v -13.901026 -1.988055 -18.626961
v -13.031157 -1.988055 -17.933264
v -12.548415 -1.988055 -16.930841
v -12.548415 -1.988055 -15.818236
v -13.031157 -1.988055 -14.815814
v -13.901026 -1.988055 -14.122116
v -17.423054 -1.988055 -15.818236
v -16.070444 -1.988055 -18.626961
v -16.070450 0.352733 -14.122107
v -14.985735 0.352733 -13.874527
v -16.940323 0.352733 -14.815806
v -16.940323 0.352733 -17.933270
v -17.423065 0.352733 -16.930843
v -13.031157 0.352733 -17.933264
v -13.901026 0.352733 -18.626961
v -12.548415 0.352733 -16.930841
v -12.548415 0.352733 -15.818236
v -13.031157 0.352733 -14.815814
v -13.901026 0.352733 -14.122116
v -14.985735 0.352733 -18.874550
v -17.423054 0.352733 -15.818236
v -16.070444 0.352733 -18.626961
v -14.985735 0.352733 -18.874538
v -13.901026 0.352733 -18.626961
v -13.031157 0.352733 -17.933264
v -12.548415 0.352733 -16.930841
v -12.548415 0.352733 -15.818236
v -13.031157 0.352733 -14.815814
v -13.901026 0.352733 -14.122116
v -14.985735 0.352733 -13.874538
v -16.070444 0.352733 -14.122116
v -16.940313 0.352733 -14.815814
v -17.423054 0.352733 -15.818236
v -17.423054 0.352733 -16.930841
v -16.940313 0.352733 -17.933264
v -16.070444 0.352733 -18.626961
v -14.985735 0.387232 -18.899538
v -13.890179 0.387232 -18.649485
v -13.011610 0.387232 -17.948851
v -12.524042 0.387232 -16.936403
v -12.524042 0.387232 -15.812673
v -13.011610 0.387232 -14.800226
v -13.890179 0.387232 -14.099592
v -14.985735 0.387232 -13.849539
v -16.081291 0.387232 -14.099592
v -16.959860 0.387232 -14.800226
v -17.447428 0.387232 -15.812673
v -17.447428 0.387232 -16.936403
v -16.959860 0.387232 -17.948851
v -16.081291 0.387232 -18.649485
v -14.985735 0.421730 -18.899538
v -13.890179 0.421730 -18.649485
v -13.011610 0.421730 -17.948851
v -12.524042 0.421730 -16.936403
v -12.524042 0.421730 -15.812673
v -13.011610 0.421730 -14.800226
v -13.890179 0.421730 -14.099592
v -14.985735 0.421730 -13.849539
v -16.081291 0.421730 -14.099592
v -16.959860 0.421730 -14.800226
v -17.447428 0.421730 -15.812673
v -17.447428 0.421730 -16.936403
v -16.959860 0.421730 -17.948851
v -16.081291 0.421730 -18.649485
v -14.985735 0.456227 -18.874550
v -14.985735 0.456227 -13.874527
v -16.070450 0.456227 -14.122107
v -16.940323 0.456227 -14.815806
v -17.423065 0.456227 -16.930843
v -16.940323 0.456227 -17.933270
v -13.901026 0.456227 -18.626961
v -13.031157 0.456227 -17.933264
v -12.548415 0.456227 -16.930841
v -12.548415 0.456227 -15.818236
v -13.031157 0.456227 -14.815814
v -13.901026 0.456227 -14.122116
v -17.423054 0.456227 -15.818236
v -16.070444 0.456227 -18.626961
v -16.070450 2.797015 -14.122107
v -14.985735 2.797015 -13.874527
v -16.940323 2.797015 -14.815806
v -16.940323 2.797015 -17.933270
v -17.423065 2.797015 -16.930843
v -13.031157 2.797015 -17.933264
v -13.901026 2.797015 -18.626961
v -12.548415 2.797015 -16.930841
v -12.548415 2.797015 -15.818236
v -13.031157 2.797015 -14.815814
v -13.901026 2.797015 -14.122116
v -14.985735 2.797015 -18.874550
v -17.423054 2.797015 -15.818236
v -16.070444 2.797015 -18.626961
v -14.985735 2.797015 -18.874538
v -13.901026 2.797015 -18.626961
v -13.031157 2.797015 -17.933264
v -12.548415 2.797015 -16.930841
v -12.548415 2.797015 -15.818236
v -13.031157 2.797015 -14.815814
v -13.901026 2.797015 -14.122116
v -14.985735 2.797015 -13.874538
v -16.070444 2.797015 -14.122116
v -16.940313 2.797015 -14.815814
v -17.423054 2.797015 -15.818236
v -17.423054 2.797015 -16.930841
v -16.940313 2.797015 -17.933264
v -16.070444 2.797015 -18.626961
v -14.985735 2.831513 -18.899538
v -13.890179 2.831513 -18.649485
v -13.011610 2.831513 -17.948851
v -12.524042 2.831513 -16.936403
v -12.524042 2.831513 -15.812673
v -13.011610 2.831513 -14.800226
v -13.890179 2.831513 -14.099592
v -14.985735 2.831513 -13.849539
v -16.081291 2.831513 -14.099592
v -16.959860 2.831513 -14.800226
v -17.447428 2.831513 -15.812673
v -17.447428 2.831513 -16.936403
v -16.959860 2.831513 -17.948851
v -16.081291 2.831513 -18.649485
v -14.985735 2.866012 -18.899538
v -13.890179 2.866012 -18.649485
v -13.011610 2.866012 -17.948851
v -12.524042 2.866012 -16.936403
v -12.524042 2.866012 -15.812673
v -13.011610 2.866012 -14.800226
v -13.890179 2.866012 -14.099592
v -14.985735 2.866012 -13.849539
v -16.081291 2.866012 -14.099592
v -16.959860 2.866012 -14.800226
v -17.447428 2.866012 -15.812673
v -17.447428 2.866012 -16.936403
v -16.959860 2.866012 -17.948851
v -16.081291 2.866012 -18.649485
v -14.985735 2.900509 -18.874550
v -14.985735 2.900509 -13.874527
v -16.070450 2.900509 -14.122107
v -16.940323 2.900509 -14.815806
v -17.423065 2.900509 -16.930843
v -16.940323 2.900509 -17.933270
v -13.901026 2.900509 -18.626961
v -13.031157 2.900509 -17.933264
v -12.548415 2.900509 -16.930841
v -12.548415 2.900509 -15.818236
v -13.031157 2.900509 -14.815814
v -13.901026 2.900509 -14.122116
v -17.423054 2.900509 -15.818236
v -16.070444 2.900509 -18.626961
v -14.985735 2.900509 -18.830746
v -14.985735 2.900509 -13.918329
v -16.051443 2.900509 -14.161572
v -16.906076 2.900509 -14.843117
v -17.380362 2.900509 -16.921097
v -16.906076 2.900509 -17.905960
v -13.920031 2.900509 -18.587496
v -13.065403 2.900509 -17.905952
v -12.591120 2.900509 -16.921093
v -12.591120 2.900509 -15.827983
v -13.065403 2.900509 -14.843124
v -13.920031 2.900509 -14.161581
v -17.380350 2.900509 -15.827983
v -16.051439 2.900509 -18.587496
v -14.985735 2.866012 -18.796593
v -14.985735 2.866012 -13.952484
v -16.036625 2.866012 -14.192343
v -16.879374 2.866012 -14.864412
v -17.347063 2.866012 -16.913496
v -16.879374 2.866012 -17.884665
v -13.934850 2.866012 -18.556725
v -13.092106 2.866012 -17.884657
v -12.624418 2.866012 -16.913494
v -12.624418 2.866012 -15.835583
v -13.092106 2.866012 -14.864419
v -13.934850 2.866012 -14.192353
v -17.347052 2.866012 -15.835583
v -16.036619 2.866012 -18.556725
v -14.985735 2.831513 -18.796593
v -14.985735 2.831513 -13.952484
v -16.036625 2.831513 -14.192343
v -16.879374 2.831513 -14.864412
v -17.347063 2.831513 -16.913496
v -16.879374 2.831513 -17.884665
v -13.934850 2.831513 -18.556725
v -13.092106 2.831513 -17.884657
v -12.624418 2.831513 -16.913494
v -12.624418 2.831513 -15.835583
v -13.092106 2.831513 -14.864419
v -13.934850 2.831513 -14.192353
v -17.347052 2.831513 -15.835583
v -16.036619 2.831513 -18.556725
v -14.985735 2.797015 -18.833084
v -14.985735 2.797015 -13.915993
v -16.052458 2.797015 -14.159465
v -16.907904 2.797015 -14.841660
v -17.382641 2.797015 -16.921616
v -16.907904 2.797015 -17.907417
v -13.919017 2.797015 -18.589602
v -13.063576 2.797015 -17.907410
v -12.588840 2.797015 -16.921614
v -12.588840 2.797015 -15.827463
v -13.063576 2.797015 -14.841667
v -13.919017 2.797015 -14.159475
v -17.382629 2.797015 -15.827463
v -16.052454 2.797015 -18.589602
v -14.985735 -4.560159 -18.833084
v -14.985735 -4.560159 -13.915993
v -16.052458 -4.560159 -14.159465
v -16.907904 -4.560159 -14.841660
v -17.382641 -4.560159 -16.921616
v -16.907904 -4.560159 -17.907417
v -13.919017 -4.560159 -18.589602
v -13.063576 -4.560159 -17.907410
v -12.588840 -4.560159 -16.921614
v -12.588840 -4.560159 -15.827463
v -13.063576 -4.560159 -14.841667
v -13.919017 -4.560159 -14.159475
v -17.382629 -4.560159 -15.827463
v -16.052454 -4.560159 -18.589602
vn 0.2225 -0.0000 -0.9749
vn 0.6235 -0.0000 -0.7818
vn 0.9010 -0.0000 -0.4339
vn 1.0000 -0.0000 -0.0000
vn 0.9010 -0.0000 0.4339
vn 0.6235 -0.0000 0.7818
vn 0.2225 -0.0000 0.9749
vn -0.2225 -0.0000 0.9749
vn -0.6235 -0.0000 0.7818
vn -0.9010 -0.0000 0.4339
vn -1.0000 -0.0000 -0.0000
vn -0.9010 -0.0000 -0.4339
vn 0.1817 -0.5770 -0.7963
vn -0.6235 -0.0000 -0.7818
vn -0.2225 -0.0000 -0.9749
vn 0.5613 0.4355 0.7038
vn -0.9002 0.4355 -0.0000
vn 0.9002 0.4355 -0.0000
vn -0.5613 0.4355 0.7038
vn -0.2003 0.4355 -0.8776
vn 0.5613 0.4355 -0.7038
vn 0.2003 0.4355 0.8776
vn -0.8110 0.4355 -0.3906
vn 0.8110 0.4355 0.3906
vn -0.8110 0.4355 0.3906
vn 0.8110 0.4355 -0.3906
vn -0.2003 0.4355 0.8776
vn 0.2003 0.4355 -0.8776
vn -0.5613 0.4355 -0.7038
vn -0.1752 -0.6166 -0.7676
vn -0.0000 -1.0000 -0.0000
vn 0.1752 -0.6166 0.7676
vn -0.1752 -0.6166 0.7676
vn 0.1752 -0.6166 -0.7676
vn -0.4909 -0.6166 0.6155
vn 0.4909 -0.6166 -0.6155
vn -0.7093 -0.6166 0.3416
vn 0.7093 -0.6166 -0.3416
vn -0.7873 -0.6166 -0.0000
vn 0.7873 -0.6166 -0.0000
vn -0.7093 -0.6166 -0.3416
vn 0.7093 -0.6166 0.3416
vn -0.4909 -0.6166 -0.6155
vn 0.4909 -0.6166 0.6155
vn -0.5092 -0.5770 -0.6385
vn 0.5092 -0.5770 0.6385
vn -0.8167 -0.5770 -0.0000
vn 0.8167 -0.5770 -0.0000
vn -0.5092 -0.5770 0.6385
vn -0.1817 -0.5770 -0.7963
vn 0.5092 -0.5770 -0.6385
vn 0.1817 -0.5770 0.7963
vn -0.7358 -0.5770 -0.3544
vn 0.7358 -0.5770 0.3544
vn -0.7358 -0.5770 0.3544
vn 0.7358 -0.5770 -0.3544
vn -0.1817 -0.5770 0.7963
vn -0.5093 0.5768 0.6386
vn 0.5092 0.5770 -0.6385
vn -0.7359 0.5769 0.3544
vn 0.7358 0.5770 -0.3544
vn -0.8168 0.5769 -0.0000
vn 0.8167 0.5770 -0.0000
vn -0.7360 0.5768 -0.3544
vn 0.7358 0.5770 0.3544
vn -0.5093 0.5769 -0.6386
vn 0.5092 0.5770 0.6385
vn -0.1818 0.5769 -0.7963
vn 0.1818 0.5769 0.7963
vn -0.1818 0.5768 0.7964
vn 0.1818 0.5769 -0.7963
vn -0.5093 0.5769 0.6386
vn -0.7360 0.5769 -0.3544
vn 0.7359 -0.5770 0.3544
vn -0.7359 -0.5770 0.3544
vn -0.7359 0.5769 -0.3544
vn -0.1818 0.5769 0.7964
vn -0.0000 1.0000 -0.0000
vn -0.1601 0.6945 0.7015
vn 0.4486 0.6945 -0.5625
vn -0.1601 0.6945 -0.7015
vn 0.6482 0.6945 0.3122
vn 0.6483 0.6945 -0.3122
vn -0.4486 0.6945 0.5625
vn 0.7195 0.6945 -0.0000
vn -0.6483 0.6945 0.3122
vn 0.4486 0.6945 0.5625
vn -0.7195 0.6945 -0.0000
vn 0.1601 0.6945 0.7015
vn -0.6482 0.6945 -0.3122
vn -0.4486 0.6945 -0.5625
vn 0.1601 0.6945 -0.7015
vn 0.6961 -0.7179 -0.0000
vn -0.6272 -0.7179 0.3020
vn 0.4340 -0.7179 0.5443
vn -0.6961 -0.7179 -0.0000
vn 0.1549 -0.7179 0.6787
vn -0.6272 -0.7179 -0.3020
vn -0.4340 -0.7179 -0.5443
vn 0.1549 -0.7179 -0.6787
vn -0.1549 -0.7179 0.6787
vn 0.4340 -0.7179 -0.5443
vn -0.1549 -0.7179 -0.6787
vn 0.6272 -0.7179 0.3020
vn 0.6272 -0.7179 -0.3020
vn -0.4340 -0.7179 0.5443
vt 1.000000 0.500000
vt 1.000000 1.000000
vt 0.928571 1.000000
vt 0.928571 0.500000
vt 0.857143 1.000000
vt 0.857143 0.500000
vt 0.785714 1.000000
vt 0.785714 0.500000
vt 0.714286 1.000000
vt 0.714286 0.500000
vt 0.642857 1.000000
vt 0.642857 0.500000
vt 0.571428 1.000000
vt 0.571428 0.500000
vt 0.500000 1.000000
vt 0.500000 0.500000
vt 0.428571 1.000000
vt 0.428571 0.500000
vt 0.357143 1.000000
vt 0.357143 0.500000
vt 0.285714 1.000000
vt 0.285714 0.500000
vt 0.214286 1.000000
vt 0.214286 0.500000
vt 0.142857 1.000000
vt 0.142857 0.500000
vt 0.071428 1.000000
vt 0.071428 0.500000
vt -0.000000 1.000000
vt -0.000000 0.500000
vt 0.750000 0.490000
vt 0.854132 0.466233
vt 0.937640 0.399638
vt 0.983983 0.303405
vt 0.983983 0.196595
vt 0.937640 0.100362
vt 0.854132 0.033767
vt 0.750000 0.010000
vt 0.645868 0.033767
vt 0.562360 0.100362
vt 0.516017 0.196595
vt 0.516017 0.303405
vt 0.562360 0.399638
vt 0.645868 0.466233
s 0
usemtl Material.005
f 1/1/1 2/2/1 4/3/1 3/4/1
f 3/4/2 4/3/2 6/5/2 5/6/2
f 5/6/3 6/5/3 8/7/3 7/8/3
f 7/8/4 8/7/4 10/9/4 9/10/4
f 9/10/5 10/9/5 12/11/5 11/12/5
f 11/12/6 12/11/6 14/13/6 13/14/6
f 13/14/7 14/13/7 16/15/7 15/16/7
f 15/16/8 16/15/8 18/17/8 17/18/8
f 17/18/9 18/17/9 20/19/9 19/20/9
f 19/20/10 20/19/10 22/21/10 21/22/10
f 21/22/11 22/21/11 24/23/11 23/24/11
f 23/24/12 24/23/12 26/25/12 25/26/12
f 4/3/13 2/2/13 71/2/13 72/3/13
f 25/26/14 26/25/14 28/27/14 27/28/14
f 27/28/15 28/27/15 2/29/15 1/30/15
f 11/12/16 13/14/16 35/14/16 34/12/16
f 40/24/12 41/26/12 55/26/12 54/24/12
f 21/22/17 23/24/17 40/24/17 39/22/17
f 7/8/18 9/10/18 33/10/18 32/8/18
f 17/18/19 19/20/19 38/20/19 37/18/19
f 27/28/20 1/30/20 29/30/20 42/28/20
f 3/4/21 5/6/21 31/6/21 30/4/21
f 13/14/22 15/16/22 36/16/22 35/14/22
f 23/24/23 25/26/23 41/26/23 40/24/23
f 9/10/24 11/12/24 34/12/24 33/10/24
f 19/20/25 21/22/25 39/22/25 38/20/25
f 5/6/26 7/8/26 32/8/26 31/6/26
f 15/16/27 17/18/27 37/18/27 36/16/27
f 1/1/28 3/4/28 30/4/28 29/1/28
f 25/26/29 27/28/29 42/28/29 41/26/29
f 56/28/30 43/30/30 57/30/30 70/28/30
f 33/10/5 34/12/5 48/12/5 47/10/5
f 41/26/14 42/28/14 56/28/14 55/26/14
f 34/12/6 35/14/6 49/14/6 48/12/6
f 42/28/15 29/30/15 43/30/15 56/28/15
f 35/14/7 36/16/7 50/16/7 49/14/7
f 36/16/8 37/18/8 51/18/8 50/16/8
f 29/1/1 30/4/1 44/4/1 43/1/1
f 37/18/9 38/20/9 52/20/9 51/18/9
f 30/4/2 31/6/2 45/6/2 44/4/2
f 38/20/10 39/22/10 53/22/10 52/20/10
f 31/6/3 32/8/3 46/8/3 45/6/3
f 39/22/11 40/24/11 54/24/11 53/22/11
f 32/8/4 33/10/4 47/10/4 46/8/4
f 57/31/31 58/32/31 59/33/31 60/34/31 61/35/31 62/36/31 63/37/31 64/38/31 65/39/31 66/40/31 67/41/31 68/42/31 69/43/31 70/44/31
f 49/14/32 50/16/32 64/16/32 63/14/32
f 50/16/33 51/18/33 65/18/33 64/16/33
f 43/1/34 44/4/34 58/4/34 57/1/34
f 51/18/35 52/20/35 66/20/35 65/18/35
f 44/4/36 45/6/36 59/6/36 58/4/36
f 52/20/37 53/22/37 67/22/37 66/20/37
f 45/6/38 46/8/38 60/8/38 59/6/38
f 53/22/39 54/24/39 68/24/39 67/22/39
f 46/8/40 47/10/40 61/10/40 60/8/40
f 54/24/41 55/26/41 69/26/41 68/24/41
f 47/10/42 48/12/42 62/12/42 61/10/42
f 55/26/43 56/28/43 70/28/43 69/26/43
f 48/12/44 49/14/44 63/14/44 62/12/44
f 73/5/2 72/3/2 86/3/2 87/5/2
f 28/27/45 26/25/45 83/25/45 84/27/45
f 14/13/46 12/11/46 76/11/46 77/13/46
f 24/23/47 22/21/47 81/21/47 82/23/47
f 10/9/48 8/7/48 74/7/48 75/9/48
f 20/19/49 18/17/49 79/17/49 80/19/49
f 2/29/50 28/27/50 84/27/50 71/29/50
f 6/5/51 4/3/51 72/3/51 73/5/51
f 16/15/52 14/13/52 77/13/52 78/15/52
f 26/25/53 24/23/53 82/23/53 83/25/53
f 12/11/54 10/9/54 75/9/54 76/11/54
f 22/21/55 20/19/55 80/19/55 81/21/55
f 8/7/56 6/5/56 73/5/56 74/7/56
f 18/17/57 16/15/57 78/15/57 79/17/57
f 94/19/58 93/17/58 101/17/58 102/19/58
f 81/21/10 80/19/10 94/19/10 95/21/10
f 74/7/3 73/5/3 87/5/3 88/7/3
f 82/23/11 81/21/11 95/21/11 96/23/11
f 75/9/4 74/7/4 88/7/4 89/9/4
f 83/25/12 82/23/12 96/23/12 97/25/12
f 76/11/5 75/9/5 89/9/5 90/11/5
f 84/27/14 83/25/14 97/25/14 98/27/14
f 77/13/6 76/11/6 90/11/6 91/13/6
f 71/29/15 84/27/15 98/27/15 85/29/15
f 78/15/7 77/13/7 91/13/7 92/15/7
f 79/17/8 78/15/8 92/15/8 93/17/8
f 72/3/1 71/2/1 85/2/1 86/3/1
f 80/19/9 79/17/9 93/17/9 94/19/9
f 110/13/6 109/11/6 122/11/6 123/13/6
f 87/5/59 86/3/59 105/3/59 106/5/59
f 95/21/60 94/19/60 102/19/60 111/21/60
f 88/7/61 87/5/61 106/5/61 107/7/61
f 96/23/62 95/21/62 111/21/62 103/23/62
f 89/9/63 88/7/63 107/7/63 108/9/63
f 97/25/64 96/23/64 103/23/64 104/25/64
f 90/11/65 89/9/65 108/9/65 109/11/65
f 98/27/66 97/25/66 104/25/66 112/27/66
f 91/13/67 90/11/67 109/11/67 110/13/67
f 85/29/68 98/27/68 112/27/68 99/29/68
f 92/15/69 91/13/69 110/13/69 100/15/69
f 93/17/70 92/15/70 100/15/70 101/17/70
f 86/3/71 85/2/71 99/2/71 105/3/71
f 105/3/1 99/2/1 124/2/1 119/3/1
f 101/17/8 100/15/8 114/15/8 113/17/8
f 100/15/7 110/13/7 123/13/7 114/15/7
f 102/19/9 101/17/9 113/17/9 115/19/9
f 111/21/10 102/19/10 115/19/10 125/21/10
f 106/5/2 105/3/2 119/3/2 118/5/2
f 104/25/12 103/23/12 117/23/12 116/25/12
f 103/23/11 111/21/11 125/21/11 117/23/11
f 107/7/3 106/5/3 118/5/3 120/7/3
f 112/27/14 104/25/14 116/25/14 126/27/14
f 108/9/4 107/7/4 120/7/4 121/9/4
f 99/29/15 112/27/15 126/27/15 124/29/15
f 109/11/5 108/9/5 121/9/5 122/11/5
f 128/3/13 127/2/13 141/2/13 142/3/13
f 143/5/2 142/3/2 156/3/2 157/5/2
f 140/27/45 139/25/45 153/25/45 154/27/45
f 133/13/46 132/11/46 146/11/46 147/13/46
f 138/23/47 137/21/47 151/21/47 152/23/47
f 131/9/48 130/7/48 144/7/48 145/9/48
f 136/19/49 135/17/49 149/17/49 150/19/49
f 127/29/50 140/27/50 154/27/50 141/29/50
f 129/5/51 128/3/51 142/3/51 143/5/51
f 134/15/52 133/13/52 147/13/52 148/15/52
f 139/25/53 138/23/53 152/23/53 153/25/53
f 132/11/54 131/9/54 145/9/54 146/11/54
f 137/21/55 136/19/55 150/19/55 151/21/55
f 130/7/56 129/5/56 143/5/56 144/7/56
f 135/17/57 134/15/57 148/15/57 149/17/57
f 164/19/72 163/17/72 171/17/72 172/19/72
f 151/21/10 150/19/10 164/19/10 165/21/10
f 144/7/3 143/5/3 157/5/3 158/7/3
f 152/23/11 151/21/11 165/21/11 166/23/11
f 145/9/4 144/7/4 158/7/4 159/9/4
f 153/25/12 152/23/12 166/23/12 167/25/12
f 146/11/5 145/9/5 159/9/5 160/11/5
f 154/27/14 153/25/14 167/25/14 168/27/14
f 147/13/6 146/11/6 160/11/6 161/13/6
f 141/29/15 154/27/15 168/27/15 155/29/15
f 148/15/7 147/13/7 161/13/7 162/15/7
f 149/17/8 148/15/8 162/15/8 163/17/8
f 142/3/1 141/2/1 155/2/1 156/3/1
f 150/19/9 149/17/9 163/17/9 164/19/9
f 180/13/6 179/11/6 192/11/6 193/13/6
f 157/5/59 156/3/59 175/3/59 176/5/59
f 165/21/60 164/19/60 172/19/60 181/21/60
f 158/7/61 157/5/61 176/5/61 177/7/61
f 166/23/62 165/21/62 181/21/62 173/23/62
f 159/9/63 158/7/63 177/7/63 178/9/63
f 167/25/73 166/23/73 173/23/73 174/25/73
f 160/11/65 159/9/65 178/9/65 179/11/65
f 168/27/66 167/25/66 174/25/66 182/27/66
f 161/13/67 160/11/67 179/11/67 180/13/67
f 155/29/68 168/27/68 182/27/68 169/29/68
f 162/15/69 161/13/69 180/13/69 170/15/69
f 163/17/70 162/15/70 170/15/70 171/17/70
f 156/3/71 155/2/71 169/2/71 175/3/71
f 175/3/1 169/2/1 194/2/1 189/3/1
f 171/17/8 170/15/8 184/15/8 183/17/8
f 170/15/7 180/13/7 193/13/7 184/15/7
f 172/19/9 171/17/9 183/17/9 185/19/9
f 181/21/10 172/19/10 185/19/10 195/21/10
f 176/5/2 175/3/2 189/3/2 188/5/2
f 174/25/12 173/23/12 187/23/12 186/25/12
f 173/23/11 181/21/11 195/21/11 187/23/11
f 177/7/3 176/5/3 188/5/3 190/7/3
f 182/27/14 174/25/14 186/25/14 196/27/14
f 178/9/4 177/7/4 190/7/4 191/9/4
f 169/29/15 182/27/15 196/27/15 194/29/15
f 179/11/5 178/9/5 191/9/5 192/11/5
f 198/3/13 197/2/13 211/2/13 212/3/13
f 213/5/2 212/3/2 226/3/2 227/5/2
f 210/27/45 209/25/45 223/25/45 224/27/45
f 203/13/46 202/11/46 216/11/46 217/13/46
f 208/23/47 207/21/47 221/21/47 222/23/47
f 201/9/48 200/7/48 214/7/48 215/9/48
f 206/19/49 205/17/49 219/17/49 220/19/49
f 197/29/50 210/27/50 224/27/50 211/29/50
f 199/5/51 198/3/51 212/3/51 213/5/51
f 204/15/52 203/13/52 217/13/52 218/15/52
f 209/25/53 208/23/53 222/23/53 223/25/53
f 202/11/74 201/9/74 215/9/74 216/11/74
f 207/21/75 206/19/75 220/19/75 221/21/75
f 200/7/56 199/5/56 213/5/56 214/7/56
f 205/17/57 204/15/57 218/15/57 219/17/57
f 234/19/72 233/17/72 241/17/72 242/19/72
f 221/21/10 220/19/10 234/19/10 235/21/10
f 214/7/3 213/5/3 227/5/3 228/7/3
f 222/23/11 221/21/11 235/21/11 236/23/11
f 215/9/4 214/7/4 228/7/4 229/9/4
f 223/25/12 222/23/12 236/23/12 237/25/12
f 216/11/5 215/9/5 229/9/5 230/11/5
f 224/27/14 223/25/14 237/25/14 238/27/14
f 217/13/6 216/11/6 230/11/6 231/13/6
f 211/29/15 224/27/15 238/27/15 225/29/15
f 218/15/7 217/13/7 231/13/7 232/15/7
f 219/17/8 218/15/8 232/15/8 233/17/8
f 212/3/1 211/2/1 225/2/1 226/3/1
f 220/19/9 219/17/9 233/17/9 234/19/9
f 227/5/59 226/3/59 245/3/59 246/5/59
f 235/21/60 234/19/60 242/19/60 251/21/60
f 228/7/61 227/5/61 246/5/61 247/7/61
f 236/23/62 235/21/62 251/21/62 243/23/62
f 229/9/63 228/7/63 247/7/63 248/9/63
f 237/25/76 236/23/76 243/23/76 244/25/76
f 230/11/65 229/9/65 248/9/65 249/11/65
f 238/27/66 237/25/66 244/25/66 252/27/66
f 231/13/67 230/11/67 249/11/67 250/13/67
f 225/29/68 238/27/68 252/27/68 239/29/68
f 232/15/69 231/13/69 250/13/69 240/15/69
f 233/17/77 232/15/77 240/15/77 241/17/77
f 226/3/71 225/2/71 239/2/71 245/3/71
f 245/3/78 239/2/78 253/2/78 259/3/78
f 241/17/78 240/15/78 254/15/78 255/17/78
f 240/15/78 250/13/78 264/13/78 254/15/78
f 242/19/78 241/17/78 255/17/78 256/19/78
f 251/21/78 242/19/78 256/19/78 265/21/78
f 246/5/78 245/3/78 259/3/78 260/5/78
f 244/25/78 243/23/78 257/23/78 258/25/78
f 243/23/78 251/21/78 265/21/78 257/23/78
f 247/7/78 246/5/78 260/5/78 261/7/78
f 252/27/78 244/25/78 258/25/78 266/27/78
f 248/9/78 247/7/78 261/7/78 262/9/78
f 239/29/78 252/27/78 266/27/78 253/29/78
f 249/11/78 248/9/78 262/9/78 263/11/78
f 250/13/78 249/11/78 263/11/78 264/13/78
f 259/3/79 253/2/79 267/2/79 273/3/79
f 256/19/80 255/17/80 269/17/80 270/19/80
f 254/15/81 264/13/81 278/13/81 268/15/81
f 258/25/82 257/23/82 271/23/82 272/25/82
f 265/21/83 256/19/83 270/19/83 279/21/83
f 260/5/84 259/3/84 273/3/84 274/5/84
f 257/23/85 265/21/85 279/21/85 271/23/85
f 261/7/86 260/5/86 274/5/86 275/7/86
f 266/27/87 258/25/87 272/25/87 280/27/87
f 262/9/88 261/7/88 275/7/88 276/9/88
f 253/29/89 266/27/89 280/27/89 267/29/89
f 263/11/90 262/9/90 276/9/90 277/11/90
f 264/13/91 263/11/91 277/11/91 278/13/91
f 255/17/92 254/15/92 268/15/92 269/17/92
f 272/25/5 271/23/5 285/23/5 286/25/5
f 279/21/3 270/19/3 284/19/3 293/21/3
f 274/5/9 273/3/9 287/3/9 288/5/9
f 271/23/4 279/21/4 293/21/4 285/23/4
f 275/7/10 274/5/10 288/5/10 289/7/10
f 280/27/6 272/25/6 286/25/6 294/27/6
f 276/9/11 275/7/11 289/7/11 290/9/11
f 267/29/7 280/27/7 294/27/7 281/29/7
f 277/11/12 276/9/12 290/9/12 291/11/12
f 278/13/14 277/11/14 291/11/14 292/13/14
f 269/17/1 268/15/1 282/15/1 283/17/1
f 273/3/8 267/2/8 281/2/8 287/3/8
f 270/19/2 269/17/2 283/17/2 284/19/2
f 268/15/15 278/13/15 292/13/15 282/15/15
f 285/23/93 293/21/93 307/21/93 299/23/93
f 289/7/94 288/5/94 302/5/94 303/7/94
f 294/27/95 286/25/95 300/25/95 308/27/95
f 290/9/96 289/7/96 303/7/96 304/9/96
f 281/29/97 294/27/97 308/27/97 295/29/97
f 291/11/98 290/9/98 304/9/98 305/11/98
f 292/13/99 291/11/99 305/11/99 306/13/99
f 283/17/100 282/15/100 296/15/100 297/17/100
f 287/3/101 281/2/101 295/2/101 301/3/101
f 284/19/102 283/17/102 297/17/102 298/19/102
f 282/15/103 292/13/103 306/13/103 296/15/103
f 286/25/104 285/23/104 299/23/104 300/25/104
f 293/21/105 284/19/105 298/19/105 307/21/105
f 288/5/106 287/3/106 301/3/106 302/5/106
f 304/9/11 303/7/11 317/7/11 318/9/11
f 295/29/7 308/27/7 322/27/7 309/29/7
f 305/11/12 304/9/12 318/9/12 319/11/12
f 306/13/14 305/11/14 319/11/14 320/13/14
f 297/17/1 296/15/1 310/15/1 311/17/1
f 301/3/8 295/2/8 309/2/8 315/3/8
f 298/19/2 297/17/2 311/17/2 312/19/2
f 296/15/15 306/13/15 320/13/15 310/15/15
f 300/25/5 299/23/5 313/23/5 314/25/5
f 307/21/3 298/19/3 312/19/3 321/21/3
f 302/5/9 301/3/9 315/3/9 316/5/9
f 299/23/4 307/21/4 321/21/4 313/23/4
f 303/7/10 302/5/10 316/5/10 317/7/10
f 308/27/6 300/25/6 314/25/6 322/27/6
f 311/17/78 310/15/78 320/13/78 319/11/78 318/9/78 317/7/78 316/5/78 315/3/78 309/29/78 322/27/78 314/25/78 313/23/78 321/21/78 312/19/78
o floor.002
v -20.200001 -5.000000 20.000000
v -19.799999 -5.000000 20.000000
v -20.199999 12.000000 20.000000
v -19.799999 12.000000 20.000000
v -20.200001 -5.000000 -97.603699
v -19.800001 -5.000000 -97.603699
v -20.200001 12.000000 -97.603699
v -19.799999 12.000000 -97.603699
v -19.799999 12.500000 20.000000
v -20.199999 12.500000 20.000000
v -20.199999 12.500000 -97.603699
v -19.799999 12.500000 -97.603699
v -19.799997 36.763798 20.000000
v -20.199997 36.763798 20.000000
v -20.199999 36.763798 -97.603699
v -19.799999 36.763798 -97.603699
v -19.649998 12.000000 20.000000
v -19.650000 12.000000 -97.603699
v -19.649998 12.500000 20.000000
v -19.650000 12.500000 -97.603699
vn -0.0000 -0.0000 1.0000
vn -0.0000 -0.0000 -1.0000
vn -0.0000 -1.0000 -0.0000
vn -1.0000 -0.0000 -0.0000
vn 1.0000 -0.0000 -0.0000
vn -0.0000 1.0000 -0.0000
vt 0.375000 0.000000
vt 0.625000 0.000000
vt 0.625000 0.250000
vt 0.375000 0.250000
vt 0.625000 0.500000
vt 0.375000 0.500000
vt 0.625000 0.750000
vt 0.375000 0.750000
vt 0.625000 1.000000
vt 0.375000 1.000000
vt 0.125000 0.500000
vt 0.125000 0.750000
vt 0.875000 0.500000
vt 0.875000 0.750000
s 0
usemtl Wall
f 323/45/107 324/46/107 326/47/107 325/48/107
f 330/49/108 329/50/108 333/50/108 334/49/108
f 329/50/108 330/49/108 328/51/108 327/52/108
f 327/52/109 328/51/109 324/53/109 323/54/109
f 325/55/110 329/50/110 327/52/110 323/56/110
f 330/49/111 326/57/111 324/58/111 328/51/111
f 334/49/108 333/50/108 337/50/108 338/49/108
f 329/50/110 325/55/110 332/55/110 333/50/110
f 334/49/112 331/57/112 341/57/112 342/49/112
f 325/48/107 326/47/107 331/47/107 332/48/107
f 336/48/112 335/47/112 338/49/112 337/50/112
f 333/50/110 332/55/110 336/55/110 337/50/110
f 331/57/111 334/49/111 338/49/111 335/57/111
f 332/48/107 331/47/107 335/47/107 336/48/107
f 339/57/111 340/49/111 342/49/111 341/57/111
f 331/47/107 326/47/107 339/47/107 341/47/107
f 330/49/108 334/49/108 342/49/108 340/49/108
f 326/57/109 330/49/109 340/49/109 339/57/109
