# Blender 4.5.4 LTS
# www.blender.org
mtllib Bench.mtl
o Welder
v -14.990732 1.983871 -8.319073
v -13.825577 1.986141 -8.525802
v -14.957251 1.984318 -8.096820
v -13.731560 1.986694 -8.321349
v -14.990150 1.724675 -8.318640
v -13.824995 1.726945 -8.525368
v -14.956669 1.725122 -8.096387
v -13.730978 1.727498 -8.320915
v -16.073462 1.894447 -6.599549
v -16.083736 1.854692 -6.601912
v -16.094362 1.854374 -6.777957
v -16.096540 1.854480 -6.711716
v -16.077555 1.919408 -6.774091
v -16.081413 1.913011 -6.708237
v -16.031342 1.967106 -6.763313
v -16.039822 1.955939 -6.698536
v -15.968106 1.984687 -6.748510
v -15.982909 1.971761 -6.685214
v -15.904793 1.967440 -6.733649
v -15.925927 1.956239 -6.671838
v -15.858365 1.919986 -6.722711
v -15.884143 1.913531 -6.661994
v -15.841265 1.855041 -6.718628
v -15.868752 1.855081 -6.658320
v -15.858073 1.790007 -6.722494
v -15.883881 1.796550 -6.661799
v -15.904287 1.742309 -6.733272
v -15.925472 1.753622 -6.671499
v -15.967523 1.724728 -6.748075
v -15.982384 1.737799 -6.684822
v -16.030836 1.741976 -6.762936
v -16.039366 1.753321 -6.698197
v -16.077263 1.789429 -6.773874
v -16.081150 1.796029 -6.708041
v -16.045212 1.923605 -6.592961
v -16.006557 1.934352 -6.583911
v -15.967854 1.923809 -6.574827
v -15.939473 1.894801 -6.568141
v -15.929020 1.855100 -6.565645
v -15.939295 1.815345 -6.568008
v -15.967545 1.786188 -6.574596
v -16.006201 1.775441 -6.583646
v -16.044903 1.785984 -6.592731
v -16.073284 1.814992 -6.599416
v -15.962374 1.854681 -6.771499
v -15.984603 1.853837 -7.246189
v -15.967794 1.918871 -7.242323
v -15.921581 1.966569 -7.231545
v -15.858345 1.984149 -7.216742
v -15.795032 1.966902 -7.201880
v -15.748605 1.919449 -7.190943
v -15.731504 1.854504 -7.186860
v -15.748313 1.789470 -7.190725
v -15.794527 1.741772 -7.201504
v -15.857761 1.724191 -7.216307
v -15.921076 1.741438 -7.231168
v -15.967503 1.788892 -7.242105
v -15.919150 1.853897 -7.297597
v -15.909065 1.892918 -7.295278
v -15.881337 1.921537 -7.288811
v -15.843396 1.932085 -7.279929
v -15.805408 1.921737 -7.271012
v -15.777552 1.893265 -7.264450
v -15.767292 1.854298 -7.262000
v -15.777377 1.815277 -7.264319
v -15.805105 1.786659 -7.270786
v -15.843046 1.776110 -7.279668
v -15.881034 1.786458 -7.288585
v -15.908891 1.814931 -7.295147
v -15.789890 1.853299 -7.828589
v -15.781225 1.892322 -7.822948
v -15.757378 1.920947 -7.807405
v -15.724736 1.931504 -7.786126
v -15.692049 1.921165 -7.764811
v -15.668073 1.892699 -7.749173
v -15.659233 1.853735 -7.743401
v -15.667898 1.814712 -7.749043
v -15.691746 1.786087 -7.764585
v -15.724386 1.775530 -7.785865
v -15.757074 1.785869 -7.807179
v -15.781050 1.814335 -7.822817
v -15.441206 1.853635 -8.095305
v -15.436678 1.892655 -8.085997
v -15.424133 1.921272 -8.060435
v -15.406932 1.931817 -8.025469
v -15.389685 1.921466 -7.990469
v -15.377011 1.892992 -7.964811
v -15.372309 1.854024 -7.955372
v -15.376837 1.815004 -7.964681
v -15.389381 1.786388 -7.990242
v -15.406582 1.775842 -8.025208
v -15.423830 1.786193 -8.060209
v -15.436503 1.814668 -8.085867
v -15.026262 1.854352 -8.224024
v -15.004572 1.945360 -8.146593
v -14.982677 1.945539 -8.069011
v -14.982473 1.854710 -8.068858
v -14.982269 1.763880 -8.068707
v -15.004164 1.763701 -8.146290
v -14.878013 1.971707 -7.995065
v -13.774890 1.973845 -8.197142
v -14.877489 1.738430 -7.994675
v -13.774366 1.740568 -8.196751
v -14.689579 1.971634 -8.389378
v -14.393332 1.972211 -8.442359
v -14.094036 1.972759 -8.515917
v -14.045712 1.739644 -8.286862
v -14.345007 1.739095 -8.213305
v -14.641254 1.738519 -8.160324
v -14.641779 1.972124 -8.160715
v -14.345531 1.972700 -8.213696
v -14.046236 1.973249 -8.287253
v -14.689054 1.738029 -8.388987
v -14.392808 1.738605 -8.441968
v -14.093512 1.739154 -8.515526
v -14.057199 1.751477 -8.180016
v -14.328878 1.750982 -8.111517
v -14.597508 1.750459 -8.063595
v -14.597980 1.960704 -8.063947
v -14.329350 1.961227 -8.111869
v -14.057672 1.961722 -8.180367
v -14.698518 1.725623 -8.143676
v -14.645153 1.738881 -8.037235
v -14.752136 1.984275 -8.397822
v -14.699100 1.984819 -8.144110
v -14.751554 1.725079 -8.397388
v -14.645677 1.972157 -8.037625
v -14.634954 1.984502 -8.419289
v -14.581336 1.725850 -8.165142
v -14.581918 1.985046 -8.165576
v -14.634373 1.725306 -8.418855
v -14.539689 1.739085 -8.056555
v -14.540213 1.972361 -8.056945
v -14.449794 1.984861 -8.453207
v -14.396757 1.985405 -8.199494
v -14.449211 1.725665 -8.452773
v -14.373568 1.972685 -8.087472
v -14.396174 1.726209 -8.199060
v -14.373044 1.739408 -8.087082
v -14.330980 1.985091 -8.474972
v -14.277362 1.726439 -8.220826
v -14.277944 1.985635 -8.221260
v -14.330399 1.725895 -8.474539
v -14.266112 1.739615 -8.106670
v -14.266636 1.972892 -8.107060
v -14.145157 1.985452 -8.509012
v -14.092119 1.985995 -8.255300
v -14.144574 1.726256 -8.508578
v -14.099395 1.973216 -8.137697
v -14.091537 1.726799 -8.254867
v -14.098871 1.739939 -8.137306
v -14.032952 1.985669 -8.529567
v -13.979916 1.986213 -8.275854
v -14.032371 1.726473 -8.529133
v -13.998411 1.973412 -8.156196
v -13.979334 1.727017 -8.275420
v -13.997887 1.740135 -8.155806
v -13.765368 1.727174 -8.468657
v -14.991224 1.984041 -8.217207
v -14.990643 1.724844 -8.216773
v -13.765950 1.986370 -8.469090
v -14.073196 1.972973 -8.416227
v -14.372493 1.972424 -8.342669
v -14.668739 1.971848 -8.289688
v -14.072672 1.739368 -8.415836
v -14.371968 1.738819 -8.342278
v -14.668215 1.738243 -8.289297
v -14.729014 1.984512 -8.287212
v -14.728433 1.725316 -8.286778
v -14.611250 1.725543 -8.308245
v -14.611833 1.984739 -8.308679
v -14.426671 1.985098 -8.342597
v -14.426089 1.725902 -8.342163
v -14.307276 1.726132 -8.363929
v -14.307858 1.985328 -8.364362
v -14.122034 1.985689 -8.398402
v -14.121452 1.726493 -8.397968
v -14.009249 1.726710 -8.418523
v -14.009830 1.985906 -8.418957
v -13.825444 1.927014 -8.525702
v -13.825128 1.786072 -8.525467
v -13.731111 1.786625 -8.321014
v -13.731426 1.927567 -8.321251
v -14.990283 1.783803 -8.318738
v -14.990600 1.924744 -8.318974
v -14.877892 1.918492 -7.994976
v -14.877608 1.791645 -7.994764
v -13.774486 1.793783 -8.196840
v -13.774771 1.920630 -8.197052
v -14.057564 1.913761 -8.180287
v -14.057307 1.799438 -8.180096
v -14.329243 1.913266 -8.111789
v -14.328986 1.798943 -8.111597
v -14.597873 1.912743 -8.063867
v -14.597616 1.798420 -8.063675
v -14.093632 1.792444 -8.515615
v -14.093916 1.919470 -8.515827
v -14.392927 1.791895 -8.442057
v -14.393212 1.918921 -8.442269
v -14.689175 1.791318 -8.389076
v -14.689459 1.918344 -8.389288
v -14.645557 1.918942 -8.037537
v -14.645272 1.792095 -8.037324
v -14.751687 1.784206 -8.397488
v -14.752004 1.925148 -8.397723
v -14.634505 1.784433 -8.418954
v -14.634822 1.925375 -8.419189
v -14.540093 1.919147 -8.056856
v -14.539808 1.792300 -8.056643
v -14.373448 1.919470 -8.087383
v -14.373163 1.792623 -8.087171
v -14.449345 1.784792 -8.452872
v -14.449660 1.925734 -8.453108
v -14.330531 1.785023 -8.474637
v -14.330848 1.925964 -8.474873
v -14.266517 1.919677 -8.106972
v -14.266232 1.792830 -8.106759
v -14.099276 1.920001 -8.137608
v -14.098990 1.793154 -8.137396
v -14.144708 1.785383 -8.508677
v -14.145023 1.926324 -8.508913
v -14.032503 1.785600 -8.529232
v -14.032820 1.926542 -8.529468
v -13.998291 1.920197 -8.156107
v -13.998007 1.793350 -8.155894
v -13.765818 1.927242 -8.468991
v -13.765501 1.786301 -8.468756
v -15.026058 1.763522 -8.223872
v -15.026466 1.945181 -8.224176
vn -0.7399 -0.6389 0.2103
vn 0.9441 0.0027 0.3296
vn 0.0022 -1.0000 0.0017
vn 0.9740 0.0018 -0.2267
vn -0.0022 1.0000 -0.0017
vn -0.3134 -0.0023 -0.9496
vn -0.3205 0.8972 0.3037
vn 0.5735 0.6698 0.4717
vn -0.9672 0.2519 -0.0322
vn 0.5567 -0.6549 0.5111
vn 0.8134 -0.2417 0.5290
vn -0.7208 0.6927 0.0251
vn -0.7226 -0.6582 0.2112
vn 0.1649 -0.9111 0.3778
vn -0.2928 0.9479 0.1251
vn 0.1517 -0.8964 0.4165
vn -0.9637 0.2424 0.1119
vn 0.2020 0.9493 0.2411
vn 0.5538 0.6591 0.5089
vn -0.7237 -0.6690 0.1692
vn 0.6311 0.6963 0.3420
vn 0.7899 -0.2378 0.5653
vn -0.9626 -0.2464 0.1127
vn 0.8795 0.2568 0.4007
vn 0.1477 0.8985 0.4134
vn -0.7267 0.6664 0.1670
vn 0.8806 -0.2515 0.4015
vn -0.7255 0.6557 0.2090
vn 0.1608 0.9131 0.3747
vn 0.6342 -0.6923 0.3443
vn 0.7888 0.2432 0.5645
vn 0.8124 0.2471 0.5282
vn 0.2063 -0.9475 0.2443
vn 0.5765 -0.6656 0.4740
vn -0.2886 -0.9488 0.1283
vn -0.3110 -0.9124 0.2662
vn -0.9576 -0.2424 0.1557
vn -0.7177 -0.6958 0.0274
vn -0.9587 0.2386 0.1548
vn -0.3151 0.9118 0.2632
vn -0.9661 -0.2563 -0.0313
vn -0.6869 -0.7089 -0.1602
vn -0.3165 -0.8976 0.3067
vn 0.6830 0.5603 -0.4686
vn 0.2542 -0.9653 0.0607
vn 0.9410 -0.2563 0.2209
vn -0.9398 -0.2613 -0.2200
vn 0.6869 0.7089 0.1602
vn -0.2542 0.9653 -0.0607
vn -0.2498 -0.9666 -0.0575
vn 0.6900 -0.7053 0.1626
vn 0.9398 0.2613 0.2200
vn -0.9410 0.2563 -0.2209
vn 0.2498 0.9666 0.0575
vn -0.6900 0.7053 -0.1626
vn 0.7018 -0.6940 0.1606
vn -0.6041 -0.2074 -0.7694
vn -0.4065 0.5574 -0.7239
vn 0.3407 -0.7645 -0.5473
vn 0.8832 0.2061 -0.4212
vn -0.0616 0.7631 -0.6433
vn -0.0581 -0.7655 -0.6408
vn 0.8842 -0.2035 -0.4205
vn 0.3372 0.7642 -0.5499
vn -0.4039 -0.5616 -0.7221
vn -0.6051 0.2022 -0.7701
vn 0.6856 -0.5588 -0.4667
vn -0.5885 0.2470 -0.7698
vn 0.6987 0.6977 0.1583
vn -0.9398 -0.2544 -0.2280
vn -0.6990 0.6948 -0.1690
vn 0.2616 -0.9632 0.0618
vn 0.9437 0.2537 0.2122
vn -0.2611 0.9632 -0.0629
vn -0.2568 -0.9646 -0.0597
vn 0.9449 -0.2487 0.2130
vn 0.2573 0.9646 0.0586
vn -0.6959 -0.6985 -0.1667
vn -0.9410 0.2494 -0.2288
vn -0.3359 -0.2337 -0.9125
vn 0.4318 -0.6909 0.5798
vn 0.4287 0.6948 0.5775
vn -0.5874 -0.2522 -0.7690
vn -0.4382 0.6912 -0.5746
vn 0.1633 -0.9625 0.2165
vn 0.5754 0.2519 0.7781
vn -0.1641 0.9626 -0.2157
vn -0.1598 -0.9640 -0.2125
vn 0.5765 -0.2467 0.7789
vn 0.1589 0.9640 0.2132
vn -0.4351 -0.6951 -0.5723
vn -0.2870 0.2537 -0.9237
vn 0.2211 -0.2247 0.9490
vn 0.2201 0.2289 0.9483
vn -0.2858 -0.2580 -0.9229
vn -0.3370 0.2291 -0.9132
vn -0.0177 -0.9947 0.1009
vn 0.2697 0.2573 0.9279
vn -0.0715 0.9950 -0.0700
vn -0.0670 -0.9955 -0.0666
vn 0.2708 -0.2530 0.9288
vn -0.0222 0.9950 0.0976
vn 0.1802 0.0020 0.9836
vn -0.5936 -0.3790 0.7099
vn 0.0181 0.9939 0.1091
vn 0.0225 -0.9934 0.1124
vn 0.2311 -0.9729 0.0102
vn 0.2719 -0.9603 0.0628
vn 0.3701 -0.9194 0.1334
vn -0.2129 0.9741 0.0765
vn -0.1812 0.9745 0.1323
vn -0.2040 0.9589 0.1974
vn -0.3778 0.0007 0.9259
vn -0.0767 0.0015 0.9971
vn -0.1206 0.0014 0.9927
vn -0.2177 -0.0021 -0.9760
vn -0.4631 -0.0025 -0.8863
vn -0.4798 -0.0025 -0.8774
vn -0.1982 0.9794 0.0393
vn -0.1839 0.9823 0.0363
vn -0.2076 0.9773 0.0413
vn -0.1938 -0.9801 0.0426
vn -0.1795 -0.9830 0.0396
vn -0.2032 -0.9781 0.0446
vn 0.2268 0.9739 0.0069
vn 0.4836 0.0025 0.8753
vn 0.1335 -0.0014 -0.9910
vn 0.2037 0.9780 -0.0447
vn 0.2080 -0.9772 -0.0414
vn -0.1802 -0.0021 -0.9836
vn 0.1802 0.0021 0.9836
vn -0.1996 -0.9591 0.2006
vn 0.2675 0.9617 0.0595
vn 0.1884 -0.0012 -0.9821
vn 0.2274 0.9725 -0.0496
vn 0.2318 -0.9717 -0.0464
vn -0.1768 -0.9749 0.1356
vn 0.3659 0.9215 0.1303
vn 0.7154 0.0028 0.6987
vn -0.1343 -0.0020 -0.9909
vn 0.2342 0.9709 -0.0510
vn 0.2385 -0.9700 -0.0478
vn 0.0182 -0.0016 -0.9998
vn -0.2085 -0.9748 0.0797
vn 0.6892 0.0003 -0.7246
vn -0.9151 -0.3476 -0.2042
vn -0.9167 0.3428 -0.2054
vn -0.9355 -0.0027 -0.3534
vn 0.4836 0.0026 0.8753
vn -0.5953 0.3787 0.7086
vn -0.5770 0.0001 0.8167
vn -0.7428 0.6363 0.2082
vn 0.9624 0.0017 -0.2716
vt 0.791667 0.608992
vt 0.875000 0.608992
vt 0.875000 0.750000
vt 0.791667 0.750000
vt 0.791667 0.679496
vt 0.291667 0.750000
vt 0.375000 0.750000
vt 0.572346 0.141009
vt 0.625000 0.141009
vt 0.625000 0.250000
vt 0.572346 0.250000
vt 0.291667 0.608991
vt 0.375000 0.608991
vt 0.572346 0.608991
vt 0.625000 0.608992
vt 0.625000 0.750000
vt 0.572346 0.750000
vt 0.572346 0.416667
vt 0.625000 0.416667
vt 0.625000 0.500000
vt 0.572346 0.500000
vt 0.250000 1.000000
vt 0.333333 1.000000
vt 0.583333 1.000000
vt 0.666667 1.000000
vt 1.000000 0.500000
vt 1.000000 1.000000
vt 0.916667 1.000000
vt 0.916667 0.500000
vt 0.833333 1.000000
vt 0.416667 1.000000
vt 0.500000 1.000000
vt 0.833333 0.500000
vt 0.750000 1.000000
vt 0.750000 0.500000
vt 0.666667 0.500000
vt 0.083333 1.000000
vt 0.166667 1.000000
vt 0.583333 0.500000
vt 0.000000 1.000000
vt 0.500000 0.500000
vt 0.416667 0.500000
vt 0.333333 0.500000
vt 0.250000 0.500000
vt 0.166667 0.500000
vt 0.083333 0.500000
vt 0.000000 0.500000
vt 0.572346 0.916667
vt 0.625000 0.916667
vt 0.625000 1.000000
vt 0.572346 1.000000
vt 0.425656 0.000000
vt 0.375000 0.000000
vt 0.572346 0.000000
vt 0.562500 0.000000
vt 0.510678 0.000000
vt 0.500000 0.000000
vt 0.510678 0.000000
vt 0.448542 0.000000
vt 0.437500 0.000000
vt 0.425656 0.750000
vt 0.437500 0.750000
vt 0.486444 0.750000
vt 0.500000 0.750000
vt 0.548445 0.750000
vt 0.562500 0.750000
vt 0.548445 0.750000
vt 0.425656 0.916667
vt 0.437500 0.916667
vt 0.437500 1.000000
vt 0.425656 1.000000
vt 0.486444 0.916667
vt 0.500000 0.916667
vt 0.500000 1.000000
vt 0.486444 1.000000
vt 0.548445 0.916667
vt 0.562500 0.916667
vt 0.562500 1.000000
vt 0.548445 1.000000
vt 0.425656 0.416667
vt 0.437500 0.416667
vt 0.437500 0.500000
vt 0.425656 0.500000
vt 0.486444 0.416667
vt 0.500000 0.416667
vt 0.500000 0.500000
vt 0.486444 0.500000
vt 0.548445 0.416667
vt 0.562500 0.416667
vt 0.562500 0.500000
vt 0.548445 0.500000
vt 0.425656 0.608992
vt 0.437500 0.608991
vt 0.486444 0.608992
vt 0.500000 0.608992
vt 0.548445 0.608991
vt 0.562500 0.608991
vt 0.425656 0.141009
vt 0.437500 0.141009
vt 0.437500 0.250000
vt 0.425656 0.250000
vt 0.486444 0.141009
vt 0.500000 0.141009
vt 0.500000 0.250000
vt 0.486444 0.250000
vt 0.548445 0.141008
vt 0.562500 0.141009
vt 0.562500 0.250000
vt 0.548445 0.250000
vt 0.625000 0.000000
vt 0.510678 0.141008
vt 0.510678 0.250000
vt 0.510678 0.608992
vt 0.510678 0.750000
vt 0.510678 0.416667
vt 0.510678 0.500000
vt 0.510678 0.916667
vt 0.510678 1.000000
vt 0.510678 0.750000
vt 0.548445 0.000000
vt 0.548445 0.000000
vt 0.448542 0.141009
vt 0.448542 0.250000
vt 0.448542 0.608991
vt 0.448542 0.750000
vt 0.448542 0.416667
vt 0.448542 0.500000
vt 0.448542 0.916667
vt 0.448542 1.000000
vt 0.448542 0.750000
vt 0.486444 0.000000
vt 0.486444 0.000000
vt 0.375000 0.141009
vt 0.375000 0.250000
vt 0.375000 0.416667
vt 0.375000 0.500000
vt 0.375000 0.916667
vt 0.375000 1.000000
vt 0.291667 0.500000
vt 0.791667 0.500000
vt 0.875000 0.500000
vt 0.708333 0.500000
vt 0.708333 0.608992
vt 0.750000 0.608992
vt 0.125000 0.500000
vt 0.208333 0.500000
vt 0.208333 0.608991
vt 0.125000 0.608991
vt 0.425656 0.833333
vt 0.375000 0.833333
vt 0.425656 0.333333
vt 0.375000 0.333333
vt 0.448542 0.333333
vt 0.437500 0.333333
vt 0.448542 0.833333
vt 0.437500 0.833333
vt 0.486444 0.833333
vt 0.486444 0.333333
vt 0.510678 0.333333
vt 0.500000 0.333333
vt 0.510678 0.833333
vt 0.500000 0.833333
vt 0.548445 0.833333
vt 0.548445 0.333333
vt 0.572346 0.333333
vt 0.562500 0.333333
vt 0.572346 0.833333
vt 0.562500 0.833333
vt 0.708333 0.750000
vt 0.750000 0.750000
vt 0.625000 0.833333
vt 0.625000 0.333333
vt 0.208333 0.750000
vt 0.125000 0.750000
vt 0.708333 0.679496
vt 0.870000 0.457846
vt 0.957846 0.370000
vt 0.990000 0.250000
vt 0.957846 0.130000
vt 0.630000 0.042154
vt 0.542154 0.130000
vt 0.510000 0.250000
vt 0.542154 0.370000
s 0
usemtl RedHandle
f 228/1/1 160/2/1 7/3/1 98/4/1 99/5/1
f 183/6/2 4/7/2 101/7/2 189/6/2
f 169/8/3 160/9/3 5/10/3 126/11/3
f 226/12/4 161/13/4 4/7/4 183/6/4
f 168/14/5 159/15/5 3/16/5 125/17/5
f 205/18/6 185/19/6 1/20/6 124/21/6
f 203/48/103 187/49/103 102/50/103 123/51/103
f 98/4/104 7/3/104 102/3/104 187/4/104
f 125/17/105 3/16/105 100/16/105 127/17/105
f 156/52/106 8/53/106 103/53/106 157/52/106
f 122/54/107 109/55/107 118/55/107 123/54/107
f 138/56/108 108/57/108 117/57/108 139/58/108
f 150/59/109 107/60/109 116/60/109 151/59/109
f 153/61/110 112/62/110 121/62/110 155/61/110
f 142/63/111 111/64/111 120/64/111 145/63/111
f 130/65/112 110/66/112 119/66/112 133/67/112
f 225/68/113 191/69/113 116/70/113 157/71/113
f 217/72/114 193/73/114 117/74/114 144/75/114
f 209/76/115 195/77/115 118/78/115 132/79/115
f 223/80/116 197/81/116 106/82/116 152/83/116
f 215/84/117 199/85/117 105/86/117 140/87/117
f 207/88/118 201/89/118 104/90/118 128/91/118
f 179/92/119 162/93/119 112/62/119 153/61/119
f 175/94/120 163/95/120 111/64/120 142/63/120
f 171/96/121 164/97/121 110/66/121 130/65/121
f 178/98/122 165/99/122 115/100/122 154/101/122
f 174/102/123 166/103/123 114/104/123 143/105/123
f 170/106/124 167/107/124 113/108/124 131/109/124
f 7/110/106 122/54/106 123/54/106 102/110/106
f 110/66/125 125/17/125 127/17/125 119/66/125
f 195/77/126 203/48/126 123/51/126 118/78/126
f 201/89/127 205/18/127 124/21/127 104/90/127
f 164/97/128 168/14/128 125/17/128 110/66/128
f 167/107/129 169/8/129 126/11/129 113/108/129
f 173/111/3 170/106/3 131/109/3 136/112/3
f 172/113/5 171/96/5 130/65/5 135/114/5
f 213/115/130 207/88/130 128/91/130 134/116/130
f 211/117/131 209/76/131 132/79/131 139/118/131
f 135/114/105 130/65/105 133/67/105 137/119/105
f 109/55/132 129/120/132 132/121/132 118/55/132
f 111/64/133 135/114/133 137/119/133 120/64/133
f 193/73/126 211/117/126 139/118/126 117/74/126
f 199/85/134 213/115/134 134/116/134 105/86/134
f 163/95/135 172/113/135 135/114/135 111/64/135
f 166/103/136 173/111/136 136/112/136 114/104/136
f 129/120/106 138/56/106 139/58/106 132/121/106
f 177/122/3 174/102/3 143/105/3 148/123/3
f 176/124/5 175/94/5 142/63/5 147/125/5
f 221/126/130 215/84/130 140/87/130 146/127/130
f 219/128/131 217/72/131 144/75/131 151/129/131
f 147/125/105 142/63/105 145/63/105 149/130/105
f 108/57/137 141/131/137 144/132/137 117/57/137
f 112/62/138 147/125/138 149/130/138 121/62/138
f 191/69/139 219/128/139 151/129/139 116/70/139
f 197/81/140 221/126/140 146/127/140 106/82/140
f 162/93/141 176/124/141 147/125/141 112/62/141
f 165/99/142 177/122/142 148/123/142 115/100/142
f 141/131/106 150/59/106 151/59/106 144/132/106
f 158/133/3 178/98/3 154/101/3 6/134/3
f 161/13/5 179/92/5 153/61/5 4/7/5
f 180/135/143 223/80/143 152/83/143 2/136/143
f 188/137/131 225/68/131 157/71/131 103/138/131
f 4/7/105 153/61/105 155/61/105 101/7/105
f 107/60/144 156/52/144 157/52/144 116/60/144
f 2/136/5 152/83/5 179/92/5 161/13/5
f 8/53/3 156/52/3 178/98/3 158/133/3
f 107/60/142 150/59/142 177/122/142 165/99/142
f 106/82/141 146/127/141 176/124/141 162/93/141
f 146/127/5 140/87/5 175/94/5 176/124/5
f 150/59/3 141/131/3 174/102/3 177/122/3
f 108/57/136 138/56/136 173/111/136 166/103/136
f 105/86/135 134/116/135 172/113/135 163/95/135
f 134/116/5 128/91/5 171/96/5 172/113/5
f 138/56/3 129/120/3 170/106/3 173/111/3
f 109/55/129 122/54/129 169/8/129 167/107/129
f 104/90/128 124/21/128 168/14/128 164/97/128
f 129/120/124 109/55/124 167/107/124 170/106/124
f 141/131/123 108/57/123 166/103/123 174/102/123
f 156/52/122 107/60/122 165/99/122 178/98/122
f 128/91/121 104/90/121 164/97/121 171/96/121
f 140/87/120 105/86/120 163/95/120 175/94/120
f 152/83/119 106/82/119 162/93/119 179/92/119
f 124/21/5 1/20/5 159/15/5 168/14/5
f 180/139/145 2/136/145 161/13/145 226/12/145
f 122/54/3 7/110/3 160/9/3 169/8/3
f 184/140/146 5/141/146 160/2/146 228/1/146
f 1/20/147 185/142/147 229/143/147 159/15/147
f 185/142/148 184/140/148 228/1/148 94/144/148 229/143/148
f 6/145/145 181/146/145 227/147/145 158/148/145
f 181/146/145 180/139/145 226/12/145 227/147/145
f 101/7/131 155/61/131 224/149/131 189/150/131
f 189/150/131 224/149/131 225/68/131 188/137/131
f 6/134/143 154/101/143 222/151/143 181/152/143
f 181/152/143 222/151/143 223/80/143 180/135/143
f 115/100/140 148/123/140 220/153/140 196/154/140
f 196/154/140 220/153/140 221/126/140 197/81/140
f 121/62/139 149/130/139 218/155/139 190/156/139
f 190/156/139 218/155/139 219/128/139 191/69/139
f 149/130/131 145/63/131 216/157/131 218/155/131
f 218/155/131 216/157/131 217/72/131 219/128/131
f 148/123/130 143/105/130 214/158/130 220/153/130
f 220/153/130 214/158/130 215/84/130 221/126/130
f 114/104/134 136/112/134 212/159/134 198/160/134
f 198/160/134 212/159/134 213/115/134 199/85/134
f 120/64/149 137/119/149 210/161/149 192/162/149
f 192/162/149 210/161/149 211/117/149 193/73/149
f 137/119/131 133/67/131 208/163/131 210/161/131
f 210/161/131 208/163/131 209/76/131 211/117/131
f 136/112/130 131/109/130 206/164/130 212/159/130
f 212/159/130 206/164/130 207/88/130 213/115/130
f 113/108/127 126/11/127 204/165/127 200/166/127
f 200/166/127 204/165/127 205/18/127 201/89/127
f 119/66/149 127/17/149 202/167/149 194/168/149
f 194/168/149 202/167/149 203/48/149 195/77/149
f 131/109/118 113/108/118 200/166/118 206/164/118
f 206/164/118 200/166/118 201/89/118 207/88/118
f 143/105/117 114/104/117 198/160/117 214/158/117
f 214/158/117 198/160/117 199/85/117 215/84/117
f 154/101/116 115/100/116 196/154/116 222/151/116
f 222/151/116 196/154/116 197/81/116 223/80/116
f 133/67/115 119/66/115 194/168/115 208/163/115
f 208/163/115 194/168/115 195/77/115 209/76/115
f 145/63/114 120/64/114 192/162/114 216/157/114
f 216/157/114 192/162/114 193/73/114 217/72/114
f 155/61/113 121/62/113 190/156/113 224/149/113
f 224/149/113 190/156/113 191/69/113 225/68/113
f 3/16/150 96/169/150 186/169/150 100/16/150
f 96/169/151 97/170/151 98/4/151 187/4/151 186/169/151
f 127/17/131 100/16/131 186/171/131 202/167/131
f 202/167/131 186/171/131 187/49/131 203/48/131
f 126/11/6 5/10/6 184/172/6 204/165/6
f 204/165/6 184/172/6 185/19/6 205/18/6
f 158/148/4 227/147/4 182/173/4 8/174/4
f 227/147/4 226/12/4 183/6/4 182/173/4
f 8/174/2 182/173/2 188/173/2 103/174/2
f 182/173/2 183/6/2 189/6/2 188/173/2
f 159/15/152 229/143/152 95/175/152 96/169/152 3/16/152
usemtl BrassPipe
f 42/22/7 41/23/7 45/22/7
f 22/24/8 20/25/8 37/25/8 38/24/8
f 11/26/9 12/27/9 14/28/9 13/29/9
f 35/30/10 9/28/10 45/30/10
f 26/31/11 24/32/11 39/32/11 40/31/11
f 13/29/12 14/28/12 16/30/12 15/33/12
f 38/24/13 37/25/13 45/24/13
f 30/22/14 28/23/14 41/23/14 42/22/14
f 15/33/15 16/30/15 18/34/15 17/35/15
f 36/34/16 35/30/16 45/34/16
f 14/28/17 12/27/17 10/27/17 9/28/17
f 17/35/18 18/34/18 20/25/18 19/36/18
f 44/37/19 43/38/19 45/37/19
f 34/37/20 32/38/20 43/38/20 44/37/20
f 19/36/21 20/25/21 22/24/21 21/39/21
f 9/28/22 10/27/22 45/28/22
f 12/40/23 34/37/23 44/37/23 10/40/23
f 21/39/24 22/24/24 24/32/24 23/41/24
f 43/38/25 42/22/25 45/38/25
f 16/30/26 14/28/26 9/28/26 35/30/26
f 23/41/27 24/32/27 26/31/27 25/42/27
f 41/23/28 40/31/28 45/23/28
f 20/25/29 18/34/29 36/34/29 37/25/29
f 25/42/30 26/31/30 28/23/30 27/43/30
f 10/40/31 44/37/31 45/40/31
f 24/32/32 22/24/32 38/24/32 39/32/32
f 27/43/33 28/23/33 30/22/33 29/44/33
f 28/23/34 26/31/34 40/31/34 41/23/34
f 29/44/35 30/22/35 32/38/35 31/45/35
f 32/38/36 30/22/36 42/22/36 43/38/36
f 39/32/37 38/24/37 45/32/37
f 31/45/38 32/38/38 34/37/38 33/46/38
f 40/31/39 39/32/39 45/31/39
f 18/34/40 16/30/40 35/30/40 36/34/40
f 33/46/41 34/37/41 12/40/41 11/47/41
f 31/45/42 33/46/42 57/46/42 56/45/42
f 37/25/43 36/34/43 45/25/43
f 50/36/44 51/39/44 63/39/44 62/36/44
f 27/43/45 29/44/45 55/44/45 54/43/45
f 23/41/46 25/42/46 53/42/46 52/41/46
f 33/46/47 11/47/47 46/47/47 57/46/47
f 19/36/48 21/39/48 51/39/48 50/36/48
f 15/33/49 17/35/49 49/35/49 48/33/49
f 29/44/50 31/45/50 56/45/50 55/44/50
f 25/42/51 27/43/51 54/43/51 53/42/51
f 21/39/52 23/41/52 52/41/52 51/39/52
f 11/26/53 13/29/53 47/29/53 46/26/53
f 17/35/54 19/36/54 50/36/54 49/35/54
f 13/29/55 15/33/55 48/33/55 47/29/55
f 65/42/56 66/43/56 78/43/56 77/42/56
f 57/46/57 46/47/57 58/47/57 69/46/57
f 47/29/58 48/33/58 60/33/58 59/29/58
f 54/43/59 55/44/59 67/44/59 66/43/59
f 51/39/60 52/41/60 64/41/60 63/39/60
f 48/33/61 49/35/61 61/35/61 60/33/61
f 55/44/62 56/45/62 68/45/62 67/44/62
f 52/41/63 53/42/63 65/42/63 64/41/63
f 49/35/64 50/36/64 62/36/64 61/35/64
f 56/45/65 57/46/65 69/46/65 68/45/65
f 46/26/66 47/29/66 59/29/66 58/26/66
f 53/42/67 54/43/67 66/43/67 65/42/67
f 70/26/68 71/29/68 83/29/68 82/26/68
f 62/36/69 63/39/69 75/39/69 74/36/69
f 69/46/70 58/47/70 70/47/70 81/46/70
f 59/29/71 60/33/71 72/33/71 71/29/71
f 66/43/72 67/44/72 79/44/72 78/43/72
f 63/39/73 64/41/73 76/41/73 75/39/73
f 60/33/74 61/35/74 73/35/74 72/33/74
f 67/44/75 68/45/75 80/45/75 79/44/75
f 64/41/76 65/42/76 77/42/76 76/41/76
f 61/35/77 62/36/77 74/36/77 73/35/77
f 68/45/78 69/46/78 81/46/78 80/45/78
f 58/26/79 59/29/79 71/29/79 70/26/79
f 92/45/80 93/46/80 94/46/80 228/45/80
f 77/42/81 78/43/81 90/43/81 89/42/81
f 74/36/82 75/39/82 87/39/82 86/36/82
f 81/46/83 70/47/83 82/47/83 93/46/83
f 71/29/84 72/33/84 84/33/84 83/29/84
f 78/43/85 79/44/85 91/44/85 90/43/85
f 75/39/86 76/41/86 88/41/86 87/39/86
f 72/33/87 73/35/87 85/35/87 84/33/87
f 79/44/88 80/45/88 92/45/88 91/44/88
f 76/41/89 77/42/89 89/42/89 88/41/89
f 73/35/90 74/36/90 86/36/90 85/35/90
f 80/45/91 81/46/91 93/46/91 92/45/91
f 82/26/92 83/29/92 94/26/92
f 89/42/93 90/43/93 98/43/93 97/42/93
f 86/36/94 87/39/94 97/39/94 96/36/94
f 93/46/95 82/47/95 94/46/95
f 83/29/96 84/33/96 229/33/96 94/29/96
f 90/43/97 91/44/97 99/44/97 98/43/97
f 87/39/98 88/41/98 97/39/98
f 84/33/99 85/35/99 95/35/99 229/33/99
f 91/44/100 92/45/100 228/45/100 99/44/100
f 88/41/101 89/42/101 97/41/101
f 85/35/102 86/36/102 96/36/102 95/35/102
f 94/176/153 229/177/153 95/178/153 96/179/153 97/180/153 98/181/153 99/182/153 228/183/153
