# Blender 4.5.4 LTS
# www.blender.org
mtllib bench2.mtl
o Workbench
v -11.862965 1.756946 -12.205967
v -11.862965 1.156946 -12.205967
v -11.862965 1.756946 0.814034
v -11.862965 1.156946 0.814034
v -18.762964 1.756946 -12.205967
v -18.762964 1.156946 -12.205967
v -18.762964 1.756946 0.814034
v -18.762964 1.156946 0.814034
v -12.912964 -4.543054 0.504034
v -12.912964 1.456946 0.504034
v -12.912964 -4.543054 -0.095968
v -12.912964 1.456946 -0.095968
v -12.312964 -4.543054 0.504034
v -12.312964 1.456946 0.504034
v -12.312964 -4.543054 -0.095968
v -12.312964 1.456946 -0.095968
v -18.312965 -4.543054 0.504034
v -18.312965 1.456946 0.504034
v -18.312965 -4.543054 -0.095968
v -18.312965 1.456946 -0.095968
v -17.712965 -4.543054 0.504034
v -17.712965 1.456946 0.504034
v -17.712965 -4.543054 -0.095968
v -17.712965 1.456946 -0.095968
v -12.912964 -4.543054 -11.295968
v -12.912964 1.456946 -11.295968
v -12.912964 -4.543054 -11.895967
v -12.912964 1.456946 -11.895967
v -12.312964 -4.543054 -11.295968
v -12.312964 1.456946 -11.295968
v -12.312964 -4.543054 -11.895967
v -12.312964 1.456946 -11.895967
v -18.312965 -4.543054 -11.295968
v -18.312965 1.456946 -11.295968
v -18.312965 -4.543054 -11.895967
v -18.312965 1.456946 -11.895967
v -17.712965 -4.543054 -11.295968
v -17.712965 1.456946 -11.295968
v -17.712965 -4.543054 -11.895967
v -17.712965 1.456946 -11.895967
v -12.412964 -3.743054 -11.795967
v -18.212963 -3.743054 0.404033
v -18.212963 -3.343054 0.404033
v -17.812965 -3.343054 0.404033
v -12.412964 -3.743054 0.004033
v -12.412964 -3.343054 0.004033
v -12.412964 -3.743054 0.404034
v -12.412964 -3.343054 0.404034
v -18.212965 -3.743054 -11.795967
v -18.212965 -3.343054 -11.795967
v -12.412964 -3.343054 -11.795967
v -18.212965 -3.743054 -11.395969
v -18.212965 -3.343054 -11.395969
v -12.412964 -3.743054 -11.395967
v -12.412964 -3.343054 -11.395967
v -12.812964 -3.343054 0.004033
v -12.812964 -3.743054 0.404034
v -12.812964 -3.343054 0.404034
v -12.812965 -3.743054 0.004033
v -17.812963 -3.743054 0.004033
v -17.812965 -3.743054 0.404033
v -18.212963 -3.743054 0.004032
v -18.212963 -3.343054 0.004032
v -17.812965 -3.343054 0.004032
v -12.812964 -3.743054 -11.795967
v -12.812964 -3.343054 -11.795967
v -12.812964 -3.743054 -11.395967
v -12.812964 -3.343054 -11.395967
v -17.812965 -3.743054 -11.795967
v -17.812965 -3.343054 -11.795967
v -17.812965 -3.743054 -11.395969
v -17.812965 -3.343054 -11.395969
vn -0.0000 1.0000 -0.0000
vn -0.0000 -0.0000 1.0000
vn -1.0000 -0.0000 -0.0000
vn -0.0000 -1.0000 -0.0000
vn 1.0000 -0.0000 -0.0000
vn -0.0000 -0.0000 -1.0000
vt 0.625000 0.500000
vt 0.875000 0.500000
vt 0.875000 0.750000
vt 0.625000 0.750000
vt 0.375000 0.750000
vt 0.625000 1.000000
vt 0.375000 1.000000
vt 0.375000 0.000000
vt 0.625000 0.000000
vt 0.625000 0.250000
vt 0.375000 0.250000
vt 0.125000 0.500000
vt 0.375000 0.500000
vt 0.125000 0.750000
vt 0.125000 0.741807
vt 0.375000 0.741807
vt 0.625000 0.741807
vt 0.875000 0.741807
vt 0.125000 0.732655
vt 0.375000 0.732655
vt 0.625000 0.732655
vt 0.875000 0.732655
vt 0.875000 0.517345
vt 0.625000 0.517345
vt 0.375000 0.517345
vt 0.375000 0.017345
vt 0.625000 0.017345
vt 0.625000 0.232655
vt 0.375000 0.232655
vt 0.625000 0.508193
vt 0.875000 0.508193
vt 0.125000 0.508193
vt 0.375000 0.508193
vt 0.875000 0.732655
vt 0.625000 0.732655
vt 0.125000 0.517345
vt 0.375000 0.732655
vt 0.125000 0.732655
vt 0.625000 0.508193
vt 0.875000 0.508193
vt 0.125000 0.508193
vt 0.625000 0.008193
vt 0.375000 0.008193
vt 0.875000 0.517345
vt 0.375000 0.517345
vt 0.375000 0.017345
vt 0.625000 0.017345
vt 0.375000 0.232655
vt 0.375000 0.008193
vt 0.625000 0.008193
vt 0.625000 0.241807
vt 0.375000 0.241807
vt 0.625000 0.241807
vt 0.375000 0.241807
s 0
usemtl Material.001
f 1/1/1 5/2/1 7/3/1 3/4/1
f 4/5/2 3/4/2 7/6/2 8/7/2
f 8/8/3 7/9/3 5/10/3 6/11/3
f 6/12/4 2/13/4 4/5/4 8/14/4
f 2/13/5 1/1/5 3/4/5 4/5/5
f 6/11/6 5/10/6 1/1/6 2/13/6
f 9/8/3 10/9/3 12/10/3 11/11/3
f 11/11/6 12/10/6 16/1/6 15/13/6
f 15/13/5 16/1/5 14/4/5 13/5/5
f 13/5/2 14/4/2 10/6/2 9/7/2
f 11/12/4 15/13/4 13/5/4 9/14/4
f 16/1/1 12/2/1 10/3/1 14/4/1
f 17/8/3 18/9/3 20/10/3 19/11/3
f 19/11/6 20/10/6 24/1/6 23/13/6
f 23/13/5 24/1/5 22/4/5 21/5/5
f 21/5/2 22/4/2 18/6/2 17/7/2
f 19/12/4 23/13/4 21/5/4 17/14/4
f 24/1/1 20/2/1 18/3/1 22/4/1
f 25/8/3 26/9/3 28/10/3 27/11/3
f 27/11/6 28/10/6 32/1/6 31/13/6
f 31/13/5 32/1/5 30/4/5 29/5/5
f 29/5/2 30/4/2 26/6/2 25/7/2
f 27/12/4 31/13/4 29/5/4 25/14/4
f 32/1/1 28/2/1 26/3/1 30/4/1
f 33/8/3 34/9/3 36/10/3 35/11/3
f 35/11/6 36/10/6 40/1/6 39/13/6
f 39/13/5 40/1/5 38/4/5 37/5/5
f 37/5/2 38/4/2 34/6/2 33/7/2
f 35/12/4 39/13/4 37/5/4 33/14/4
f 40/1/1 36/2/1 34/3/1 38/4/1
f 65/11/6 66/10/6 51/1/6 41/13/6
f 59/15/4 45/16/4 47/5/4 57/14/4
f 61/5/2 44/4/2 43/6/2 42/7/2
f 62/15/4 60/16/4 61/5/4 42/14/4
f 64/17/1 63/18/1 43/3/1 44/4/1
f 45/11/5 46/10/5 48/1/5 47/13/5
f 41/11/5 51/10/5 55/1/5 54/13/5
f 52/5/3 53/4/3 50/6/3 49/7/3
f 69/19/4 71/20/4 52/5/4 49/14/4
f 72/21/1 70/22/1 50/3/1 53/4/1
f 48/1/1 46/2/1 56/23/1 58/24/1
f 47/13/2 48/1/2 58/24/2 57/25/2
f 60/26/6 64/27/6 56/28/6 59/29/6
f 55/30/1 68/31/1 56/18/1 46/17/1
f 67/32/4 54/33/4 45/16/4 59/15/4
f 54/33/5 55/30/5 46/17/5 45/16/5
f 58/24/1 56/23/1 64/34/1 44/35/1
f 59/36/4 57/25/4 61/37/4 60/38/4
f 57/25/2 58/24/2 44/35/2 61/37/2
f 72/39/1 53/40/1 63/18/1 64/17/1
f 52/41/4 71/33/4 60/16/4 62/15/4
f 71/33/5 72/39/5 64/17/5 60/16/5
f 42/8/3 43/9/3 63/42/3 62/43/3
f 55/1/1 51/2/1 66/44/1 68/24/1
f 41/12/4 54/13/4 67/45/4 65/36/4
f 69/46/6 70/47/6 66/28/6 65/48/6
f 59/49/3 56/50/3 68/51/3 67/52/3
f 49/8/6 50/9/6 70/47/6 69/46/6
f 68/24/1 66/44/1 70/22/1 72/21/1
f 65/36/4 67/45/4 71/20/4 69/19/4
f 67/45/2 68/24/2 72/21/2 71/20/2
f 62/43/3 63/42/3 53/53/3 52/54/3
