# Blender 4.5.4 LTS
# www.blender.org
mtllib Carpet.mtl
o Cube.002
v -6.587392 -4.897181 4.262788
v -6.587392 -4.697181 4.262788
v 1.876340 -4.897181 -34.831524
v 1.876340 -4.697181 -34.831524
v 12.959764 -4.897181 8.494653
v 12.959764 -4.697181 8.494653
v 21.423496 -4.897181 -30.599659
v 21.423496 -4.697181 -30.599659
vn -0.9774 -0.0000 -0.2116
vn 0.2116 -0.0000 -0.9774
vn 0.9774 -0.0000 0.2116
vn -0.2116 -0.0000 0.9774
vn -0.0000 -1.0000 -0.0000
vn -0.0000 1.0000 -0.0000
vt 0.375000 0.000000
vt 0.625000 0.000000
vt 0.625000 0.250000
vt 0.375000 0.250000
vt 0.625000 0.500000
vt 0.375000 0.500000
vt 0.625000 0.750000
vt 0.375000 0.750000
vt 0.625000 1.000000
vt 0.375000 1.000000
vt 0.125000 0.500000
vt 0.125000 0.750000
vt 0.875000 0.500000
vt 0.875000 0.750000
s 0
usemtl Carpet
f 1/1/1 2/2/1 4/3/1 3/4/1
f 3/4/2 4/3/2 8/5/2 7/6/2
f 7/6/3 8/5/3 6/7/3 5/8/3
f 5/8/4 6/7/4 2/9/4 1/10/4
f 3/11/5 7/6/5 5/8/5 1/12/5
f 8/5/6 4/13/6 2/14/6 6/7/6
