# Blender 4.5.4 LTS
# www.blender.org
mtllib Gas Tank.mtl
o Gas_Tank
v -1.724015 -3.543054 14.009737
v -1.724015 6.456946 14.009737
v -0.870839 -3.543054 13.208325
v -0.870839 6.456946 13.208325
v 0.224078 -3.543054 12.794414
v 0.224078 6.456946 12.794414
v 1.394047 -3.543054 12.831017
v 1.394047 6.456946 12.831017
v 2.460952 -3.543054 13.312559
v 2.460952 6.456946 13.312559
v 3.262363 -3.543054 14.165735
v 3.262363 6.456946 14.165735
v 3.676275 -3.543054 15.260653
v 3.676275 6.456946 15.260653
v 3.639673 -3.543054 16.430622
v 3.639673 6.456946 16.430622
v 3.158129 -3.543054 17.497526
v 3.158129 6.456946 17.497526
v 2.304954 -3.543054 18.298937
v 2.304954 6.456946 18.298937
v 1.210036 -3.543054 18.712849
v 1.210036 6.456946 18.712849
v 0.040067 -3.543054 18.676247
v 0.040067 6.456946 18.676247
v -1.026837 -3.543054 18.194704
v -1.026837 6.456946 18.194704
v -1.828249 -3.543054 17.341528
v -1.828249 6.456946 17.341528
v -2.242161 -3.543054 16.246611
v -2.242161 6.456946 16.246611
v -2.205558 -3.543054 15.076641
v -2.205558 6.456946 15.076641
v -1.104563 -4.155452 14.452272
v -0.467891 -4.155452 13.854229
v 0.349178 -4.155452 13.545352
v 1.222253 -4.155452 13.572666
v 2.018416 -4.155452 13.932012
v 2.616460 -4.155452 14.568684
v 2.925336 -4.155452 15.385752
v 2.898022 -4.155452 16.258827
v 2.538677 -4.155452 17.054991
v 1.902005 -4.155452 17.653034
v 1.084936 -4.155452 17.961910
v 0.211861 -4.155452 17.934597
v -0.584302 -4.155452 17.575251
v -1.182346 -4.155452 16.938580
v -1.491222 -4.155452 16.121511
v -1.463908 -4.155452 15.248436
v -1.440274 -4.840736 14.212441
v -0.686268 -4.840736 13.504183
v 0.281380 -4.840736 13.138382
v 1.315356 -4.840736 13.170731
v 2.258247 -4.840736 13.596301
v 2.966506 -4.840736 14.350306
v 3.332306 -4.840736 15.317955
v 3.299958 -4.840736 16.351931
v 2.874388 -4.840736 17.294823
v 2.120382 -4.840736 18.003080
v 1.152734 -4.840736 18.368881
v 0.118758 -4.840736 18.336533
v -0.824133 -4.840736 17.910961
v -1.532392 -4.840736 17.156956
v -1.898192 -4.840736 16.189308
v -1.865844 -4.840736 15.155333
v -1.129487 -4.564324 14.434466
v -0.484104 -4.564324 13.828240
v 0.344144 -4.564324 13.515138
v 1.229165 -4.564324 13.542826
v 2.036222 -4.564324 13.907087
v 2.642448 -4.564324 14.552470
v 2.955551 -4.564324 15.380718
v 2.927863 -4.564324 16.265739
v 2.563601 -4.564324 17.072796
v 1.918218 -4.564324 17.679024
v 1.089970 -4.564324 17.992126
v 0.204949 -4.564324 17.964437
v -0.602108 -4.564324 17.600176
v -1.208334 -4.564324 16.954792
v -1.521437 -4.564324 16.126545
v -1.493749 -4.564324 15.241524
v -1.299067 7.853671 14.313318
v -0.594415 7.853671 13.651419
v 0.309897 7.853671 13.309562
v 1.276195 7.853671 13.339792
v 2.157370 7.853671 13.737508
v 2.819270 7.853671 14.442160
v 3.161127 7.853671 15.346472
v 3.130897 7.853671 16.312769
v 2.733181 7.853671 17.193945
v 2.028529 7.853671 17.855844
v 1.124217 7.853671 18.197701
v 0.157919 7.853671 18.167471
v -0.723256 7.853671 17.769756
v -1.385156 7.853671 17.065104
v -1.727013 7.853671 16.160791
v -1.696782 7.853671 15.194493
v -1.350907 8.417263 14.276284
v -0.628136 8.417263 13.597365
v 0.299429 8.417263 13.246717
v 1.290573 8.417263 13.277725
v 2.194406 8.417263 13.685667
v 2.873325 8.417263 14.408439
v 3.223972 8.417263 15.336002
v 3.192964 8.417263 16.327147
v 2.785022 8.417263 17.230980
v 2.062251 8.417263 17.909899
v 1.134687 8.417263 18.260546
v 0.143543 8.417263 18.229538
v -0.760290 8.417263 17.821596
v -1.439209 8.417263 17.098825
v -1.789856 8.417263 16.171261
v -1.758849 8.417263 15.180117
v 0.146444 7.220381 15.367455
v 0.262206 7.345096 15.184301
v 0.291190 7.592867 15.200714
v 0.204412 7.715924 15.400280
v 0.088649 7.591209 15.583433
v 0.059665 7.343438 15.567021
v -0.132098 7.305681 15.220416
v 0.011519 7.421865 15.051967
v 0.096211 7.652577 15.097787
v 0.037287 7.767103 15.312057
v -0.106330 7.650918 15.480506
v -0.191022 7.420207 15.434686
v -0.381781 7.469593 15.088989
v -0.213196 7.569386 14.933682
v -0.078567 7.767315 15.005788
v -0.112523 7.865450 15.233201
v -0.281108 7.765657 15.388508
v -0.415737 7.567728 15.316402
v -0.585590 7.700948 14.982133
v -0.396624 7.777606 14.837511
v -0.221233 7.929264 14.930988
v -0.234809 8.004264 15.169086
v -0.423775 7.927605 15.313707
v -0.599166 7.775948 15.220231
v -0.729637 7.983979 14.907127
v -0.526266 8.032334 14.770006
v -0.322066 8.127386 14.878485
v -0.321237 8.174083 15.124084
v -0.524608 8.125728 15.261204
v -0.728808 8.030676 15.152726
v -0.804104 8.299398 14.869084
v -0.593286 8.316211 14.735768
v -0.374193 8.348179 14.851855
v -0.365917 8.363334 15.101257
v -0.576734 8.346520 15.234574
v -0.795828 8.314553 15.118487
v -0.803916 8.625710 14.870598
v -0.593117 8.609892 14.737130
v -0.374062 8.576597 14.852914
v -0.365804 8.559121 15.102165
v -0.576603 8.574939 15.235634
v -0.795659 8.608233 15.119849
v -0.729088 8.940677 14.911563
v -0.525772 8.893362 14.773999
v -0.321681 8.797074 14.881590
v -0.320907 8.748101 15.126745
v -0.524223 8.795416 15.264309
v -0.728313 8.891704 15.156718
v -0.584717 9.222835 14.989189
v -0.395838 9.147305 14.843863
v -0.220622 8.994585 14.935928
v -0.234285 8.917396 15.173321
v -0.423163 8.992927 15.318647
v -0.598379 9.145646 15.226582
v -0.380642 9.452955 15.098186
v -0.212171 9.354412 14.941959
v -0.077769 9.155669 15.012226
v -0.111840 9.055468 15.238719
v -0.280311 9.154011 15.394945
v -0.414712 9.352754 15.324679
v -0.130772 9.615355 15.231126
v 0.012712 9.500572 15.061605
v 0.097139 9.269348 15.105284
v 0.038082 9.152907 15.318482
v -0.105402 9.267690 15.488003
v -0.189829 9.498914 15.444324
v 0.147867 9.698967 15.378948
v 0.263487 9.575823 15.194645
v 0.292187 9.327877 15.208759
v 0.205266 9.203074 15.407176
v 0.089645 9.326219 15.591478
v 0.060946 9.574164 15.577365
v 0.436284 9.698093 15.531580
v 0.523063 9.575037 15.332014
v 0.494079 9.327266 15.315601
v 0.378316 9.202551 15.498755
v 0.291537 9.325607 15.698320
v 0.320521 9.573379 15.714733
v 0.714825 9.612794 15.678618
v 0.773750 9.498267 15.464349
v 0.689058 9.267556 15.418529
v 0.545441 9.151371 15.586978
v 0.486516 9.265898 15.801249
v 0.571208 9.496610 15.847069
v 0.964508 9.448882 15.810045
v 0.998465 9.350746 15.582633
v 0.863836 9.152818 15.510528
v 0.695250 9.053024 15.665834
v 0.661294 9.151159 15.893247
v 0.795923 9.349088 15.965352
v 1.168318 9.217527 15.916903
v 1.181893 9.142528 15.678804
v 1.006502 8.990870 15.585327
v 0.817536 8.914211 15.729948
v 0.803961 8.989211 15.968046
v 0.979351 9.140869 16.061523
v 1.312364 8.934496 15.991908
v 1.311535 8.887799 15.746309
v 1.107335 8.792747 15.637831
v 0.903964 8.744392 15.774952
v 0.904793 8.791089 16.020550
v 1.108994 8.886141 16.129028
v 1.386831 8.619077 16.029951
v 1.378555 8.603922 15.780547
v 1.159462 8.571954 15.664461
v 0.948644 8.555141 15.797777
v 0.956920 8.570296 16.047180
v 1.176014 8.602263 16.163267
v 1.386644 8.292765 16.028437
v 1.378387 8.310241 15.779185
v 1.159331 8.343535 15.663402
v 0.948532 8.359354 15.796869
v 0.956789 8.341877 16.046122
v 1.175845 8.308582 16.161905
v 1.311815 7.977798 15.987472
v 1.311041 8.026772 15.742316
v 1.106951 8.123059 15.634726
v 0.903635 8.170374 15.772290
v 0.904409 8.121401 16.017445
v 1.108499 8.025113 16.125036
v 1.167444 7.695640 15.909845
v 1.181107 7.772829 15.672453
v 1.005891 7.925548 15.580387
v 0.817012 8.001079 15.725715
v 0.803349 7.923890 15.963107
v 0.978565 7.771170 16.055172
v 0.963370 7.465520 15.800849
v 0.997440 7.565721 15.574356
v 0.863039 7.764464 15.504090
v 0.694568 7.863007 15.660316
v 0.660497 7.762806 15.886809
v 0.794899 7.564063 15.957075
v 0.713499 7.303120 15.667910
v 0.772557 7.419561 15.454710
v 0.688130 7.650784 15.411032
v 0.544645 7.765567 15.580553
v 0.485588 7.649126 15.793752
v 0.570015 7.417902 15.837430
v 0.434861 7.219508 15.520086
v 0.521782 7.344310 15.321671
v 0.493082 7.592256 15.307556
v 0.377462 7.715400 15.491859
v 0.290541 7.590598 15.690275
v 0.319240 7.342652 15.704390
vn -0.6847 -0.0000 -0.7289
vn -0.3536 -0.0000 -0.9354
vn 0.0313 -0.0000 -0.9995
vn 0.4114 -0.0000 -0.9115
vn 0.7289 -0.0000 -0.6847
vn 0.9354 -0.0000 -0.3536
vn 0.9995 -0.0000 0.0313
vn 0.9115 -0.0000 0.4114
vn 0.6847 -0.0000 0.7289
vn 0.3536 -0.0000 0.9354
vn -0.0313 -0.0000 0.9995
vn -0.4114 -0.0000 0.9115
vn -0.7289 -0.0000 0.6847
vn -0.9354 -0.0000 0.3536
vn 0.0294 0.3443 -0.9384
vn -0.9995 -0.0000 -0.0313
vn -0.9115 -0.0000 -0.4114
vn 0.5932 -0.7732 -0.2242
vn 0.6276 0.5085 -0.5895
vn -0.0198 -0.7732 0.6339
vn -0.5780 -0.7732 -0.2609
vn 0.2609 -0.7732 -0.5780
vn 0.4342 -0.7732 0.4622
vn -0.5932 -0.7732 0.2242
vn -0.2242 -0.7732 -0.5932
vn 0.6339 -0.7732 0.0198
vn -0.2609 -0.7732 0.5780
vn 0.4622 -0.7732 -0.4342
vn 0.2242 -0.7732 0.5932
vn -0.6339 -0.7732 -0.0198
vn 0.0198 -0.7732 -0.6339
vn 0.5780 -0.7732 0.2609
vn -0.4342 -0.7732 -0.4622
vn -0.4622 -0.7732 0.4342
vn -0.2099 -0.8047 -0.5554
vn -0.6276 0.5085 0.5895
vn 0.8055 0.5085 -0.3045
vn -0.8055 0.5085 0.3045
vn 0.8607 0.5085 0.0269
vn -0.8607 0.5085 -0.0269
vn 0.7848 0.5085 0.3542
vn -0.5895 0.5085 -0.6276
vn -0.7848 0.5085 -0.3542
vn 0.5895 0.5085 0.6276
vn -0.3045 0.5085 -0.8055
vn 0.3045 0.5085 0.8055
vn 0.0269 0.5085 -0.8607
vn -0.0269 0.5085 0.8607
vn 0.3542 0.5085 -0.7848
vn -0.3542 0.5085 0.7848
vn -0.0000 -1.0000 -0.0000
vn -0.0186 -0.8047 0.5934
vn 0.0186 -0.8047 -0.5934
vn -0.2443 -0.8047 0.5412
vn 0.2443 -0.8047 -0.5412
vn -0.4328 -0.8047 0.4065
vn 0.4328 -0.8047 -0.4065
vn -0.5554 -0.8047 0.2099
vn 0.5554 -0.8047 -0.2099
vn -0.5934 -0.8047 -0.0186
vn 0.5934 -0.8047 0.0186
vn -0.5412 -0.8047 -0.2443
vn 0.4065 -0.8047 0.4328
vn 0.5412 -0.8047 0.2443
vn -0.4065 -0.8047 -0.4328
vn 0.2099 -0.8047 0.5554
vn -0.7244 -0.1102 0.6805
vn 0.8557 0.3443 0.3862
vn -0.6428 0.3443 -0.6843
vn -0.6843 0.3443 0.6428
vn 0.8782 0.3443 -0.3320
vn -0.0294 0.3443 0.9384
vn -0.8557 0.3443 -0.3862
vn 0.3862 0.3443 -0.8557
vn 0.6428 0.3443 0.6843
vn -0.8782 0.3443 0.3320
vn -0.3320 0.3443 -0.8782
vn 0.9384 0.3443 0.0294
vn -0.3862 0.3443 0.8557
vn 0.6843 0.3443 -0.6428
vn 0.3320 0.3443 0.8782
vn -0.9384 0.3443 -0.0294
vn -0.0000 1.0000 -0.0000
vn 0.9297 -0.1102 -0.3515
vn -0.9297 -0.1102 0.3515
vn 0.9934 -0.1102 0.0311
vn -0.9934 -0.1102 -0.0311
vn 0.9059 -0.1102 0.4089
vn -0.6805 -0.1102 -0.7244
vn -0.9059 -0.1102 -0.4089
vn 0.6805 -0.1102 0.7244
vn -0.3515 -0.1102 -0.9297
vn 0.3515 -0.1102 0.9297
vn 0.0311 -0.1102 -0.9934
vn -0.0311 -0.1102 0.9934
vn 0.4089 -0.1102 -0.9059
vn -0.4089 -0.1102 0.9059
vn 0.7244 -0.1102 -0.6805
vn 0.0334 -0.8358 -0.5480
vn 0.4678 0.0038 -0.8839
vn 0.4314 0.8396 -0.3301
vn -0.0334 0.8358 0.5480
vn -0.4678 -0.0038 0.8839
vn -0.4314 -0.8396 0.3301
vn -0.1516 -0.7485 -0.6455
vn 0.4677 0.0038 -0.8839
vn 0.6163 0.7523 -0.2326
vn 0.1516 0.7485 0.6455
vn -0.4677 -0.0038 0.8839
vn -0.6163 -0.7523 0.2326
vn -0.3104 -0.6101 -0.7290
vn 0.7751 0.6139 -0.1492
vn 0.3104 0.6101 0.7290
vn -0.7751 -0.6139 0.1492
vn -0.4322 -0.4300 -0.7927
vn 0.8969 0.4338 -0.0855
vn 0.4322 0.4300 0.7927
vn -0.8969 -0.4338 0.0855
vn -0.5087 -0.2205 -0.8322
vn 0.9734 0.2243 -0.0459
vn 0.5087 0.2205 0.8322
vn -0.9734 -0.2243 0.0459
vn -0.5347 0.0042 -0.8450
vn 0.9995 -0.0004 -0.0331
vn 0.5347 -0.0042 0.8450
vn -0.9995 0.0004 0.0331
vn -0.5084 0.2288 -0.8302
vn 0.9732 -0.2250 -0.0480
vn 0.5084 -0.2288 0.8302
vn -0.9732 0.2250 0.0480
vn -0.4317 0.4378 -0.7886
vn 0.8964 -0.4340 -0.0895
vn 0.4317 -0.4378 0.7886
vn -0.8964 0.4340 0.0895
vn -0.3097 0.6172 -0.7233
vn 0.7744 -0.6134 -0.1549
vn 0.3097 -0.6172 0.7233
vn -0.7744 0.6134 0.1549
vn -0.1507 0.7547 -0.6386
vn 0.6155 -0.7509 -0.2396
vn 0.1507 -0.7547 0.6386
vn -0.6155 0.7509 0.2396
vn 0.0343 0.8408 -0.5403
vn 0.4304 -0.8370 -0.3379
vn -0.0343 -0.8408 0.5403
vn -0.4304 0.8370 0.3379
vn 0.2329 0.8698 -0.4351
vn 0.2319 -0.8660 -0.4431
vn -0.2329 -0.8698 0.4351
vn -0.2319 0.8660 0.4431
vn 0.4322 0.4300 0.7926
vt 1.000000 0.500000
vt 1.000000 1.000000
vt 0.937500 1.000000
vt 0.937500 0.500000
vt 0.875000 1.000000
vt 0.875000 0.500000
vt 0.812500 1.000000
vt 0.812500 0.500000
vt 0.750000 1.000000
vt 0.750000 0.500000
vt 0.687500 1.000000
vt 0.687500 0.500000
vt 0.625000 1.000000
vt 0.625000 0.500000
vt 0.562500 1.000000
vt 0.562500 0.500000
vt 0.500000 1.000000
vt 0.500000 0.500000
vt 0.437500 1.000000
vt 0.437500 0.500000
vt 0.375000 1.000000
vt 0.375000 0.500000
vt 0.312500 1.000000
vt 0.312500 0.500000
vt 0.250000 1.000000
vt 0.250000 0.500000
vt 0.187500 1.000000
vt 0.187500 0.500000
vt 0.125000 1.000000
vt 0.125000 0.500000
vt 0.062500 1.000000
vt 0.062500 0.500000
vt 0.000000 1.000000
vt 0.000000 0.500000
vt 0.750000 0.490000
vt 0.841844 0.471731
vt 0.919706 0.419706
vt 0.971731 0.341844
vt 0.990000 0.250000
vt 0.971731 0.158156
vt 0.919706 0.080294
vt 0.841844 0.028269
vt 0.750000 0.010000
vt 0.658156 0.028269
vt 0.580294 0.080294
vt 0.528269 0.158156
vt 0.510000 0.250000
vt 0.528269 0.341844
vt 0.580294 0.419706
vt 0.658156 0.471731
vt 0.341844 0.471731
vt 0.250000 0.490000
vt 0.158156 0.471731
vt 0.080294 0.419706
vt 0.028269 0.341844
vt 0.010000 0.250000
vt 0.028269 0.158156
vt 0.080294 0.080294
vt 0.158156 0.028269
vt 0.250000 0.010000
vt 0.341844 0.028269
vt 0.419706 0.080294
vt 0.471731 0.158156
vt 0.490000 0.250000
vt 0.471731 0.341844
vt 0.419706 0.419706
vt 0.541667 0.500000
vt 0.541667 0.666667
vt 0.500000 0.666667
vt 0.541667 0.833333
vt 0.500000 0.833333
vt 0.541667 1.000000
vt 0.500000 -0.000000
vt 0.541667 -0.000000
vt 0.541667 0.166667
vt 0.500000 0.166667
vt 0.541667 0.333333
vt 0.500000 0.333333
vt 0.583333 0.500000
vt 0.583333 0.666667
vt 0.583333 0.833333
vt 0.583333 1.000000
vt 0.583333 -0.000000
vt 0.583333 0.166667
vt 0.583333 0.333333
vt 0.625000 0.666667
vt 0.625000 0.833333
vt 0.625000 -0.000000
vt 0.625000 0.166667
vt 0.625000 0.333333
vt 0.666667 0.500000
vt 0.666667 0.666667
vt 0.666667 0.833333
vt 0.666667 1.000000
vt 0.666667 -0.000000
vt 0.666667 0.166667
vt 0.666667 0.333333
vt 0.708333 0.500000
vt 0.708333 0.666667
vt 0.708333 0.833333
vt 0.708333 1.000000
vt 0.708333 -0.000000
vt 0.708333 0.166667
vt 0.708333 0.333333
vt 0.750000 0.666667
vt 0.750000 0.833333
vt 0.750000 -0.000000
vt 0.750000 0.166667
vt 0.750000 0.333333
vt 0.791667 0.500000
vt 0.791667 0.666667
vt 0.791667 0.833333
vt 0.791667 1.000000
vt 0.791667 -0.000000
vt 0.791667 0.166667
vt 0.791667 0.333333
vt 0.833333 0.500000
vt 0.833333 0.666667
vt 0.833333 0.833333
vt 0.833333 1.000000
vt 0.833333 -0.000000
vt 0.833333 0.166667
vt 0.833333 0.333333
vt 0.875000 0.666667
vt 0.875000 0.833333
vt 0.875000 -0.000000
vt 0.875000 0.166667
vt 0.875000 0.333333
vt 0.916667 0.500000
vt 0.916667 0.666667
vt 0.916667 0.833333
vt 0.916667 1.000000
vt 0.916667 -0.000000
vt 0.916667 0.166667
vt 0.916667 0.333333
vt 0.958333 0.500000
vt 0.958333 0.666667
vt 0.958333 0.833333
vt 0.958333 1.000000
vt 0.958333 -0.000000
vt 0.958333 0.166667
vt 0.958333 0.333333
vt 1.000000 0.666667
vt 1.000000 0.833333
vt 1.000000 -0.000000
vt 1.000000 0.166667
vt 1.000000 0.333333
vt -0.000000 0.500000
vt 0.041667 0.500000
vt 0.041667 0.666667
vt -0.000000 0.666667
vt 0.041667 0.833333
vt -0.000000 0.833333
vt 0.041667 1.000000
vt -0.000000 1.000000
vt -0.000000 -0.000000
vt 0.041667 -0.000000
vt 0.041667 0.166667
vt -0.000000 0.166667
vt 0.041667 0.333333
vt -0.000000 0.333333
vt 0.083333 0.500000
vt 0.083333 0.666667
vt 0.083333 0.833333
vt 0.083333 1.000000
vt 0.083333 -0.000000
vt 0.083333 0.166667
vt 0.083333 0.333333
vt 0.125000 0.666667
vt 0.125000 0.833333
vt 0.125000 -0.000000
vt 0.125000 0.166667
vt 0.125000 0.333333
vt 0.166667 0.500000
vt 0.166667 0.666667
vt 0.166667 0.833333
vt 0.166667 1.000000
vt 0.166667 -0.000000
vt 0.166667 0.166667
vt 0.166667 0.333333
vt 0.208333 0.500000
vt 0.208333 0.666667
vt 0.208333 0.833333
vt 0.208333 1.000000
vt 0.208333 -0.000000
vt 0.208333 0.166667
vt 0.208333 0.333333
vt 0.250000 0.666667
vt 0.250000 0.833333
vt 0.250000 -0.000000
vt 0.250000 0.166667
vt 0.250000 0.333333
vt 0.291667 0.500000
vt 0.291667 0.666667
vt 0.291667 0.833333
vt 0.291667 1.000000
vt 0.291667 -0.000000
vt 0.291667 0.166667
vt 0.291667 0.333333
vt 0.333333 0.500000
vt 0.333333 0.666667
vt 0.333333 0.833333
vt 0.333333 1.000000
vt 0.333333 -0.000000
vt 0.333333 0.166667
vt 0.333333 0.333333
vt 0.375000 0.666667
vt 0.375000 0.833333
vt 0.375000 -0.000000
vt 0.375000 0.166667
vt 0.375000 0.333333
vt 0.416667 0.500000
vt 0.416667 0.666667
vt 0.416667 0.833333
vt 0.416667 1.000000
vt 0.416667 -0.000000
vt 0.416667 0.166667
vt 0.416667 0.333333
vt 0.458333 0.500000
vt 0.458333 0.666667
vt 0.458333 0.833333
vt 0.458333 1.000000
vt 0.458333 -0.000000
vt 0.458333 0.166667
vt 0.458333 0.333333
s 0
usemtl BrassPipe
f 1/1/1 2/2/1 4/3/1 3/4/1
f 3/4/2 4/3/2 6/5/2 5/6/2
f 5/6/3 6/5/3 8/7/3 7/8/3
f 7/8/4 8/7/4 10/9/4 9/10/4
f 9/10/5 10/9/5 12/11/5 11/12/5
f 11/12/6 12/11/6 14/13/6 13/14/6
f 13/14/7 14/13/7 16/15/7 15/16/7
f 15/16/8 16/15/8 18/17/8 17/18/8
f 17/18/9 18/17/9 20/19/9 19/20/9
f 19/20/10 20/19/10 22/21/10 21/22/10
f 21/22/11 22/21/11 24/23/11 23/24/11
f 23/24/12 24/23/12 26/25/12 25/26/12
f 25/26/13 26/25/13 28/27/13 27/28/13
f 27/28/14 28/27/14 30/29/14 29/30/14
f 8/7/15 6/5/15 83/5/15 84/7/15
f 29/30/16 30/29/16 32/31/16 31/32/16
f 31/32/17 32/31/17 2/33/17 1/34/17
f 11/12/18 13/14/18 39/14/18 38/12/18
f 37/10/19 38/12/19 54/12/19 53/10/19
f 21/22/20 23/24/20 44/24/20 43/22/20
f 31/32/21 1/34/21 33/34/21 48/32/21
f 7/8/22 9/10/22 37/10/22 36/8/22
f 17/18/23 19/20/23 42/20/23 41/18/23
f 27/28/24 29/30/24 47/30/24 46/28/24
f 3/4/25 5/6/25 35/6/25 34/4/25
f 13/14/26 15/16/26 40/16/26 39/14/26
f 23/24/27 25/26/27 45/26/27 44/24/27
f 9/10/28 11/12/28 38/12/28 37/10/28
f 19/20/29 21/22/29 43/22/29 42/20/29
f 29/30/30 31/32/30 48/32/30 47/30/30
f 5/6/31 7/8/31 36/8/31 35/6/31
f 15/16/32 17/18/32 41/18/32 40/16/32
f 1/1/33 3/4/33 34/4/33 33/1/33
f 25/26/34 27/28/34 46/28/34 45/26/34
f 58/20/35 59/22/35 75/22/35 74/20/35
f 45/26/36 46/28/36 62/28/36 61/26/36
f 38/12/37 39/14/37 55/14/37 54/12/37
f 46/28/38 47/30/38 63/30/38 62/28/38
f 39/14/39 40/16/39 56/16/39 55/14/39
f 47/30/40 48/32/40 64/32/40 63/30/40
f 40/16/41 41/18/41 57/18/41 56/16/41
f 33/1/42 34/4/42 50/4/42 49/1/42
f 48/32/43 33/34/43 49/34/43 64/32/43
f 41/18/44 42/20/44 58/20/44 57/18/44
f 34/4/45 35/6/45 51/6/45 50/4/45
f 42/20/46 43/22/46 59/22/46 58/20/46
f 35/6/47 36/8/47 52/8/47 51/6/47
f 43/22/48 44/24/48 60/24/48 59/22/48
f 36/8/49 37/10/49 53/10/49 52/8/49
f 44/24/50 45/26/50 61/26/50 60/24/50
f 65/35/51 66/36/51 67/37/51 68/38/51 69/39/51 70/40/51 71/41/51 72/42/51 73/43/51 74/44/51 75/45/51 76/46/51 77/47/51 78/48/51 79/49/51 80/50/51
f 51/6/52 52/8/52 68/8/52 67/6/52
f 59/22/53 60/24/53 76/24/53 75/22/53
f 52/8/54 53/10/54 69/10/54 68/8/54
f 60/24/55 61/26/55 77/26/55 76/24/55
f 53/10/56 54/12/56 70/12/56 69/10/56
f 61/26/57 62/28/57 78/28/57 77/26/57
f 54/12/58 55/14/58 71/14/58 70/12/58
f 62/28/59 63/30/59 79/30/59 78/28/59
f 55/14/60 56/16/60 72/16/60 71/14/60
f 63/30/61 64/32/61 80/32/61 79/30/61
f 56/16/62 57/18/62 73/18/62 72/16/62
f 49/1/63 50/4/63 66/4/63 65/1/63
f 64/32/64 49/34/64 65/34/64 80/32/64
f 57/18/65 58/20/65 74/20/65 73/18/65
f 50/4/66 51/6/66 67/6/66 66/4/66
f 94/27/67 93/25/67 109/25/67 110/27/67
f 18/17/68 16/15/68 88/15/68 89/17/68
f 4/3/69 2/2/69 81/2/69 82/3/69
f 28/27/70 26/25/70 93/25/70 94/27/70
f 14/13/71 12/11/71 86/11/71 87/13/71
f 24/23/72 22/21/72 91/21/72 92/23/72
f 2/33/73 32/31/73 96/31/73 81/33/73
f 10/9/74 8/7/74 84/7/74 85/9/74
f 20/19/75 18/17/75 89/17/75 90/19/75
f 30/29/76 28/27/76 94/27/76 95/29/76
f 6/5/77 4/3/77 82/3/77 83/5/77
f 16/15/78 14/13/78 87/13/78 88/15/78
f 26/25/79 24/23/79 92/23/79 93/25/79
f 12/11/80 10/9/80 85/9/80 86/11/80
f 22/21/81 20/19/81 90/19/81 91/21/81
f 32/31/82 30/29/82 95/29/82 96/31/82
f 98/51/83 97/52/83 112/53/83 111/54/83 110/55/83 109/56/83 108/57/83 107/58/83 106/59/83 105/60/83 104/61/83 103/62/83 102/63/83 101/64/83 100/65/83 99/66/83
f 87/13/84 86/11/84 102/11/84 103/13/84
f 95/29/85 94/27/85 110/27/85 111/29/85
f 88/15/86 87/13/86 103/13/86 104/15/86
f 96/31/87 95/29/87 111/29/87 112/31/87
f 89/17/88 88/15/88 104/15/88 105/17/88
f 82/3/89 81/2/89 97/2/89 98/3/89
f 81/33/90 96/31/90 112/31/90 97/33/90
f 90/19/91 89/17/91 105/17/91 106/19/91
f 83/5/92 82/3/92 98/3/92 99/5/92
f 91/21/93 90/19/93 106/19/93 107/21/93
f 84/7/94 83/5/94 99/5/94 100/7/94
f 92/23/95 91/21/95 107/21/95 108/23/95
f 85/9/96 84/7/96 100/7/96 101/9/96
f 93/25/97 92/23/97 108/23/97 109/25/97
f 86/11/98 85/9/98 101/9/98 102/11/98
f 113/18/99 119/67/99 120/68/99 114/69/99
f 114/69/100 120/68/100 121/70/100 115/71/100
f 115/71/101 121/70/101 122/72/101 116/17/101
f 116/73/102 122/74/102 123/75/102 117/76/102
f 117/76/103 123/75/103 124/77/103 118/78/103
f 118/78/104 124/77/104 119/67/104 113/18/104
f 119/67/105 125/79/105 126/80/105 120/68/105
f 120/68/106 126/80/106 127/81/106 121/70/106
f 121/70/107 127/81/107 128/82/107 122/72/107
f 122/74/108 128/83/108 129/84/108 123/75/108
f 123/75/109 129/84/109 130/85/109 124/77/109
f 124/77/110 130/85/110 125/79/110 119/67/110
f 125/79/111 131/14/111 132/86/111 126/80/111
f 126/80/100 132/86/100 133/87/100 127/81/100
f 127/81/112 133/87/112 134/13/112 128/82/112
f 128/83/113 134/88/113 135/89/113 129/84/113
f 129/84/109 135/89/109 136/90/109 130/85/109
f 130/85/114 136/90/114 131/14/114 125/79/114
f 131/14/115 137/91/115 138/92/115 132/86/115
f 132/86/106 138/92/106 139/93/106 133/87/106
f 133/87/116 139/93/116 140/94/116 134/13/116
f 134/88/117 140/95/117 141/96/117 135/89/117
f 135/89/103 141/96/103 142/97/103 136/90/103
f 136/90/118 142/97/118 137/91/118 131/14/118
f 137/91/119 143/98/119 144/99/119 138/92/119
f 138/92/106 144/99/106 145/100/106 139/93/106
f 139/93/120 145/100/120 146/101/120 140/94/120
f 140/95/121 146/102/121 147/103/121 141/96/121
f 141/96/109 147/103/109 148/104/109 142/97/109
f 142/97/122 148/104/122 143/98/122 137/91/122
f 143/98/123 149/10/123 150/105/123 144/99/123
f 144/99/106 150/105/106 151/106/106 145/100/106
f 145/100/124 151/106/124 152/9/124 146/101/124
f 146/102/125 152/107/125 153/108/125 147/103/125
f 147/103/103 153/108/103 154/109/103 148/104/103
f 148/104/126 154/109/126 149/10/126 143/98/126
f 149/10/127 155/110/127 156/111/127 150/105/127
f 150/105/106 156/111/106 157/112/106 151/106/106
f 151/106/128 157/112/128 158/113/128 152/9/128
f 152/107/129 158/114/129 159/115/129 153/108/129
f 153/108/109 159/115/109 160/116/109 154/109/109
f 154/109/130 160/116/130 155/110/130 149/10/130
f 155/110/131 161/117/131 162/118/131 156/111/131
f 156/111/106 162/118/106 163/119/106 157/112/106
f 157/112/132 163/119/132 164/120/132 158/113/132
f 158/114/133 164/121/133 165/122/133 159/115/133
f 159/115/103 165/122/103 166/123/103 160/116/103
f 160/116/134 166/123/134 161/117/134 155/110/134
f 161/117/135 167/6/135 168/124/135 162/118/135
f 162/118/106 168/124/106 169/125/106 163/119/106
f 163/119/136 169/125/136 170/5/136 164/120/136
f 164/121/137 170/126/137 171/127/137 165/122/137
f 165/122/109 171/127/109 172/128/109 166/123/109
f 166/123/138 172/128/138 167/6/138 161/117/138
f 167/6/139 173/129/139 174/130/139 168/124/139
f 168/124/106 174/130/106 175/131/106 169/125/106
f 169/125/140 175/131/140 176/132/140 170/5/140
f 170/126/141 176/133/141 177/134/141 171/127/141
f 171/127/109 177/134/109 178/135/109 172/128/109
f 172/128/142 178/135/142 173/129/142 167/6/142
f 173/129/143 179/136/143 180/137/143 174/130/143
f 174/130/106 180/137/106 181/138/106 175/131/106
f 175/131/144 181/138/144 182/139/144 176/132/144
f 176/133/145 182/140/145 183/141/145 177/134/145
f 177/134/109 183/141/109 184/142/109 178/135/109
f 178/135/146 184/142/146 179/136/146 173/129/146
f 179/136/147 185/1/147 186/143/147 180/137/147
f 180/137/106 186/143/106 187/144/106 181/138/106
f 181/138/148 187/144/148 188/2/148 182/139/148
f 182/140/149 188/145/149 189/146/149 183/141/149
f 183/141/109 189/146/109 190/147/109 184/142/109
f 184/142/150 190/147/150 185/1/150 179/136/150
f 185/148/101 191/149/101 192/150/101 186/151/101
f 186/151/100 192/150/100 193/152/100 187/153/100
f 187/153/99 193/152/99 194/154/99 188/155/99
f 188/156/104 194/157/104 195/158/104 189/159/104
f 189/159/109 195/158/109 196/160/109 190/161/109
f 190/161/102 196/160/102 191/149/102 185/148/102
f 191/149/107 197/162/107 198/163/107 192/150/107
f 192/150/106 198/163/106 199/164/106 193/152/106
f 193/152/105 199/164/105 200/165/105 194/154/105
f 194/157/110 200/166/110 201/167/110 195/158/110
f 195/158/109 201/167/109 202/168/109 196/160/109
f 196/160/108 202/168/108 197/162/108 191/149/108
f 197/162/112 203/30/112 204/169/112 198/163/112
f 198/163/106 204/169/106 205/170/106 199/164/106
f 199/164/111 205/170/111 206/29/111 200/165/111
f 200/166/114 206/171/114 207/172/114 201/167/114
f 201/167/103 207/172/103 208/173/103 202/168/103
f 202/168/113 208/173/113 203/30/113 197/162/113
f 203/30/116 209/174/116 210/175/116 204/169/116
f 204/169/106 210/175/106 211/176/106 205/170/106
f 205/170/115 211/176/115 212/177/115 206/29/115
f 206/171/118 212/178/118 213/179/118 207/172/118
f 207/172/109 213/179/109 214/180/109 208/173/109
f 208/173/151 214/180/151 209/174/151 203/30/151
f 209/174/120 215/181/120 216/182/120 210/175/120
f 210/175/106 216/182/106 217/183/106 211/176/106
f 211/176/119 217/183/119 218/184/119 212/177/119
f 212/178/122 218/185/122 219/186/122 213/179/122
f 213/179/103 219/186/103 220/187/103 214/180/103
f 214/180/121 220/187/121 215/181/121 209/174/121
f 215/181/124 221/26/124 222/188/124 216/182/124
f 216/182/106 222/188/106 223/189/106 217/183/106
f 217/183/123 223/189/123 224/25/123 218/184/123
f 218/185/126 224/190/126 225/191/126 219/186/126
f 219/186/109 225/191/109 226/192/109 220/187/109
f 220/187/125 226/192/125 221/26/125 215/181/125
f 221/26/128 227/193/128 228/194/128 222/188/128
f 222/188/106 228/194/106 229/195/106 223/189/106
f 223/189/127 229/195/127 230/196/127 224/25/127
f 224/190/130 230/197/130 231/198/130 225/191/130
f 225/191/109 231/198/109 232/199/109 226/192/109
f 226/192/129 232/199/129 227/193/129 221/26/129
f 227/193/132 233/200/132 234/201/132 228/194/132
f 228/194/106 234/201/106 235/202/106 229/195/106
f 229/195/131 235/202/131 236/203/131 230/196/131
f 230/197/134 236/204/134 237/205/134 231/198/134
f 231/198/109 237/205/109 238/206/109 232/199/109
f 232/199/133 238/206/133 233/200/133 227/193/133
f 233/200/136 239/22/136 240/207/136 234/201/136
f 234/201/106 240/207/106 241/208/106 235/202/106
f 235/202/135 241/208/135 242/21/135 236/203/135
f 236/204/138 242/209/138 243/210/138 237/205/138
f 237/205/109 243/210/109 244/211/109 238/206/109
f 238/206/137 244/211/137 239/22/137 233/200/137
f 239/22/140 245/212/140 246/213/140 240/207/140
f 240/207/106 246/213/106 247/214/106 241/208/106
f 241/208/139 247/214/139 248/215/139 242/21/139
f 242/209/142 248/216/142 249/217/142 243/210/142
f 243/210/109 249/217/109 250/218/109 244/211/109
f 244/211/141 250/218/141 245/212/141 239/22/141
f 245/212/144 251/219/144 252/220/144 246/213/144
f 246/213/106 252/220/106 253/221/106 247/214/106
f 247/214/143 253/221/143 254/222/143 248/215/143
f 248/216/146 254/223/146 255/224/146 249/217/146
f 249/217/109 255/224/109 256/225/109 250/218/109
f 250/218/145 256/225/145 251/219/145 245/212/145
f 251/219/148 113/18/148 114/69/148 252/220/148
f 252/220/100 114/69/100 115/71/100 253/221/100
f 253/221/147 115/71/147 116/17/147 254/222/147
f 254/223/150 116/73/150 117/76/150 255/224/150
f 255/224/109 117/76/109 118/78/109 256/225/109
f 256/225/149 118/78/149 113/18/149 251/219/149
