# Blender 4.5.4 LTS
# www.blender.org
mtllib Helmet.mtl
o basic_welding_helmet
v -14.873409 2.689420 -2.939943
v -15.155482 3.077165 -3.202363
v -14.095510 1.757691 -2.675724
v -14.911498 2.636052 -2.723998
v -15.298386 3.178897 -3.098860
v -15.419814 3.203075 -3.327243
v -15.000618 2.877657 -3.076408
v -14.431767 1.671607 -2.481016
v -15.101498 2.917203 -2.927821
v -15.635103 3.129122 -3.542672
v -14.384761 1.801803 -2.403659
v -14.375092 1.724955 -2.420215
v -14.239851 2.329417 -2.789217
v -15.348601 2.753876 -3.047700
v -15.046611 2.372280 -2.723736
v -15.154547 2.125394 -2.877910
v -14.779130 2.061797 -2.528668
v -15.518615 2.515644 -3.268468
v -14.503117 1.690907 -2.445613
v -14.447761 1.728259 -2.355680
v -14.863941 1.936863 -2.653649
v -15.759175 2.898409 -3.762208
v -14.653429 2.243333 -2.522434
v -14.528205 2.775504 -3.142989
v -14.790239 3.163249 -3.424090
v -14.480903 2.722137 -3.006643
v -14.847753 3.264982 -3.400185
v -15.012493 3.289159 -3.588193
v -14.655414 2.963742 -3.279454
v -15.306268 3.181719 -3.856457
v -15.553089 2.867395 -4.121238
v -14.039548 1.887888 -2.606714
v -14.038833 1.811039 -2.614924
v -14.144436 1.807271 -2.753829
v -14.449677 1.729128 -2.577082
v -15.106893 2.141056 -2.936330
v -15.438122 2.496410 -3.291661
v -14.514444 1.746646 -2.544943
v -14.845312 1.969916 -2.730688
v -15.625404 2.799505 -3.708729
v -15.468308 2.815713 -4.066801
v -14.219260 1.936077 -2.896033
v -14.450253 1.964803 -2.763506
v -15.010222 2.287992 -3.005052
v -15.271272 2.546218 -3.249189
v -14.514281 1.990482 -2.755540
v -14.818814 2.158898 -2.844425
v -15.414945 2.809559 -3.608729
v -15.218769 2.851242 -3.887385
v -13.956992 1.757691 -2.804846
v -14.080709 2.329417 -2.937565
v -14.391227 2.775504 -3.270677
v -14.653261 3.163249 -3.551777
v -14.301229 2.722137 -3.174130
v -14.668078 3.264982 -3.567672
v -14.838446 3.289159 -3.750436
v -14.518436 2.963742 -3.407141
v -15.108834 3.181719 -4.040498
v -15.355657 2.867395 -4.305280
v -13.896554 1.887888 -2.740010
v -13.900316 1.811039 -2.744046
v -14.018697 1.807271 -2.871040
v -15.289087 2.815713 -4.233867
v -14.124413 1.936077 -2.984448
v -15.083579 2.851242 -4.013405
v -15.449963 2.978553 -3.173560
v -15.659706 2.679020 -3.454004
v -15.606091 2.778955 -3.363281
v -15.298386 3.178897 -3.098860
v -15.408575 2.723302 -3.442687
v -15.550550 2.636778 -3.457967
v -15.487961 2.449239 -4.447211
v -15.472701 2.093750 -4.430840
v -15.372334 1.861965 -4.323172
v -15.289838 2.831629 -4.234672
v -14.702969 2.834890 -3.605101
v -15.289838 2.831629 -4.234672
v -14.992258 2.778333 -3.413447
v -15.289838 2.831629 -4.234672
v -15.281857 2.623814 -3.356632
v -15.289838 2.831629 -4.234672
v -15.494164 2.412738 -3.449879
v -15.289838 2.831629 -4.234672
v -15.673075 2.132457 -3.669717
v -15.289838 2.831629 -4.234672
v -15.603546 1.934443 -4.007668
v -15.289838 2.831629 -4.234672
v -15.027338 3.118756 -3.953072
v -14.785089 3.093197 -3.693196
v -15.232122 3.073907 -3.824042
v -15.090787 3.026247 -3.500580
v -15.443747 2.951377 -3.795787
v -15.406698 2.843335 -3.458402
v -15.605506 2.783998 -3.875879
v -15.648170 2.593473 -3.577963
v -15.674058 2.616619 -4.042857
v -15.750505 2.343611 -3.827225
v -15.631033 2.494088 -4.251978
v -15.686278 2.160699 -4.139400
v -15.492171 2.165150 -4.451728
v -15.525065 2.129213 -4.487015
v -15.510148 2.200540 -4.471013
v -15.543042 2.164602 -4.506300
v -14.702717 3.027654 -3.604830
v -14.669822 3.063592 -3.569542
v -14.720693 3.063044 -3.624115
v -14.687799 3.098981 -3.588827
v -14.959031 2.984946 -3.444274
v -14.947496 3.017325 -3.395606
v -14.977008 3.020337 -3.463559
v -14.965473 3.052716 -3.414891
v -15.242760 2.865283 -3.399387
v -15.254869 2.887690 -3.346980
v -15.260737 2.900673 -3.418672
v -15.272846 2.923080 -3.366264
v -15.497707 2.692364 -3.479060
v -15.531063 2.700361 -3.433292
v -15.515684 2.727754 -3.498345
v -15.549040 2.735751 -3.452576
v -15.673377 2.500439 -3.667513
v -15.721372 2.492442 -3.637450
v -15.691354 2.535829 -3.686798
v -15.739348 2.527832 -3.656734
v -15.734977 2.327520 -3.927420
v -15.788105 2.305113 -3.919015
v -15.752954 2.362911 -3.946704
v -15.806082 2.340504 -3.938299
v -15.670306 2.207857 -4.207303
v -15.718044 2.175478 -4.222221
v -15.688283 2.243247 -4.226588
v -15.736021 2.210868 -4.241506
v -14.655987 2.970568 -3.554700
v -14.982423 2.899077 -3.349020
v -15.319763 2.703757 -3.303980
v -15.577616 2.436946 -3.431651
v -15.686892 2.170135 -3.697821
v -15.390244 1.903324 -4.342383
v -15.618308 1.974815 -4.031173
v -15.496445 1.681571 -4.456312
v -15.770975 1.955472 -3.822587
v -15.786199 1.991578 -3.851550
v -15.748947 1.723102 -4.163648
v -15.765583 1.760752 -4.189163
v -15.516517 1.719786 -4.477844
v -15.405187 2.250987 -4.358414
v -14.892902 2.995594 -3.808854
v -15.120654 2.945715 -3.665352
v -15.356013 2.809442 -3.633929
v -15.535916 2.623290 -3.723003
v -15.612156 2.437138 -3.908709
v -15.564306 2.300865 -4.141286
v -15.297183 2.536627 -4.242551
v -15.088629 2.839760 -4.018823
v -15.181348 2.819454 -3.960402
v -15.277164 2.763976 -3.947610
v -15.350403 2.688193 -3.983872
v -15.381440 2.612410 -4.059474
v -15.361960 2.556933 -4.154157
v -14.027496 2.689420 -3.728480
v -14.269491 3.077165 -4.028260
v -13.818476 1.757691 -2.933968
v -13.809412 2.636052 -3.751333
v -14.156222 3.178897 -4.163554
v -14.375528 3.203075 -4.300698
v -14.154705 2.877657 -3.864945
v -13.600668 1.671607 -3.255745
v -13.999411 2.917203 -3.955157
v -14.575332 3.129122 -4.530563
v -13.526798 1.801803 -3.203430
v -13.543991 1.724955 -3.194945
v -13.921568 2.329417 -3.085913
v -14.101666 2.753876 -4.210059
v -13.799676 2.372280 -3.886095
v -13.945902 2.125394 -4.004576
v -13.623845 2.061797 -3.605594
v -14.309970 2.515644 -4.395134
v -13.560349 1.690907 -3.324436
v -13.474519 1.728259 -3.262910
v -13.742571 1.936863 -3.698960
v -14.785626 2.898410 -4.669724
v -13.626440 2.243333 -3.479765
v -14.254250 2.775504 -3.398364
v -14.516284 3.163249 -3.679464
v -14.121555 2.722137 -3.341617
v -14.488405 3.264982 -3.735159
v -14.664398 3.289159 -3.912678
v -14.381458 2.963742 -3.534829
v -14.911402 3.181719 -4.224540
v -15.158224 2.867395 -4.489321
v -13.753560 1.887888 -2.873305
v -13.761799 1.811039 -2.873167
v -13.892957 1.807271 -2.988251
v -13.695241 1.729128 -3.280346
v -14.007520 2.141056 -3.961135
v -14.338750 2.496410 -4.316466
v -13.658640 1.746646 -3.342700
v -13.820727 1.969916 -3.685779
v -14.741659 2.799506 -4.532532
v -15.109866 2.815713 -4.400931
v -14.029565 1.936077 -3.072863
v -13.881166 1.964804 -3.293993
v -14.082851 2.287992 -3.869522
v -14.308083 2.546218 -4.147048
v -13.868731 1.990482 -3.357306
v -13.936042 2.158898 -3.667321
v -14.656663 2.809559 -4.315579
v -14.948389 2.851242 -4.139426
v -14.220110 2.978553 -4.319995
v -14.485156 2.679020 -4.548889
v -14.398416 2.778955 -4.489044
v -14.156222 3.178897 -4.163554
v -14.491476 2.723302 -4.297582
v -14.496763 2.636778 -4.440279
v -14.491501 2.778333 -3.880239
v -14.414518 2.623814 -4.165140
v -14.492649 2.412738 -4.383464
v -14.699400 2.132457 -4.577350
v -15.041395 1.934443 -4.531690
v -14.884266 3.073907 -4.148304
v -14.571511 3.026247 -3.984636
v -14.841241 2.951377 -4.357426
v -14.507284 2.843335 -4.296812
v -14.909793 2.783998 -4.524404
v -14.609618 2.593473 -4.546073
v -15.071552 2.616619 -4.604496
v -14.851091 2.343611 -4.665634
v -15.283176 2.494088 -4.576241
v -15.167002 2.160699 -4.623456
v -14.524582 2.984946 -3.849256
v -14.476843 3.017325 -3.834337
v -14.542559 3.020337 -3.868540
v -14.494821 3.052716 -3.853621
v -14.459910 2.865283 -4.129138
v -14.406783 2.887690 -4.137543
v -14.477887 2.900673 -4.148424
v -14.424760 2.923080 -4.156828
v -14.521510 2.692364 -4.389045
v -14.473516 2.700361 -4.419109
v -14.539487 2.727755 -4.408329
v -14.491492 2.735751 -4.438394
v -14.697181 2.500439 -4.577497
v -14.663826 2.492442 -4.623266
v -14.715158 2.535829 -4.596782
v -14.681803 2.527832 -4.642550
v -14.952128 2.327520 -4.657170
v -14.940019 2.305113 -4.709579
v -14.970104 2.362911 -4.676455
v -14.957995 2.340504 -4.728863
v -15.235858 2.207857 -4.612284
v -15.247392 2.175478 -4.660951
v -15.253835 2.243247 -4.631569
v -15.265368 2.210868 -4.680235
v -14.427922 2.899077 -3.865911
v -14.359339 2.703757 -4.199262
v -14.468615 2.436946 -4.465433
v -14.726467 2.170135 -4.593103
v -15.063807 1.974815 -4.548064
v -14.845029 1.955472 -4.685729
v -14.872853 1.991578 -4.702946
v -15.186796 1.723102 -4.687671
v -15.211082 1.760752 -4.706055
v -14.733783 2.945715 -4.025983
v -14.685933 2.809442 -4.258560
v -14.762174 2.623290 -4.444265
v -14.942076 2.437138 -4.533340
v -15.177436 2.300865 -4.501916
v -15.023850 2.819454 -4.107217
v -15.004372 2.763976 -4.201900
v -15.035409 2.688193 -4.277501
v -15.108648 2.612410 -4.313764
v -15.204464 2.556933 -4.300972
vn 0.2587 0.6638 0.7018
vn -0.0303 0.9564 0.2906
vn 0.6752 0.6874 0.2677
vn -0.1345 0.2562 0.9572
vn 0.6846 0.6703 0.2864
vn 0.2438 0.6718 0.6994
vn 0.5205 -0.1014 0.8478
vn 0.3833 0.4740 0.7927
vn -0.3882 0.2153 0.8961
vn -0.7753 -0.0145 0.6314
vn -0.6537 -0.3344 0.6789
vn -0.7623 -0.0613 0.6444
vn -0.6864 -0.1743 0.7061
vn -0.5492 0.1635 0.8196
vn 0.6600 -0.0779 0.7472
vn -0.5320 0.2495 0.8092
vn 0.9129 -0.1264 -0.3882
vn 0.5817 0.5218 0.6240
vn 0.6801 -0.0716 0.7296
vn -0.5436 0.7331 -0.4087
vn -0.2543 0.9626 -0.0934
vn 0.4843 0.7039 0.5195
vn 0.5391 0.0037 0.8422
vn -0.0843 0.9815 0.1719
vn 0.2556 0.9271 0.2742
vn 0.1535 -0.8929 0.4232
vn 0.4167 -0.8397 0.3483
vn 0.5264 0.6357 0.5647
vn 0.3451 0.6030 0.7192
vn 0.3838 0.8137 0.4366
vn -0.4758 -0.8507 -0.2234
vn -0.3276 -0.8770 -0.3515
vn -0.3216 -0.8403 -0.4364
vn -0.2346 -0.8725 -0.4286
vn -0.3352 -0.8040 -0.4912
vn -0.0705 -0.8616 -0.5027
vn -0.4212 -0.8106 -0.4069
vn 0.2966 -0.5054 -0.8103
vn -0.4132 -0.5810 -0.7012
vn -0.0229 -0.5986 -0.8007
vn -0.3238 -0.6696 -0.6684
vn -0.3807 0.7593 0.5278
vn -0.4357 -0.7692 -0.4674
vn 0.1146 -0.9931 -0.0267
vn 0.2865 -0.5363 -0.7939
vn 0.0798 -0.9931 0.0856
vn -0.3190 -0.8838 -0.3422
vn 0.3683 -0.8416 0.3951
vn 0.0657 0.9954 0.0705
vn 0.6668 0.2089 0.7153
vn -0.1783 0.9652 -0.1913
vn -0.4471 0.7551 -0.4796
vn -0.7821 0.4201 0.4603
vn -0.7956 0.3050 0.5235
vn 0.8229 0.0704 -0.5638
vn -0.3807 0.5462 0.7461
vn 0.3325 0.8191 0.4675
vn 0.1734 0.8120 0.5574
vn -0.4431 0.8385 0.3172
vn -0.2701 0.6337 0.7249
vn -0.7537 0.5973 0.2740
vn -0.6678 0.3249 0.6697
vn -0.9453 0.3188 0.0685
vn -0.9131 -0.0316 0.4065
vn -0.4347 0.8010 -0.4115
vn -0.9666 0.0777 -0.2444
vn -0.5002 0.7747 -0.3868
vn -0.9403 -0.3403 0.0060
vn -0.5589 0.7291 -0.3949
vn -0.8118 -0.0616 -0.5807
vn -0.5951 0.6765 -0.4338
vn -0.7421 -0.5186 -0.4247
vn -0.5991 0.6309 -0.4929
vn -0.0967 0.9777 0.1863
vn -0.5699 0.6046 -0.5565
vn 0.9243 -0.2858 -0.2529
vn -0.4074 0.8019 -0.4370
vn 0.3604 0.5808 0.7299
vn -0.4073 0.8019 -0.4370
vn -0.3604 -0.5808 -0.7299
vn -0.0524 0.4572 0.8878
vn 0.0524 -0.4572 -0.8878
vn 0.4383 -0.2481 -0.8639
vn -0.4383 0.2481 0.8639
vn -0.7315 -0.0000 0.6819
vn 0.7315 -0.0000 -0.6819
vn -0.8925 -0.2481 0.3766
vn 0.8925 0.2481 -0.3766
vn 0.8893 0.4572 0.0100
vn -0.8893 -0.4572 -0.0100
vn -0.7028 -0.5808 -0.4107
vn 0.7028 0.5808 0.4107
vn 0.4800 -0.7103 0.5149
vn -0.4800 0.7103 -0.5149
vn 0.0882 -0.4882 0.8683
vn 0.3727 -0.4282 0.8233
vn 0.5497 -0.4398 0.7102
vn -0.6442 -0.6033 -0.4702
vn -0.9428 -0.2999 0.1454
vn -0.3821 -0.4852 0.7865
vn 0.3791 -0.8764 0.2970
vn 0.3048 -0.7343 -0.6065
vn 0.9761 -0.0258 0.2159
vn 0.7202 -0.4822 -0.4987
vn -0.1525 -0.8495 -0.5051
vn 0.8137 0.1202 0.5687
vn 0.7078 -0.5362 0.4598
vn 0.5100 -0.8238 0.2476
vn 0.6493 -0.4836 0.5869
vn 0.6274 -0.7326 0.2639
vn 0.6998 -0.6274 0.3416
vn 0.6819 0.6638 0.3073
vn 0.2920 0.9564 -0.0099
vn 0.2197 0.6874 0.6923
vn 0.9643 0.2562 -0.0671
vn 0.2377 0.6703 0.7030
vn 0.6806 0.6718 0.2923
vn 0.8092 -0.1014 0.5787
vn 0.7639 0.4740 0.4379
vn 0.9211 0.2153 -0.3244
vn 0.6842 -0.0145 -0.7291
vn 0.7230 -0.3344 -0.6045
vn 0.6962 -0.0613 -0.7152
vn 0.7525 -0.1743 -0.6352
vn 0.8560 0.1635 -0.4903
vn 0.6991 -0.0779 0.7108
vn 0.8445 0.2495 -0.4739
vn -0.4512 -0.1264 0.8834
vn -0.3696 0.7331 -0.5709
vn -0.0753 0.9626 -0.2602
vn 0.8023 0.0037 0.5969
vn 0.1774 0.9815 -0.0720
vn 0.4114 -0.8929 0.1828
vn 0.3183 -0.8397 0.4401
vn 0.6933 0.6030 0.3947
vn 0.4086 0.8137 0.4135
vn -0.1895 -0.8507 -0.4903
vn -0.4127 -0.8403 -0.3514
vn -0.4111 -0.8725 -0.2641
vn -0.4665 -0.8040 -0.3688
vn -0.4965 -0.8616 -0.1056
vn -0.3763 -0.8106 -0.4486
vn -0.8291 -0.5054 0.2390
vn -0.6705 -0.5810 -0.4614
vn -0.7971 -0.5986 -0.0790
vn -0.6440 -0.6696 -0.3699
vn 0.5532 0.7593 -0.3428
vn -0.0347 -0.9931 0.1125
vn -0.8121 -0.5363 0.2301
vn 0.5140 0.4201 -0.7479
vn 0.5780 0.3050 -0.7569
vn -0.6201 0.0704 0.7813
vn 0.7710 0.5462 -0.3274
vn 0.4431 0.8191 0.3644
vn 0.5438 0.8120 0.2120
vn 0.3475 0.8385 -0.4198
vn 0.7420 0.6337 -0.2186
vn 0.3262 0.5973 -0.7327
vn 0.7148 0.3249 -0.6192
vn 0.1346 0.3188 -0.9382
vn 0.4696 -0.0316 -0.8823
vn -0.3800 0.8010 -0.4625
vn -0.1760 0.0777 -0.9813
vn -0.3508 0.7747 -0.5261
vn 0.0719 -0.3403 -0.9375
vn -0.3548 0.7291 -0.5852
vn -0.5224 -0.0616 -0.8505
vn -0.3910 0.6765 -0.6241
vn -0.3716 -0.5186 -0.7700
vn -0.4497 0.6309 -0.6322
vn 0.1926 0.9777 -0.0834
vn -0.5152 0.6046 -0.6075
vn -0.3171 -0.2858 0.9043
vn 0.8600 -0.4882 0.1489
vn 0.7951 -0.4282 0.4295
vn 0.6699 -0.4398 0.5982
vn -0.4239 -0.6033 -0.6756
vn 0.2112 -0.2999 -0.9303
vn 0.8114 -0.4852 -0.3260
vn 0.2697 -0.8764 0.3990
vn -0.6264 -0.7343 0.2615
vn 0.1469 -0.0258 0.9888
vn -0.5480 -0.4822 0.6835
vn -0.4931 -0.8495 -0.1876
vn 0.5102 0.1202 0.8516
vn 0.4090 -0.5362 0.7383
vn 0.2112 -0.8238 0.5261
vn 0.5400 -0.4836 0.6889
vn 0.2193 -0.7326 0.6444
vn 0.2917 -0.6274 0.7220
vt 0.500000 0.416667
vt 0.625000 0.416667
vt 0.625000 0.500000
vt 0.500000 0.500000
vt 0.375000 0.416667
vt 0.375000 0.500000
vt 0.375000 0.500000
vt 0.291667 0.500000
vt 0.375000 0.750000
vt 0.291667 0.750000
vt 0.540004 0.500000
vt 0.541103 0.750000
vt 0.500000 0.750000
vt 0.552930 0.500000
vt 0.625000 0.750000
vt 0.543930 0.750000
vt 0.375000 0.375000
vt 0.250000 0.500000
vt 0.250000 0.750000
vt 0.708333 0.750000
vt 0.500000 0.375000
vt 0.708333 0.500000
vt 0.625000 0.375000
vt 0.000000 0.000000
vt 0.555892 0.750000
vt 0.574540 0.750000
vt 0.750000 0.750000
vt 0.750000 0.500000
vt 0.500000 0.529739
vt 0.500000 0.666667
vt 0.416667 0.666667
vt 0.416667 0.529739
vt 0.416667 0.833333
vt 0.333333 0.833333
vt 0.333333 0.666667
vt 0.333333 0.529739
vt 0.250000 0.833333
vt 0.250000 0.666667
vt 0.250000 0.529739
vt 0.166667 0.833333
vt 0.166667 0.666667
vt 0.166667 0.529739
vt 0.500000 0.833333
vt 0.500000 1.000000
vt 0.416667 1.000000
vt 0.083333 0.833333
vt 0.083333 0.666667
vt 0.333333 1.000000
vt 0.083333 0.529739
vt 0.250000 1.000000
vt 0.000000 0.833333
vt 0.000000 0.666667
vt 0.166667 1.000000
vt 0.000000 0.529739
vt 0.083333 1.000000
vt 0.000000 1.000000
vt 0.510000 0.250000
vt 0.542154 0.370000
vt 0.630000 0.457846
vt 0.333333 0.500000
vt 0.250000 0.500000
vt 0.416667 0.500000
vt 0.500000 0.500000
vt 0.083333 0.500000
vt 0.000000 0.500000
vt 0.166667 0.500000
vt 0.750000 0.490000
s 0
f 29/1/1 25/2/1 2/3/1 7/4/1
f 24/5/2 1/6/2 4/6/2 26/5/2
f 7/4/3 2/3/3 5/3/3 9/4/3
f 11/6/4 23/6/4 17/7/4 20/6/4
f 1/6/5 7/4/5 9/4/5 4/6/5
f 24/5/6 29/1/6 7/4/6 1/6/6
f 32/8/7 11/6/7 12/9/7 33/10/7
f 13/5/8 23/6/8 11/6/8 32/5/8
f 23/6/9 4/6/9 15/6/9 17/7/9
f 14/4/10 66/11/10 68/12/10 18/13/10
f 17/7/11 21/9/11 19/9/11 20/6/11
f 15/6/12 14/4/12 18/13/12 16/9/12
f 15/6/13 16/9/13 21/9/13 17/7/13
f 9/4/14 69/14/14 66/11/14 14/4/14
f 11/6/15 20/6/15 12/9/15
f 4/6/16 9/4/16 14/4/16 15/6/16
f 10/15/17 68/12/17 67/16/17 22/15/17
f 51/17/18 13/5/18 32/5/18 60/17/18
f 60/18/19 32/8/19 33/10/19 61/19/19
f 10/15/20 30/20/20 31/20/20 22/15/20
f 6/15/21 28/20/21 30/20/21 10/15/21
f 52/17/22 57/21/22 29/1/22 24/5/22
f 2/3/23 25/2/23 27/2/23 5/3/23
f 5/3/24 27/22/24 28/20/24 6/15/24
f 52/17/25 24/5/25 26/5/25 54/17/25
f 57/21/22 53/23/22 25/2/22 29/1/22
f 20/6/26 19/9/26 8/24/26 12/9/26
f 12/9/27 8/24/27 3/24/27 33/10/27
f 54/17/28 26/5/28 13/5/28 51/17/28
f 26/5/29 4/6/29 23/6/29 13/5/29
f 22/15/30 67/16/30 71/25/30 40/15/30
f 22/15/31 31/20/31 41/20/31 40/15/31
f 50/24/32 3/24/32 34/24/32 62/24/32
f 19/9/33 21/9/33 39/9/33 38/9/33
f 21/9/34 16/9/34 36/9/34 39/9/34
f 16/9/35 18/13/35 37/13/35 36/9/35
f 3/24/36 8/24/36 35/24/36 34/24/36
f 8/24/37 19/9/37 38/9/37 35/24/37
f 36/9/38 37/13/38 45/13/38 44/9/38
f 35/24/39 38/9/39 46/9/39 43/24/39
f 38/9/40 39/9/40 47/9/40 46/9/40
f 34/24/41 35/24/41 43/24/41 42/24/41
f 40/15/42 71/25/42 70/26/42 48/15/42
f 62/24/43 34/24/43 42/24/43 64/24/43
f 40/15/44 41/20/44 49/20/44 48/15/44
f 39/9/45 36/9/45 44/9/45 47/9/45
f 41/20/46 63/27/46 65/27/46 49/20/46
f 31/20/47 59/27/47 63/27/47 41/20/47
f 3/24/48 50/24/48 61/19/48 33/10/48
f 27/22/49 55/28/49 56/27/49 28/20/49
f 25/2/50 53/23/50 55/23/50 27/2/50
f 28/20/51 56/27/51 58/27/51 30/20/51
f 30/20/52 58/27/52 59/27/52 31/20/52
f 66/11/53 69/14/53 9/4/53 5/3/53 6/3/53
f 68/12/54 66/11/54 6/3/54 10/15/54
f 67/16/55 68/12/55 18/13/55
f 70/26/56 71/25/56 37/13/56 45/13/56
f 71/25/57 67/16/57 18/13/57 37/13/57
f 132/29/58 89/30/58 91/31/58 133/32/58
f 91/31/59 90/33/59 92/34/59 93/35/59
f 133/32/60 91/31/60 93/35/60 134/36/60
f 93/35/61 92/34/61 94/37/61 95/38/61
f 134/36/62 93/35/62 95/38/62 135/39/62
f 95/38/63 94/37/63 96/40/63 97/41/63
f 135/39/64 95/38/64 97/41/64 136/42/64
f 88/43/65 77/44/65 79/45/65 90/33/65
f 97/41/66 96/40/66 98/46/66 99/47/66
f 90/33/67 79/45/67 81/48/67 92/34/67
f 136/42/68 97/41/68 99/47/68 138/49/68
f 92/34/69 81/48/69 83/50/69 94/37/69
f 99/47/70 98/46/70 72/51/70 73/52/70
f 94/37/71 83/50/71 85/53/71 96/40/71
f 138/49/72 99/47/72 73/52/72 137/54/72
f 96/40/73 85/53/73 87/55/73 98/46/73
f 89/30/74 88/43/74 90/33/74 91/31/74
f 98/46/75 87/55/75 75/56/75 72/51/75
f 82/57/76 84/58/76 150/58/76 149/57/76
f 107/24/77 106/24/77 110/24/77 111/24/77
f 104/24/78 106/24/78 110/24/78 108/24/78
f 105/24/79 104/24/79 108/24/79 109/24/79
f 107/24/80 105/24/80 109/24/80 111/24/80
f 108/24/81 110/24/81 114/24/81 112/24/81
f 109/24/77 108/24/77 112/24/77 113/24/77
f 111/24/82 109/24/82 113/24/82 115/24/82
f 111/24/77 110/24/77 114/24/77 115/24/77
f 115/24/83 113/24/83 117/24/83 119/24/83
f 115/24/77 114/24/77 118/24/77 119/24/77
f 112/24/84 114/24/84 118/24/84 116/24/84
f 113/24/77 112/24/77 116/24/77 117/24/77
f 116/24/85 118/24/85 122/24/85 120/24/85
f 117/24/77 116/24/77 120/24/77 121/24/77
f 119/24/86 117/24/86 121/24/86 123/24/86
f 119/24/77 118/24/77 122/24/77 123/24/77
f 120/24/87 122/24/87 126/24/87 124/24/87
f 121/24/79 120/24/79 124/24/79 125/24/79
f 123/24/88 121/24/88 125/24/88 127/24/88
f 123/24/79 122/24/79 126/24/79 127/24/79
f 127/24/89 125/24/89 129/24/89 131/24/89
f 127/24/77 126/24/77 130/24/77 131/24/77
f 124/24/90 126/24/90 130/24/90 128/24/90
f 125/24/77 124/24/77 128/24/77 129/24/77
f 128/24/91 130/24/91 102/24/91 100/24/91
f 129/24/77 128/24/77 100/24/77 101/24/77
f 131/24/92 129/24/92 101/24/92 103/24/92
f 131/24/77 130/24/77 102/24/77 103/24/77
f 86/59/93 84/58/93 140/58/93 142/59/93
f 138/49/94 137/54/94 144/54/94 143/49/94
f 80/60/95 134/36/95 135/39/95 82/61/95
f 78/62/96 133/32/96 134/36/96 80/60/96
f 76/63/97 132/29/97 133/32/97 78/62/97
f 142/64/98 143/49/98 144/54/98 139/65/98
f 140/66/99 141/42/99 143/49/99 142/64/99
f 82/61/100 135/39/100 141/39/100 140/61/100
f 136/42/94 138/49/94 143/49/94 141/42/94
f 84/58/94 82/57/94 140/58/94
f 135/39/94 136/42/94 141/39/94
f 74/67/93 86/59/93 142/59/93 139/67/93
f 146/63/101 147/62/101 154/62/101 153/63/101
f 78/62/102 80/60/102 148/60/102 147/62/102
f 84/58/103 86/59/103 151/59/103 150/58/103
f 80/60/104 82/61/104 149/61/104 148/60/104
f 76/63/105 78/62/105 147/62/105 146/63/105
f 86/59/106 74/67/106 145/67/106 151/59/106
f 150/58/107 151/59/107 158/59/107 157/58/107
f 147/62/108 148/60/108 155/60/108 154/62/108
f 151/59/109 145/67/109 152/67/109 158/59/109
f 148/60/110 149/61/110 156/61/110 155/60/110
f 149/57/111 150/58/111 157/58/111 156/57/111
f 187/1/112 165/4/112 160/3/112 183/2/112
f 182/5/113 184/5/113 162/6/113 159/6/113
f 165/4/114 167/4/114 163/3/114 160/3/114
f 169/6/115 178/6/115 175/7/115 181/6/115
f 159/6/116 162/6/116 167/4/116 165/4/116
f 182/5/117 159/6/117 165/4/117 187/1/117
f 190/8/118 191/10/118 170/9/118 169/6/118
f 171/5/119 190/5/119 169/6/119 181/6/119
f 181/6/120 175/7/120 173/6/120 162/6/120
f 172/4/121 176/13/121 210/12/121 208/11/121
f 175/7/122 178/6/122 177/9/122 179/9/122
f 173/6/123 174/9/123 176/13/123 172/4/123
f 173/6/124 175/7/124 179/9/124 174/9/124
f 167/4/125 172/4/125 208/11/125 211/14/125
f 169/6/126 170/9/126 178/6/126
f 162/6/127 173/6/127 172/4/127 167/4/127
f 168/15/128 180/15/128 209/16/128 210/12/128
f 51/17/18 60/17/18 190/5/18 171/5/18
f 60/18/19 61/19/19 191/10/19 190/8/19
f 168/15/129 180/15/129 189/20/129 188/20/129
f 164/15/130 168/15/130 188/20/130 186/20/130
f 52/17/22 182/5/22 187/1/22 57/21/22
f 160/3/131 163/3/131 185/2/131 183/2/131
f 163/3/132 164/15/132 186/20/132 185/22/132
f 52/17/25 54/17/25 184/5/25 182/5/25
f 57/21/22 187/1/22 183/2/22 53/23/22
f 178/6/133 170/9/133 166/24/133 177/9/133
f 170/9/134 191/10/134 161/24/134 166/24/134
f 54/17/28 51/17/28 171/5/28 184/5/28
f 184/5/135 171/5/135 181/6/135 162/6/135
f 180/15/136 198/15/136 213/25/136 209/16/136
f 180/15/137 198/15/137 199/20/137 189/20/137
f 50/24/32 62/24/32 192/24/32 161/24/32
f 177/9/138 196/9/138 197/9/138 179/9/138
f 179/9/139 197/9/139 194/9/139 174/9/139
f 174/9/140 194/9/140 195/13/140 176/13/140
f 161/24/141 192/24/141 193/24/141 166/24/141
f 166/24/142 193/24/142 196/9/142 177/9/142
f 194/9/143 202/9/143 203/13/143 195/13/143
f 193/24/144 201/24/144 204/9/144 196/9/144
f 196/9/145 204/9/145 205/9/145 197/9/145
f 192/24/146 200/24/146 201/24/146 193/24/146
f 198/15/147 206/15/147 212/26/147 213/25/147
f 62/24/43 64/24/43 200/24/43 192/24/43
f 198/15/148 206/15/148 207/20/148 199/20/148
f 197/9/149 205/9/149 202/9/149 194/9/149
f 199/20/46 207/20/46 65/27/46 63/27/46
f 189/20/47 199/20/47 63/27/47 59/27/47
f 161/24/48 191/10/48 61/19/48 50/24/48
f 185/22/49 186/20/49 56/27/49 55/28/49
f 183/2/50 185/2/50 55/23/50 53/23/50
f 186/20/51 188/20/51 58/27/51 56/27/51
f 188/20/52 189/20/52 59/27/52 58/27/52
f 208/11/150 164/3/150 163/3/150 167/4/150 211/14/150
f 210/12/151 168/15/151 164/3/151 208/11/151
f 209/16/152 176/13/152 210/12/152
f 212/26/153 203/13/153 195/13/153 213/25/153
f 213/25/154 195/13/154 176/13/154 209/16/154
f 132/29/155 253/32/155 220/31/155 89/30/155
f 220/31/156 222/35/156 221/34/156 219/33/156
f 253/32/157 254/36/157 222/35/157 220/31/157
f 222/35/158 224/38/158 223/37/158 221/34/158
f 254/36/159 255/39/159 224/38/159 222/35/159
f 224/38/160 226/41/160 225/40/160 223/37/160
f 255/39/161 256/42/161 226/41/161 224/38/161
f 88/43/162 219/33/162 79/45/162 77/44/162
f 226/41/163 228/47/163 227/46/163 225/40/163
f 219/33/164 221/34/164 81/48/164 79/45/164
f 256/42/165 257/49/165 228/47/165 226/41/165
f 221/34/166 223/37/166 83/50/166 81/48/166
f 228/47/167 73/52/167 72/51/167 227/46/167
f 223/37/168 225/40/168 85/53/168 83/50/168
f 257/49/169 137/54/169 73/52/169 228/47/169
f 225/40/170 227/46/170 87/55/170 85/53/170
f 89/30/171 220/31/171 219/33/171 88/43/171
f 227/46/172 72/51/172 75/56/172 87/55/172
f 216/57/173 264/57/173 265/58/173 217/58/173
f 107/24/77 232/24/77 231/24/77 106/24/77
f 104/24/92 229/24/92 231/24/92 106/24/92
f 105/24/79 230/24/79 229/24/79 104/24/79
f 107/24/91 232/24/91 230/24/91 105/24/91
f 229/24/89 233/24/89 235/24/89 231/24/89
f 230/24/79 234/24/79 233/24/79 229/24/79
f 232/24/90 236/24/90 234/24/90 230/24/90
f 232/24/79 236/24/79 235/24/79 231/24/79
f 236/24/87 240/24/87 238/24/87 234/24/87
f 236/24/79 240/24/79 239/24/79 235/24/79
f 233/24/88 237/24/88 239/24/88 235/24/88
f 234/24/77 238/24/77 237/24/77 233/24/77
f 237/24/86 241/24/86 243/24/86 239/24/86
f 238/24/77 242/24/77 241/24/77 237/24/77
f 240/24/85 244/24/85 242/24/85 238/24/85
f 240/24/77 244/24/77 243/24/77 239/24/77
f 241/24/83 245/24/83 247/24/83 243/24/83
f 242/24/77 246/24/77 245/24/77 241/24/77
f 244/24/84 248/24/84 246/24/84 242/24/84
f 244/24/77 248/24/77 247/24/77 243/24/77
f 248/24/81 252/24/81 250/24/81 246/24/81
f 248/24/77 252/24/77 251/24/77 247/24/77
f 245/24/82 249/24/82 251/24/82 247/24/82
f 246/24/77 250/24/77 249/24/77 245/24/77
f 249/24/80 100/24/80 102/24/80 251/24/80
f 250/24/77 101/24/77 100/24/77 249/24/77
f 252/24/78 103/24/78 101/24/78 250/24/78
f 252/24/77 103/24/77 102/24/77 251/24/77
f 218/59/93 260/59/93 258/58/93 217/58/93
f 257/49/94 261/49/94 144/54/94 137/54/94
f 215/60/174 216/61/174 255/39/174 254/36/174
f 214/62/175 215/60/175 254/36/175 253/32/175
f 76/63/176 214/62/176 253/32/176 132/29/176
f 260/64/177 139/65/177 144/54/177 261/49/177
f 258/66/178 260/64/178 261/49/178 259/42/178
f 216/61/179 258/61/179 259/39/179 255/39/179
f 256/42/94 259/42/94 261/49/94 257/49/94
f 217/58/94 258/58/94 216/57/94
f 255/39/94 259/39/94 256/42/94
f 74/67/93 139/67/93 260/59/93 218/59/93
f 146/63/180 153/63/180 267/62/180 262/62/180
f 214/62/181 262/62/181 263/60/181 215/60/181
f 217/58/182 265/58/182 266/59/182 218/59/182
f 215/60/183 263/60/183 264/61/183 216/61/183
f 76/63/184 146/63/184 262/62/184 214/62/184
f 218/59/185 266/59/185 145/67/185 74/67/185
f 265/58/186 270/58/186 271/59/186 266/59/186
f 262/62/187 267/62/187 268/60/187 263/60/187
f 266/59/188 271/59/188 152/67/188 145/67/188
f 263/60/189 268/60/189 269/61/189 264/61/189
f 264/57/190 269/57/190 270/58/190 265/58/190
