# Blender 4.5.4 LTS
# www.blender.org
mtllib Light.mtl
o Cylinder
v -19.778137 8.536190 -10.936026
v -19.778137 8.536190 -0.936026
v -18.996084 9.084671 0.295703
v -18.996084 9.084672 -12.167758
v -18.875099 9.536190 0.295703
v -18.875101 9.536190 -12.167758
v -18.996084 9.987708 0.295703
v -18.996084 9.987709 -12.167757
v -19.778137 10.439227 0.295705
v -19.326618 10.318243 0.295704
v -19.326618 10.318243 -12.167757
v -19.778137 10.439227 -12.167756
v -19.778137 10.536190 -10.936026
v -19.778137 10.536190 -0.936026
v -19.278137 10.402216 -10.936027
v -19.278137 10.402215 -0.936027
v -18.912111 10.036190 -10.936028
v -18.912111 10.036190 -0.936028
v -18.778137 9.536190 -10.936028
v -18.778137 9.536190 -0.936028
v -18.912111 9.036190 -10.936028
v -18.912111 9.036190 -0.936028
v -19.278137 8.670165 -10.936027
v -19.278137 8.670164 -0.936027
v -19.326618 8.754137 -12.167757
v -19.326618 8.754137 0.295704
v -19.778137 8.633153 -12.167757
v -19.778137 8.633153 0.295704
v -19.778137 8.974238 0.596375
v -19.778137 10.098142 0.596375
v -19.778137 10.098142 -12.468428
v -19.778137 8.974238 -12.468428
v -19.497162 9.049525 -12.468428
v -19.497162 9.049525 0.596375
v -19.291471 9.255214 0.596375
v -19.216185 9.536190 0.596375
v -19.291473 9.255215 -12.468428
v -19.216187 9.536190 -12.468428
v -19.291473 9.817166 -12.468428
v -19.291471 9.817165 0.596375
v -19.497162 10.022855 0.596375
v -19.497162 10.022855 -12.468428
v -19.778137 10.560570 1.063972
v -19.778137 10.960569 1.063972
v -19.778137 10.560570 -12.936028
v -19.778137 10.960570 -12.936028
v -19.291185 10.560570 1.063972
v -19.291185 10.960569 1.063972
v -19.291185 10.560570 -12.936028
v -19.291185 10.960570 -12.936028
v -19.878136 10.560570 1.063972
v -19.878136 10.960569 1.063972
v -19.878136 10.560570 -12.936028
v -19.878136 10.960570 -12.936028
v -19.778137 8.261300 1.063972
v -19.778137 8.261300 -12.936028
v -19.878136 8.261300 1.063972
v -19.878136 8.261300 -12.936028
vn 0.9631 -0.2581 0.0758
vn 0.7051 0.7051 -0.0758
vn 0.9631 -0.2581 -0.0758
vn 0.1745 -0.6511 -0.7386
vn 0.6511 0.1745 0.7386
vn -1.0000 -0.0000 -0.0000
vn 0.2588 0.9659 -0.0000
vn 0.7071 0.7071 -0.0000
vn 0.9659 0.2588 -0.0000
vn 0.9659 -0.2588 -0.0000
vn 0.7071 -0.7071 -0.0000
vn 0.2588 -0.9659 -0.0000
vn 0.2581 -0.9631 0.0758
vn 0.7051 0.7051 0.0758
vn 0.2581 0.9631 0.0758
vn 0.7051 -0.7051 -0.0758
vn 0.7051 -0.7051 0.0758
vn 0.9631 0.2581 -0.0758
vn 0.9631 0.2581 0.0758
vn 0.2581 0.9631 -0.0758
vn 0.2581 -0.9631 -0.0758
vn -0.0000 -0.0000 1.0000
vn -0.0000 -0.0000 -1.0000
vn 0.4767 0.4767 0.7386
vn 0.1745 -0.6511 0.7386
vn 0.1745 0.6511 0.7386
vn 0.4767 -0.4767 0.7386
vn 0.4767 0.4767 -0.7386
vn 0.6511 -0.1745 0.7386
vn 0.1745 0.6511 -0.7386
vn 0.4767 -0.4767 -0.7386
vn 0.6511 -0.1745 -0.7386
vn 0.6511 0.1745 -0.7386
vn 1.0000 -0.0000 -0.0000
vn -0.0000 -1.0000 -0.0000
vn -0.0000 1.0000 -0.0000
vt 0.166667 1.000000
vt 0.250000 1.000000
vt 0.416667 0.500000
vt 0.333333 0.500000
vt 0.250000 0.500000
vt 0.166667 0.500000
vt 0.083333 0.500000
vt 0.000000 0.500000
vt 0.333333 1.000000
vt 0.750000 0.490000
vt 0.250000 0.490000
vt 0.500000 1.000000
vt 0.750000 0.010000
vt 0.500000 0.500000
vt 0.416667 1.000000
vt 0.083333 1.000000
vt 0.000000 1.000000
vt 0.250000 0.010000
vt 0.130000 0.457846
vt 0.042154 0.370000
vt 0.010000 0.250000
vt 0.042154 0.130000
vt 0.130000 0.042154
vt 0.630000 0.042154
vt 0.542154 0.130000
vt 0.510000 0.250000
vt 0.542154 0.370000
vt 0.630000 0.457846
vt 0.625000 0.250000
vt 0.375000 0.250000
vt 0.625000 0.500000
vt 0.375000 0.500000
vt 0.625000 0.750000
vt 0.375000 0.750000
vt 0.625000 1.000000
vt 0.375000 1.000000
vt 0.125000 0.500000
vt 0.125000 0.750000
vt 0.875000 0.500000
vt 0.875000 0.750000
vt 0.375000 0.000000
vt 0.625000 0.000000
s 0
usemtl Material.003
f 22/1/1 20/2/1 5/2/1 3/1/1
f 15/3/2 17/4/2 8/4/2 11/3/2
f 19/5/3 21/6/3 4/6/3 6/5/3
f 25/7/4 27/8/4 32/8/4 33/7/4
f 5/2/5 7/9/5 40/9/5 36/2/5
f 1/10/6 2/11/6 14/12/6 13/13/6
f 13/14/7 14/12/7 16/15/7 15/3/7
f 15/3/8 16/15/8 18/9/8 17/4/8
f 17/4/9 18/9/9 20/2/9 19/5/9
f 19/5/10 20/2/10 22/1/10 21/6/10
f 1/10/6 13/13/6 12/13/6 27/10/6
f 21/6/11 22/1/11 24/16/11 23/7/11
f 23/7/12 24/16/12 2/17/12 1/8/12
f 2/17/13 24/16/13 26/16/13 28/17/13
f 18/9/14 16/15/14 10/15/14 7/9/14
f 14/12/6 2/11/6 28/11/6 9/12/6
f 16/15/15 14/12/15 9/12/15 10/15/15
f 21/6/16 23/7/16 25/7/16 4/6/16
f 24/16/17 22/1/17 3/1/17 26/16/17
f 17/4/18 19/5/18 6/5/18 8/4/18
f 20/2/19 18/9/19 7/9/19 5/2/19
f 13/14/20 15/3/20 11/3/20 12/14/20
f 23/7/21 1/8/21 27/8/21 25/7/21
f 30/18/22 29/11/22 34/19/22 35/20/22 36/21/22 40/22/22 41/23/22
f 32/10/23 31/13/23 42/24/23 39/25/23 38/26/23 37/27/23 33/28/23
f 7/9/24 10/15/24 41/15/24 40/9/24
f 28/17/25 26/16/25 34/16/25 29/17/25
f 10/15/26 9/12/26 30/12/26 41/15/26
f 26/16/27 3/1/27 35/1/27 34/16/27
f 9/12/6 28/11/6 29/11/6 30/12/6
f 11/3/28 8/4/28 39/4/28 42/3/28
f 3/1/29 5/2/29 36/2/29 35/1/29
f 12/14/30 11/3/30 42/3/30 31/14/30
f 4/6/31 25/7/31 33/7/31 37/6/31
f 6/5/32 4/6/32 37/6/32 38/5/32
f 8/4/33 6/5/33 38/5/33 39/4/33
f 27/10/6 12/13/6 31/13/6 32/10/6
usemtl Material.006
f 46/29/23 45/30/23 53/30/23 54/29/23
f 45/30/23 46/29/23 50/31/23 49/32/23
f 49/32/34 50/31/34 48/33/34 47/34/34
f 47/34/22 48/33/22 44/35/22 43/36/22
f 45/37/35 49/32/35 47/34/35 43/38/35
f 50/31/36 46/39/36 44/40/36 48/33/36
f 51/41/6 52/42/6 54/29/6 53/30/6
f 43/36/22 44/35/22 52/35/22 51/36/22
f 44/40/36 46/39/36 54/39/36 52/40/36
f 53/30/23 45/30/23 56/30/23 58/30/23
f 56/37/35 55/38/35 57/38/35 58/37/35
f 51/41/6 53/30/6 58/30/6 57/41/6
f 43/36/22 51/36/22 57/36/22 55/36/22
f 45/37/34 43/38/34 55/38/34 56/37/34
