# Blender 4.5.4 LTS
# www.blender.org
mtllib Shelf.mtl
o Rack
v -19.367285 -4.979876 6.878685
v -19.367285 9.903616 6.878685
v -18.871674 -4.979876 6.812576
v -18.871674 9.903616 6.812576
v -18.566616 -4.979876 7.208732
v -18.566616 9.903616 7.208732
v -18.757170 -4.979876 7.670998
v -18.757170 9.903616 7.670998
v -19.252779 -4.979876 7.737107
v -19.252779 9.903616 7.737107
v -19.557837 -4.979876 7.340951
v -19.557837 9.903616 7.340951
v -10.215562 -4.979876 18.763378
v -10.215562 9.903616 18.763378
v -9.719951 -4.979876 18.697271
v -9.719951 9.903616 18.697271
v -9.414893 -4.979876 19.093428
v -9.414893 9.903616 19.093428
v -9.605447 -4.979876 19.555693
v -9.605447 9.903616 19.555693
v -10.101057 -4.979876 19.621803
v -10.101057 9.903616 19.621803
v -10.406115 -4.979876 19.225647
v -10.406115 9.903616 19.225647
v -14.613407 -4.979876 3.217996
v -14.613407 9.903616 3.217996
v -14.117796 -4.979876 3.151886
v -14.117796 9.903616 3.151886
v -13.812738 -4.979876 3.548043
v -13.812738 9.903616 3.548043
v -14.003292 -4.979876 4.010309
v -14.003292 9.903616 4.010309
v -14.498901 -4.979876 4.076418
v -14.498901 9.903616 4.076418
v -14.803959 -4.979876 3.680261
v -14.803959 9.903616 3.680261
v -5.461683 -4.979876 15.102690
v -5.461683 9.903616 15.102690
v -4.966074 -4.979876 15.036582
v -4.966074 9.903616 15.036582
v -4.661016 -4.979876 15.432738
v -4.661016 9.903616 15.432738
v -4.851568 -4.979876 15.895003
v -4.851568 9.903616 15.895003
v -5.347179 -4.979876 15.961113
v -5.347179 9.903616 15.961113
v -5.652237 -4.979876 15.564957
v -5.652237 9.903616 15.564957
v -9.783186 -1.115291 19.388802
v -9.783186 -0.553653 19.388802
v -19.251352 -1.115291 7.093165
v -19.251352 -0.553653 7.093165
v -4.967497 -1.115291 15.680515
v -4.967497 -0.553653 15.680515
v -14.435663 -1.115291 3.384878
v -14.435663 -0.553653 3.384878
v -9.783186 3.669260 19.388802
v -9.783186 4.230898 19.388802
v -19.251352 3.669260 7.093165
v -19.251352 4.230898 7.093165
v -4.967497 3.669260 15.680515
v -4.967497 4.230898 15.680515
v -14.435663 3.669260 3.384878
v -14.435663 4.230898 3.384878
v -9.783186 8.343176 19.388802
v -9.783186 8.904814 19.388802
v -19.251352 8.343176 7.093165
v -19.251352 8.904814 7.093165
v -4.967497 8.343176 15.680515
v -4.967497 8.904814 15.680515
v -14.435663 8.343176 3.384878
v -14.435663 8.904814 3.384878
vn -0.1322 -0.0000 -0.9912
vn 0.7923 -0.0000 -0.6101
vn 0.9245 -0.0000 0.3811
vn 0.1322 -0.0000 0.9912
vn -0.0000 1.0000 -0.0000
vn -0.7923 -0.0000 0.6101
vn -0.9245 -0.0000 -0.3811
vn -0.0000 -1.0000 -0.0000
vn -0.6101 -0.0000 -0.7923
vn 0.6101 -0.0000 0.7923
vt 1.000000 0.500000
vt 1.000000 1.000000
vt 0.833333 1.000000
vt 0.833333 0.500000
vt 0.666667 1.000000
vt 0.666667 0.500000
vt 0.500000 1.000000
vt 0.500000 0.500000
vt 0.333333 1.000000
vt 0.333333 0.500000
vt 0.457846 0.370000
vt 0.250000 0.490000
vt 0.042154 0.370000
vt 0.042154 0.130000
vt 0.250000 0.010000
vt 0.457846 0.130000
vt 0.166667 1.000000
vt 0.166667 0.500000
vt -0.000000 1.000000
vt -0.000000 0.500000
vt 0.750000 0.490000
vt 0.957846 0.370000
vt 0.957846 0.130000
vt 0.750000 0.010000
vt 0.542154 0.130000
vt 0.542154 0.370000
vt 0.375000 0.000000
vt 0.625000 0.000000
vt 0.625000 0.250000
vt 0.375000 0.250000
vt 0.625000 0.500000
vt 0.375000 0.500000
vt 0.625000 0.750000
vt 0.375000 0.750000
vt 0.625000 1.000000
vt 0.375000 1.000000
vt 0.125000 0.500000
vt 0.125000 0.750000
vt 0.875000 0.500000
vt 0.875000 0.750000
s 0
usemtl Carpet
f 1/1/1 2/2/1 4/3/1 3/4/1
f 3/4/2 4/3/2 6/5/2 5/6/2
f 5/6/3 6/5/3 8/7/3 7/8/3
f 7/8/4 8/7/4 10/9/4 9/10/4
f 4/11/5 2/12/5 12/13/5 10/14/5 8/15/5 6/16/5
f 9/10/6 10/9/6 12/17/6 11/18/6
f 11/18/7 12/17/7 2/19/7 1/20/7
f 1/21/8 3/22/8 5/23/8 7/24/8 9/25/8 11/26/8
f 13/1/1 14/2/1 16/3/1 15/4/1
f 15/4/2 16/3/2 18/5/2 17/6/2
f 17/6/3 18/5/3 20/7/3 19/8/3
f 19/8/4 20/7/4 22/9/4 21/10/4
f 16/11/5 14/12/5 24/13/5 22/14/5 20/15/5 18/16/5
f 21/10/6 22/9/6 24/17/6 23/18/6
f 23/18/7 24/17/7 14/19/7 13/20/7
f 13/21/8 15/22/8 17/23/8 19/24/8 21/25/8 23/26/8
f 25/1/1 26/2/1 28/3/1 27/4/1
f 27/4/2 28/3/2 30/5/2 29/6/2
f 29/6/3 30/5/3 32/7/3 31/8/3
f 31/8/4 32/7/4 34/9/4 33/10/4
f 28/11/5 26/12/5 36/13/5 34/14/5 32/15/5 30/16/5
f 33/10/6 34/9/6 36/17/6 35/18/6
f 35/18/7 36/17/7 26/19/7 25/20/7
f 25/21/8 27/22/8 29/23/8 31/24/8 33/25/8 35/26/8
f 37/1/1 38/2/1 40/3/1 39/4/1
f 39/4/2 40/3/2 42/5/2 41/6/2
f 41/6/3 42/5/3 44/7/3 43/8/3
f 43/8/4 44/7/4 46/9/4 45/10/4
f 40/11/5 38/12/5 48/13/5 46/14/5 44/15/5 42/16/5
f 45/10/6 46/9/6 48/17/6 47/18/6
f 47/18/7 48/17/7 38/19/7 37/20/7
f 37/21/8 39/22/8 41/23/8 43/24/8 45/25/8 47/26/8
f 49/27/6 50/28/6 52/29/6 51/30/6
f 51/30/9 52/29/9 56/31/9 55/32/9
f 55/32/2 56/31/2 54/33/2 53/34/2
f 53/34/10 54/33/10 50/35/10 49/36/10
f 51/37/8 55/32/8 53/34/8 49/38/8
f 56/31/5 52/39/5 50/40/5 54/33/5
f 57/27/6 58/28/6 60/29/6 59/30/6
f 59/30/9 60/29/9 64/31/9 63/32/9
f 63/32/2 64/31/2 62/33/2 61/34/2
f 61/34/10 62/33/10 58/35/10 57/36/10
f 59/37/8 63/32/8 61/34/8 57/38/8
f 64/31/5 60/39/5 58/40/5 62/33/5
f 65/27/6 66/28/6 68/29/6 67/30/6
f 67/30/9 68/29/9 72/31/9 71/32/9
f 71/32/2 72/31/2 70/33/2 69/34/2
f 69/34/10 70/33/10 66/35/10 65/36/10
f 67/37/8 71/32/8 69/34/8 65/38/8
f 72/31/5 68/39/5 66/40/5 70/33/5
