# Blender 4.5.4 LTS
# www.blender.org
mtllib Stairs.mtl
o Cube
v -19.799999 -4.600000 -33.748985
v -19.799999 -3.300000 -33.348984
v -19.799999 -5.000000 -35.148983
v -19.799999 -3.300000 -35.148983
v -13.799999 -4.600000 -33.748985
v -13.799999 -3.300000 -33.348984
v -13.799999 -5.000000 -35.148983
v -13.799999 -3.300000 -35.148983
v -19.799999 -4.900000 -34.448982
v -19.799999 -3.300000 -34.448982
v -13.799999 -4.900000 -34.448982
v -13.799999 -3.300000 -34.448982
v -19.799999 -3.900000 -33.448982
v -19.799999 -3.900000 -35.148983
v -13.799999 -3.900000 -35.148983
v -13.799999 -3.900000 -33.448982
v -13.799999 -3.900000 -34.448982
v -19.799999 -3.900000 -34.448982
v -19.799999 -3.480000 -33.378983
v -19.799999 -3.480000 -35.148983
v -13.799999 -3.480000 -35.148983
v -13.799999 -3.480000 -33.378983
v -13.799999 -3.480000 -34.448982
v -19.799999 -3.480000 -34.448982
v -19.799999 -3.300000 -35.348984
v -13.799999 -3.300000 -35.348984
v -19.799999 -3.480000 -35.348984
v -13.799999 -3.480000 -35.348984
v -19.799999 -2.600000 -31.748983
v -19.799999 -1.300000 -31.348984
v -19.799999 -3.000000 -33.148983
v -19.799999 -1.300000 -33.148983
v -13.799999 -2.600000 -31.748983
v -13.799999 -1.300000 -31.348984
v -13.799999 -3.000000 -33.148983
v -13.799999 -1.300000 -33.148983
v -19.799999 -2.900000 -32.448982
v -19.799999 -1.300000 -32.448982
v -13.799999 -2.900000 -32.448982
v -13.799999 -1.300000 -32.448982
v -19.799999 -1.900000 -31.448984
v -19.799999 -1.900000 -33.148983
v -13.799999 -1.900000 -33.148983
v -13.799999 -1.900000 -31.448984
v -13.799999 -1.900000 -32.448982
v -19.799999 -1.900000 -32.448982
v -19.799999 -1.480000 -31.378984
v -19.799999 -1.480000 -33.148983
v -13.799999 -1.480000 -33.148983
v -13.799999 -1.480000 -31.378984
v -13.799999 -1.480000 -32.448982
v -19.799999 -1.480000 -32.448982
v -19.799999 -1.300000 -33.348984
v -13.799999 -1.300000 -33.348984
v -19.799999 -1.480000 -33.348984
v -13.799999 -1.480000 -33.348984
v -19.799999 -0.600000 -29.748983
v -19.799999 0.700000 -29.348984
v -19.799999 -1.000000 -31.148983
v -19.799999 0.700000 -31.148983
v -13.799999 -0.600000 -29.748983
v -13.799999 0.700000 -29.348984
v -13.799999 -1.000000 -31.148983
v -13.799999 0.700000 -31.148983
v -19.799999 -0.900000 -30.448984
v -19.799999 0.700000 -30.448984
v -13.799999 -0.900000 -30.448984
v -13.799999 0.700000 -30.448984
v -19.799999 0.100000 -29.448984
v -19.799999 0.100000 -31.148983
v -13.799999 0.100000 -31.148983
v -13.799999 0.100000 -29.448984
v -13.799999 0.100000 -30.448984
v -19.799999 0.100000 -30.448984
v -19.799999 0.520000 -29.378983
v -19.799999 0.520000 -31.148983
v -13.799999 0.520000 -31.148983
v -13.799999 0.520000 -29.378983
v -13.799999 0.520000 -30.448984
v -19.799999 0.520000 -30.448984
v -19.799999 0.700000 -31.348984
v -13.799999 0.700000 -31.348984
v -19.799999 0.520000 -31.348984
v -13.799999 0.520000 -31.348984
v -19.799999 1.400000 -27.748983
v -19.799999 2.700000 -27.348984
v -19.799999 1.000000 -29.148983
v -19.799999 2.700000 -29.148983
v -13.799999 1.400000 -27.748983
v -13.799999 2.700000 -27.348984
v -13.799999 1.000000 -29.148983
v -13.799999 2.700000 -29.148983
v -19.799999 1.100000 -28.448984
v -19.799999 2.700000 -28.448984
v -13.799999 1.100000 -28.448984
v -13.799999 2.700000 -28.448984
v -19.799999 2.100000 -27.448984
v -19.799999 2.100000 -29.148983
v -13.799999 2.100000 -29.148983
v -13.799999 2.100000 -27.448984
v -13.799999 2.100000 -28.448984
v -19.799999 2.100000 -28.448984
v -19.799999 2.520000 -27.378983
v -19.799999 2.520000 -29.148983
v -13.799999 2.520000 -29.148983
v -13.799999 2.520000 -27.378983
v -13.799999 2.520000 -28.448984
v -19.799999 2.520000 -28.448984
v -19.799999 2.700000 -29.348984
v -13.799999 2.700000 -29.348984
v -19.799999 2.520000 -29.348984
v -13.799999 2.520000 -29.348984
v -19.799999 3.400000 -25.748983
v -19.799999 4.700000 -25.348984
v -19.799999 3.000000 -27.148983
v -19.799999 4.700000 -27.148983
v -13.799999 3.400000 -25.748983
v -13.799999 4.700000 -25.348984
v -13.799999 3.000000 -27.148983
v -13.799999 4.700000 -27.148983
v -19.799999 3.100000 -26.448984
v -19.799999 4.700000 -26.448984
v -13.799999 3.100000 -26.448984
v -13.799999 4.700000 -26.448984
v -19.799999 4.100000 -25.448984
v -19.799999 4.100000 -27.148983
v -13.799999 4.100000 -27.148983
v -13.799999 4.100000 -25.448984
v -13.799999 4.100000 -26.448984
v -19.799999 4.100000 -26.448984
v -19.799999 4.520000 -25.378983
v -19.799999 4.520000 -27.148983
v -13.799999 4.520000 -27.148983
v -13.799999 4.520000 -25.378983
v -13.799999 4.520000 -26.448984
v -19.799999 4.520000 -26.448984
v -19.799999 4.700000 -27.348984
v -13.799999 4.700000 -27.348984
v -19.799999 4.520000 -27.348984
v -13.799999 4.520000 -27.348984
v -19.799999 5.400000 -23.748983
v -19.799999 6.700000 -23.348984
v -19.799999 5.000000 -25.148983
v -19.799999 6.700000 -25.148983
v -13.799999 5.400000 -23.748983
v -13.799999 6.700000 -23.348984
v -13.799999 5.000000 -25.148983
v -13.799999 6.700000 -25.148983
v -19.799999 5.100000 -24.448984
v -19.799999 6.700000 -24.448984
v -13.799999 5.100000 -24.448984
v -13.799999 6.700000 -24.448984
v -19.799999 6.100000 -23.448984
v -19.799999 6.100000 -25.148983
v -13.799999 6.100000 -25.148983
v -13.799999 6.100000 -23.448984
v -13.799999 6.100000 -24.448984
v -19.799999 6.100000 -24.448984
v -19.799999 6.520000 -23.378983
v -19.799999 6.520000 -25.148983
v -13.799999 6.520000 -25.148983
v -13.799999 6.520000 -23.378983
v -13.799999 6.520000 -24.448984
v -19.799999 6.520000 -24.448984
v -19.799999 6.700000 -25.348984
v -13.799999 6.700000 -25.348984
v -19.799999 6.520000 -25.348984
v -13.799999 6.520000 -25.348984
v -19.799999 7.400000 -21.748983
v -19.799999 8.700000 -21.348984
v -19.799999 7.000000 -23.148983
v -19.799999 8.700000 -23.148983
v -13.799999 7.400000 -21.748983
v -13.799999 8.700000 -21.348984
v -13.799999 7.000000 -23.148983
v -13.799999 8.700000 -23.148983
v -19.799999 7.100000 -22.448984
v -19.799999 8.700000 -22.448984
v -13.799999 7.100000 -22.448984
v -13.799999 8.700000 -22.448984
v -19.799999 8.100000 -21.448984
v -19.799999 8.100000 -23.148983
v -13.799999 8.100000 -23.148983
v -13.799999 8.100000 -21.448984
v -13.799999 8.100000 -22.448984
v -19.799999 8.100000 -22.448984
v -19.799999 8.520000 -21.378983
v -19.799999 8.520000 -23.148983
v -13.799999 8.520000 -23.148983
v -13.799999 8.520000 -21.378983
v -13.799999 8.520000 -22.448984
v -19.799999 8.520000 -22.448984
v -19.799999 8.700000 -23.348984
v -13.799999 8.700000 -23.348984
v -19.799999 8.520000 -23.348984
v -13.799999 8.520000 -23.348984
v -19.799999 9.400000 -19.748983
v -19.799999 10.700000 -19.348984
v -19.799999 9.000000 -21.148983
v -19.799999 10.700000 -21.148983
v -13.799999 9.400000 -19.748983
v -13.799999 10.700000 -19.348984
v -13.799999 9.000000 -21.148983
v -13.799999 10.700000 -21.148983
v -19.799999 9.100000 -20.448984
v -19.799999 10.700000 -20.448984
v -13.799999 9.100000 -20.448984
v -13.799999 10.700000 -20.448984
v -19.799999 10.100000 -19.448984
v -19.799999 10.100000 -21.148983
v -13.799999 10.100000 -21.148983
v -13.799999 10.100000 -19.448984
v -13.799999 10.100000 -20.448984
v -19.799999 10.100000 -20.448984
v -19.799999 10.520000 -19.378983
v -19.799999 10.520000 -21.148983
v -13.799999 10.520000 -21.148983
v -13.799999 10.520000 -19.378983
v -13.799999 10.520000 -20.448984
v -19.799999 10.520000 -20.448984
v -19.799999 10.700000 -21.348984
v -13.799999 10.700000 -21.348984
v -19.799999 10.520000 -21.348984
v -13.799999 10.520000 -21.348984
v -19.799999 11.400000 -17.748983
v -19.799999 12.700001 -17.348984
v -19.799999 11.000000 -19.148983
v -19.799999 12.700001 -19.148983
v -13.799999 11.400000 -17.748983
v -13.799999 12.700001 -17.348984
v -13.799999 11.000000 -19.148983
v -13.799999 12.700001 -19.148983
v -19.799999 11.100000 -18.448984
v -19.799999 12.700001 -18.448984
v -13.799999 11.100000 -18.448984
v -13.799999 12.700001 -18.448984
v -19.799999 12.100000 -17.448984
v -19.799999 12.100000 -19.148983
v -13.799999 12.100000 -19.148983
v -13.799999 12.100000 -17.448984
v -13.799999 12.100000 -18.448984
v -19.799999 12.100000 -18.448984
v -19.799999 12.520000 -17.378983
v -19.799999 12.520000 -19.148983
v -13.799999 12.520000 -19.148983
v -13.799999 12.520000 -17.378983
v -13.799999 12.520000 -18.448984
v -19.799999 12.520000 -18.448984
v -19.799999 12.700001 -19.348984
v -13.799999 12.700001 -19.348984
v -19.799999 12.520000 -19.348984
v -13.799999 12.520000 -19.348984
v -19.799999 13.400000 -15.748983
v -19.799999 14.700001 -15.348984
v -19.799999 13.000000 -17.148983
v -19.799999 14.700001 -17.148983
v -13.799999 13.400000 -15.748983
v -13.799999 14.700001 -15.348984
v -13.799999 13.000000 -17.148983
v -13.799999 14.700001 -17.148983
v -19.799999 13.100000 -16.448984
v -19.799999 14.700001 -16.448984
v -13.799999 13.100000 -16.448984
v -13.799999 14.700001 -16.448984
v -19.799999 14.100000 -15.448984
v -19.799999 14.100000 -17.148983
v -13.799999 14.100000 -17.148983
v -13.799999 14.100000 -15.448984
v -13.799999 14.100000 -16.448984
v -19.799999 14.100000 -16.448984
v -19.799999 14.520000 -15.378983
v -19.799999 14.520000 -17.148983
v -13.799999 14.520000 -17.148983
v -13.799999 14.520000 -15.378983
v -13.799999 14.520000 -16.448984
v -19.799999 14.520000 -16.448984
v -19.799999 14.700001 -17.348984
v -13.799999 14.700001 -17.348984
v -19.799999 14.520000 -17.348984
v -13.799999 14.520000 -17.348984
v -14.099999 14.191429 -16.076864
v -14.099999 15.015694 -16.076864
v -14.099999 -4.232836 -34.501129
v -14.099999 -3.808571 -34.925392
v -13.499999 14.191429 -16.076864
v -13.499999 15.015694 -16.076864
v -13.499999 -4.232836 -34.501129
v -13.499999 -3.808571 -34.925392
v -14.099999 19.965698 -16.076864
v -14.099999 1.141433 -34.925392
v -13.499999 1.141433 -34.925392
v -13.499999 19.965698 -16.076864
vn -1.0000 -0.0000 -0.0000
vn -0.0000 -1.0000 -0.0000
vn 1.0000 -0.0000 -0.0000
vn -0.0000 -0.1644 0.9864
vn -0.0000 -0.9191 0.3939
vn -0.0000 1.0000 -0.0000
vn -0.0000 -0.9899 0.1414
vn -0.0000 -0.3939 0.9191
vn -0.0000 -0.0000 -1.0000
vn -0.0000 -0.7071 -0.7071
vn -0.0000 -0.0000 1.0000
vn -0.0000 -0.7071 0.7071
vn -0.0000 0.7076 -0.7067
vt 0.587500 0.125000
vt 0.625000 0.125000
vt 0.625000 0.250000
vt 0.587500 0.250000
vt 0.587500 0.500000
vt 0.587500 0.625000
vt 0.625000 0.625000
vt 0.625000 0.750000
vt 0.587500 0.750000
vt 0.625000 1.000000
vt 0.587500 1.000000
vt 0.125000 0.625000
vt 0.375000 0.625000
vt 0.375000 0.750000
vt 0.125000 0.750000
vt 0.875000 0.625000
vt 0.875000 0.750000
vt 0.625000 0.500000
vt 0.875000 0.500000
vt 0.125000 0.500000
vt 0.375000 0.500000
vt 0.587500 0.000000
vt 0.625000 0.000000
vt 0.375000 0.000000
vt 0.500000 0.000000
vt 0.500000 0.125000
vt 0.375000 0.125000
vt 0.500000 0.500000
vt 0.500000 0.625000
vt 0.500000 0.750000
vt 0.500000 1.000000
vt 0.375000 1.000000
vt 0.375000 0.250000
vt 0.500000 0.250000
s 0
usemtl Material.007
f 24/1/1 10/2/1 4/3/1 20/4/1
f 21/5/2 20/4/2 27/4/2 28/5/2
f 23/6/3 12/7/3 6/8/3 22/9/3
f 22/9/4 6/8/4 2/10/4 19/11/4
f 9/12/5 11/13/5 5/14/5 1/15/5
f 12/7/6 10/16/6 2/17/6 6/8/6
f 8/18/6 4/19/6 10/16/6 12/7/6
f 3/20/7 7/21/7 11/13/7 9/12/7
f 21/5/3 8/18/3 12/7/3 23/6/3
f 19/22/1 2/23/1 10/2/1 24/1/1
f 1/24/1 13/25/1 18/26/1 9/27/1
f 7/21/3 15/28/3 17/29/3 11/13/3
f 5/14/8 16/30/8 13/31/8 1/32/8
f 11/13/3 17/29/3 16/30/3 5/14/3
f 3/33/9 14/34/9 15/28/9 7/21/9
f 9/27/1 18/26/1 14/34/1 3/33/1
f 13/25/1 19/22/1 24/1/1 18/26/1
f 15/28/3 21/5/3 23/6/3 17/29/3
f 16/30/4 22/9/4 19/11/4 13/31/4
f 17/29/3 23/6/3 22/9/3 16/30/3
f 14/34/9 20/4/9 21/5/9 15/28/9
f 18/26/1 24/1/1 20/4/1 14/34/1
f 27/4/9 25/3/9 26/18/9 28/5/9
f 4/19/6 8/18/6 26/18/6 25/19/6
f 8/18/3 21/5/3 28/5/3 26/18/3
f 20/4/1 4/3/1 25/3/1 27/4/1
f 52/1/1 38/2/1 32/3/1 48/4/1
f 49/5/2 48/4/2 55/4/2 56/5/2
f 51/6/3 40/7/3 34/8/3 50/9/3
f 50/9/4 34/8/4 30/10/4 47/11/4
f 37/12/5 39/13/5 33/14/5 29/15/5
f 40/7/6 38/16/6 30/17/6 34/8/6
f 36/18/6 32/19/6 38/16/6 40/7/6
f 31/20/7 35/21/7 39/13/7 37/12/7
f 49/5/3 36/18/3 40/7/3 51/6/3
f 47/22/1 30/23/1 38/2/1 52/1/1
f 29/24/1 41/25/1 46/26/1 37/27/1
f 35/21/3 43/28/3 45/29/3 39/13/3
f 33/14/8 44/30/8 41/31/8 29/32/8
f 39/13/3 45/29/3 44/30/3 33/14/3
f 31/33/9 42/34/9 43/28/9 35/21/9
f 37/27/1 46/26/1 42/34/1 31/33/1
f 41/25/1 47/22/1 52/1/1 46/26/1
f 43/28/3 49/5/3 51/6/3 45/29/3
f 44/30/4 50/9/4 47/11/4 41/31/4
f 45/29/3 51/6/3 50/9/3 44/30/3
f 42/34/9 48/4/9 49/5/9 43/28/9
f 46/26/1 52/1/1 48/4/1 42/34/1
f 55/4/9 53/3/9 54/18/9 56/5/9
f 32/19/6 36/18/6 54/18/6 53/19/6
f 36/18/3 49/5/3 56/5/3 54/18/3
f 48/4/1 32/3/1 53/3/1 55/4/1
f 80/1/1 66/2/1 60/3/1 76/4/1
f 77/5/2 76/4/2 83/4/2 84/5/2
f 79/6/3 68/7/3 62/8/3 78/9/3
f 78/9/4 62/8/4 58/10/4 75/11/4
f 65/12/5 67/13/5 61/14/5 57/15/5
f 68/7/6 66/16/6 58/17/6 62/8/6
f 64/18/6 60/19/6 66/16/6 68/7/6
f 59/20/7 63/21/7 67/13/7 65/12/7
f 77/5/3 64/18/3 68/7/3 79/6/3
f 75/22/1 58/23/1 66/2/1 80/1/1
f 57/24/1 69/25/1 74/26/1 65/27/1
f 63/21/3 71/28/3 73/29/3 67/13/3
f 61/14/8 72/30/8 69/31/8 57/32/8
f 67/13/3 73/29/3 72/30/3 61/14/3
f 59/33/9 70/34/9 71/28/9 63/21/9
f 65/27/1 74/26/1 70/34/1 59/33/1
f 69/25/1 75/22/1 80/1/1 74/26/1
f 71/28/3 77/5/3 79/6/3 73/29/3
f 72/30/4 78/9/4 75/11/4 69/31/4
f 73/29/3 79/6/3 78/9/3 72/30/3
f 70/34/9 76/4/9 77/5/9 71/28/9
f 74/26/1 80/1/1 76/4/1 70/34/1
f 83/4/9 81/3/9 82/18/9 84/5/9
f 60/19/6 64/18/6 82/18/6 81/19/6
f 64/18/3 77/5/3 84/5/3 82/18/3
f 76/4/1 60/3/1 81/3/1 83/4/1
f 108/1/1 94/2/1 88/3/1 104/4/1
f 105/5/2 104/4/2 111/4/2 112/5/2
f 107/6/3 96/7/3 90/8/3 106/9/3
f 106/9/4 90/8/4 86/10/4 103/11/4
f 93/12/5 95/13/5 89/14/5 85/15/5
f 96/7/6 94/16/6 86/17/6 90/8/6
f 92/18/6 88/19/6 94/16/6 96/7/6
f 87/20/7 91/21/7 95/13/7 93/12/7
f 105/5/3 92/18/3 96/7/3 107/6/3
f 103/22/1 86/23/1 94/2/1 108/1/1
f 85/24/1 97/25/1 102/26/1 93/27/1
f 91/21/3 99/28/3 101/29/3 95/13/3
f 89/14/8 100/30/8 97/31/8 85/32/8
f 95/13/3 101/29/3 100/30/3 89/14/3
f 87/33/9 98/34/9 99/28/9 91/21/9
f 93/27/1 102/26/1 98/34/1 87/33/1
f 97/25/1 103/22/1 108/1/1 102/26/1
f 99/28/3 105/5/3 107/6/3 101/29/3
f 100/30/4 106/9/4 103/11/4 97/31/4
f 101/29/3 107/6/3 106/9/3 100/30/3
f 98/34/9 104/4/9 105/5/9 99/28/9
f 102/26/1 108/1/1 104/4/1 98/34/1
f 111/4/9 109/3/9 110/18/9 112/5/9
f 88/19/6 92/18/6 110/18/6 109/19/6
f 92/18/3 105/5/3 112/5/3 110/18/3
f 104/4/1 88/3/1 109/3/1 111/4/1
f 136/1/1 122/2/1 116/3/1 132/4/1
f 133/5/2 132/4/2 139/4/2 140/5/2
f 135/6/3 124/7/3 118/8/3 134/9/3
f 134/9/4 118/8/4 114/10/4 131/11/4
f 121/12/5 123/13/5 117/14/5 113/15/5
f 124/7/6 122/16/6 114/17/6 118/8/6
f 120/18/6 116/19/6 122/16/6 124/7/6
f 115/20/7 119/21/7 123/13/7 121/12/7
f 133/5/3 120/18/3 124/7/3 135/6/3
f 131/22/1 114/23/1 122/2/1 136/1/1
f 113/24/1 125/25/1 130/26/1 121/27/1
f 119/21/3 127/28/3 129/29/3 123/13/3
f 117/14/8 128/30/8 125/31/8 113/32/8
f 123/13/3 129/29/3 128/30/3 117/14/3
f 115/33/9 126/34/9 127/28/9 119/21/9
f 121/27/1 130/26/1 126/34/1 115/33/1
f 125/25/1 131/22/1 136/1/1 130/26/1
f 127/28/3 133/5/3 135/6/3 129/29/3
f 128/30/4 134/9/4 131/11/4 125/31/4
f 129/29/3 135/6/3 134/9/3 128/30/3
f 126/34/9 132/4/9 133/5/9 127/28/9
f 130/26/1 136/1/1 132/4/1 126/34/1
f 139/4/9 137/3/9 138/18/9 140/5/9
f 116/19/6 120/18/6 138/18/6 137/19/6
f 120/18/3 133/5/3 140/5/3 138/18/3
f 132/4/1 116/3/1 137/3/1 139/4/1
f 164/1/1 150/2/1 144/3/1 160/4/1
f 161/5/2 160/4/2 167/4/2 168/5/2
f 163/6/3 152/7/3 146/8/3 162/9/3
f 162/9/4 146/8/4 142/10/4 159/11/4
f 149/12/5 151/13/5 145/14/5 141/15/5
f 152/7/6 150/16/6 142/17/6 146/8/6
f 148/18/6 144/19/6 150/16/6 152/7/6
f 143/20/7 147/21/7 151/13/7 149/12/7
f 161/5/3 148/18/3 152/7/3 163/6/3
f 159/22/1 142/23/1 150/2/1 164/1/1
f 141/24/1 153/25/1 158/26/1 149/27/1
f 147/21/3 155/28/3 157/29/3 151/13/3
f 145/14/8 156/30/8 153/31/8 141/32/8
f 151/13/3 157/29/3 156/30/3 145/14/3
f 143/33/9 154/34/9 155/28/9 147/21/9
f 149/27/1 158/26/1 154/34/1 143/33/1
f 153/25/1 159/22/1 164/1/1 158/26/1
f 155/28/3 161/5/3 163/6/3 157/29/3
f 156/30/4 162/9/4 159/11/4 153/31/4
f 157/29/3 163/6/3 162/9/3 156/30/3
f 154/34/9 160/4/9 161/5/9 155/28/9
f 158/26/1 164/1/1 160/4/1 154/34/1
f 167/4/9 165/3/9 166/18/9 168/5/9
f 144/19/6 148/18/6 166/18/6 165/19/6
f 148/18/3 161/5/3 168/5/3 166/18/3
f 160/4/1 144/3/1 165/3/1 167/4/1
f 192/1/1 178/2/1 172/3/1 188/4/1
f 189/5/2 188/4/2 195/4/2 196/5/2
f 191/6/3 180/7/3 174/8/3 190/9/3
f 190/9/4 174/8/4 170/10/4 187/11/4
f 177/12/5 179/13/5 173/14/5 169/15/5
f 180/7/6 178/16/6 170/17/6 174/8/6
f 176/18/6 172/19/6 178/16/6 180/7/6
f 171/20/7 175/21/7 179/13/7 177/12/7
f 189/5/3 176/18/3 180/7/3 191/6/3
f 187/22/1 170/23/1 178/2/1 192/1/1
f 169/24/1 181/25/1 186/26/1 177/27/1
f 175/21/3 183/28/3 185/29/3 179/13/3
f 173/14/8 184/30/8 181/31/8 169/32/8
f 179/13/3 185/29/3 184/30/3 173/14/3
f 171/33/9 182/34/9 183/28/9 175/21/9
f 177/27/1 186/26/1 182/34/1 171/33/1
f 181/25/1 187/22/1 192/1/1 186/26/1
f 183/28/3 189/5/3 191/6/3 185/29/3
f 184/30/4 190/9/4 187/11/4 181/31/4
f 185/29/3 191/6/3 190/9/3 184/30/3
f 182/34/9 188/4/9 189/5/9 183/28/9
f 186/26/1 192/1/1 188/4/1 182/34/1
f 195/4/9 193/3/9 194/18/9 196/5/9
f 172/19/6 176/18/6 194/18/6 193/19/6
f 176/18/3 189/5/3 196/5/3 194/18/3
f 188/4/1 172/3/1 193/3/1 195/4/1
f 220/1/1 206/2/1 200/3/1 216/4/1
f 217/5/2 216/4/2 223/4/2 224/5/2
f 219/6/3 208/7/3 202/8/3 218/9/3
f 218/9/4 202/8/4 198/10/4 215/11/4
f 205/12/5 207/13/5 201/14/5 197/15/5
f 208/7/6 206/16/6 198/17/6 202/8/6
f 204/18/6 200/19/6 206/16/6 208/7/6
f 199/20/7 203/21/7 207/13/7 205/12/7
f 217/5/3 204/18/3 208/7/3 219/6/3
f 215/22/1 198/23/1 206/2/1 220/1/1
f 197/24/1 209/25/1 214/26/1 205/27/1
f 203/21/3 211/28/3 213/29/3 207/13/3
f 201/14/8 212/30/8 209/31/8 197/32/8
f 207/13/3 213/29/3 212/30/3 201/14/3
f 199/33/9 210/34/9 211/28/9 203/21/9
f 205/27/1 214/26/1 210/34/1 199/33/1
f 209/25/1 215/22/1 220/1/1 214/26/1
f 211/28/3 217/5/3 219/6/3 213/29/3
f 212/30/4 218/9/4 215/11/4 209/31/4
f 213/29/3 219/6/3 218/9/3 212/30/3
f 210/34/9 216/4/9 217/5/9 211/28/9
f 214/26/1 220/1/1 216/4/1 210/34/1
f 223/4/9 221/3/9 222/18/9 224/5/9
f 200/19/6 204/18/6 222/18/6 221/19/6
f 204/18/3 217/5/3 224/5/3 222/18/3
f 216/4/1 200/3/1 221/3/1 223/4/1
f 248/1/1 234/2/1 228/3/1 244/4/1
f 245/5/2 244/4/2 251/4/2 252/5/2
f 247/6/3 236/7/3 230/8/3 246/9/3
f 246/9/4 230/8/4 226/10/4 243/11/4
f 233/12/5 235/13/5 229/14/5 225/15/5
f 236/7/6 234/16/6 226/17/6 230/8/6
f 232/18/6 228/19/6 234/16/6 236/7/6
f 227/20/7 231/21/7 235/13/7 233/12/7
f 245/5/3 232/18/3 236/7/3 247/6/3
f 243/22/1 226/23/1 234/2/1 248/1/1
f 225/24/1 237/25/1 242/26/1 233/27/1
f 231/21/3 239/28/3 241/29/3 235/13/3
f 229/14/8 240/30/8 237/31/8 225/32/8
f 235/13/3 241/29/3 240/30/3 229/14/3
f 227/33/9 238/34/9 239/28/9 231/21/9
f 233/27/1 242/26/1 238/34/1 227/33/1
f 237/25/1 243/22/1 248/1/1 242/26/1
f 239/28/3 245/5/3 247/6/3 241/29/3
f 240/30/4 246/9/4 243/11/4 237/31/4
f 241/29/3 247/6/3 246/9/3 240/30/3
f 238/34/9 244/4/9 245/5/9 239/28/9
f 242/26/1 248/1/1 244/4/1 238/34/1
f 251/4/9 249/3/9 250/18/9 252/5/9
f 228/19/6 232/18/6 250/18/6 249/19/6
f 232/18/3 245/5/3 252/5/3 250/18/3
f 244/4/1 228/3/1 249/3/1 251/4/1
f 276/1/1 262/2/1 256/3/1 272/4/1
f 273/5/2 272/4/2 279/4/2 280/5/2
f 275/6/3 264/7/3 258/8/3 274/9/3
f 274/9/4 258/8/4 254/10/4 271/11/4
f 261/12/5 263/13/5 257/14/5 253/15/5
f 264/7/6 262/16/6 254/17/6 258/8/6
f 260/18/6 256/19/6 262/16/6 264/7/6
f 255/20/7 259/21/7 263/13/7 261/12/7
f 273/5/3 260/18/3 264/7/3 275/6/3
f 271/22/1 254/23/1 262/2/1 276/1/1
f 253/24/1 265/25/1 270/26/1 261/27/1
f 259/21/3 267/28/3 269/29/3 263/13/3
f 257/14/8 268/30/8 265/31/8 253/32/8
f 263/13/3 269/29/3 268/30/3 257/14/3
f 255/33/9 266/34/9 267/28/9 259/21/9
f 261/27/1 270/26/1 266/34/1 255/33/1
f 265/25/1 271/22/1 276/1/1 270/26/1
f 267/28/3 273/5/3 275/6/3 269/29/3
f 268/30/4 274/9/4 271/11/4 265/31/4
f 269/29/3 275/6/3 274/9/3 268/30/3
f 266/34/9 272/4/9 273/5/9 267/28/9
f 270/26/1 276/1/1 272/4/1 266/34/1
f 279/4/9 277/3/9 278/18/9 280/5/9
f 256/19/6 260/18/6 278/18/6 277/19/6
f 260/18/3 273/5/3 280/5/3 278/18/3
f 272/4/1 256/3/1 277/3/1 279/4/1
f 281/24/1 282/23/1 284/3/1 283/33/1
f 283/33/10 284/3/10 288/18/10 287/21/10
f 287/21/3 288/18/3 286/8/3 285/14/3
f 285/14/11 286/8/11 282/10/11 281/32/11
f 283/20/12 287/21/12 285/14/12 281/15/12
f 284/3/1 282/23/1 289/23/1 290/3/1
f 291/18/13 290/19/13 289/17/13 292/8/13
f 282/10/11 286/8/11 292/8/11 289/10/11
f 288/18/9 284/3/9 290/3/9 291/18/9
f 286/8/3 288/18/3 291/18/3 292/8/3
